<?xml version="1.0" encoding="utf-8" standalone="no"?>
<!DOCTYPE svg PUBLIC "-//W3C//DTD SVG 1.1//EN"
  "http://www.w3.org/Graphics/SVG/1.1/DTD/svg11.dtd">
<svg xmlns:xlink="http://www.w3.org/1999/xlink" width="429.37875pt" height="316.2395pt" viewBox="0 0 429.37875 316.2395" xmlns="http://www.w3.org/2000/svg" version="1.1">
 <metadata>
  <rdf:RDF xmlns:dc="http://purl.org/dc/elements/1.1/" xmlns:cc="http://creativecommons.org/ns#" xmlns:rdf="http://www.w3.org/1999/02/22-rdf-syntax-ns#">
   <cc:Work>
    <dc:type rdf:resource="http://purl.org/dc/dcmitype/StillImage"/>
    <dc:date>2025-10-04T18:20:22.474012</dc:date>
    <dc:format>image/svg+xml</dc:format>
    <dc:creator>
     <cc:Agent>
      <dc:title>Matplotlib v3.9.2, https://matplotlib.org/</dc:title>
     </cc:Agent>
    </dc:creator>
   </cc:Work>
  </rdf:RDF>
 </metadata>
 <defs>
  <style type="text/css">*{stroke-linejoin: round; stroke-linecap: butt}</style>
 </defs>
 <g id="figure_1">
  <g id="patch_1">
   <path d="M 0 316.2395 
L 429.37875 316.2395 
L 429.37875 0 
L 0 0 
z
" style="fill: #ffffff"/>
  </g>
  <g id="axes_1">
   <g id="patch_2">
    <path d="M 55.515 273.312 
L 412.635 273.312 
L 412.635 7.2 
L 55.515 7.2 
z
" style="fill: #ffffff"/>
   </g>
   <g id="matplotlib.axis_1">
    <g id="xtick_1">
     <g id="line2d_1">
      <path d="M 55.515 273.312 
L 55.515 7.2 
" clip-path="url(#p2f5e81eb4a)" style="fill: none; stroke: #cccccc; stroke-opacity: 0.5; stroke-width: 0.8; stroke-linecap: round"/>
     </g>
     <g id="line2d_2">
      <defs>
       <path id="mfeecf7c622" d="M 0 0 
L 0 5 
" style="stroke: #262626; stroke-width: 0.8"/>
      </defs>
      <g>
       <use xlink:href="#mfeecf7c622" x="55.515" y="273.312" style="fill: #262626; stroke: #262626; stroke-width: 0.8"/>
      </g>
     </g>
     <g id="text_1">
      <!-- 280 -->
      <g style="fill: #262626" transform="translate(45.97125 289.410437) scale(0.1 -0.1)">
       <defs>
        <path id="DejaVuSans-32" d="M 1228 531 
L 3431 531 
L 3431 0 
L 469 0 
L 469 531 
Q 828 903 1448 1529 
Q 2069 2156 2228 2338 
Q 2531 2678 2651 2914 
Q 2772 3150 2772 3378 
Q 2772 3750 2511 3984 
Q 2250 4219 1831 4219 
Q 1534 4219 1204 4116 
Q 875 4013 500 3803 
L 500 4441 
Q 881 4594 1212 4672 
Q 1544 4750 1819 4750 
Q 2544 4750 2975 4387 
Q 3406 4025 3406 3419 
Q 3406 3131 3298 2873 
Q 3191 2616 2906 2266 
Q 2828 2175 2409 1742 
Q 1991 1309 1228 531 
z
" transform="scale(0.015625)"/>
        <path id="DejaVuSans-38" d="M 2034 2216 
Q 1584 2216 1326 1975 
Q 1069 1734 1069 1313 
Q 1069 891 1326 650 
Q 1584 409 2034 409 
Q 2484 409 2743 651 
Q 3003 894 3003 1313 
Q 3003 1734 2745 1975 
Q 2488 2216 2034 2216 
z
M 1403 2484 
Q 997 2584 770 2862 
Q 544 3141 544 3541 
Q 544 4100 942 4425 
Q 1341 4750 2034 4750 
Q 2731 4750 3128 4425 
Q 3525 4100 3525 3541 
Q 3525 3141 3298 2862 
Q 3072 2584 2669 2484 
Q 3125 2378 3379 2068 
Q 3634 1759 3634 1313 
Q 3634 634 3220 271 
Q 2806 -91 2034 -91 
Q 1263 -91 848 271 
Q 434 634 434 1313 
Q 434 1759 690 2068 
Q 947 2378 1403 2484 
z
M 1172 3481 
Q 1172 3119 1398 2916 
Q 1625 2713 2034 2713 
Q 2441 2713 2670 2916 
Q 2900 3119 2900 3481 
Q 2900 3844 2670 4047 
Q 2441 4250 2034 4250 
Q 1625 4250 1398 4047 
Q 1172 3844 1172 3481 
z
" transform="scale(0.015625)"/>
        <path id="DejaVuSans-30" d="M 2034 4250 
Q 1547 4250 1301 3770 
Q 1056 3291 1056 2328 
Q 1056 1369 1301 889 
Q 1547 409 2034 409 
Q 2525 409 2770 889 
Q 3016 1369 3016 2328 
Q 3016 3291 2770 3770 
Q 2525 4250 2034 4250 
z
M 2034 4750 
Q 2819 4750 3233 4129 
Q 3647 3509 3647 2328 
Q 3647 1150 3233 529 
Q 2819 -91 2034 -91 
Q 1250 -91 836 529 
Q 422 1150 422 2328 
Q 422 3509 836 4129 
Q 1250 4750 2034 4750 
z
" transform="scale(0.015625)"/>
       </defs>
       <use xlink:href="#DejaVuSans-32"/>
       <use xlink:href="#DejaVuSans-38" x="63.623047"/>
       <use xlink:href="#DejaVuSans-30" x="127.246094"/>
      </g>
     </g>
    </g>
    <g id="xtick_2">
     <g id="line2d_3">
      <path d="M 115.035 273.312 
L 115.035 7.2 
" clip-path="url(#p2f5e81eb4a)" style="fill: none; stroke: #cccccc; stroke-opacity: 0.5; stroke-width: 0.8; stroke-linecap: round"/>
     </g>
     <g id="line2d_4">
      <g>
       <use xlink:href="#mfeecf7c622" x="115.035" y="273.312" style="fill: #262626; stroke: #262626; stroke-width: 0.8"/>
      </g>
     </g>
     <g id="text_2">
      <!-- 282 -->
      <g style="fill: #262626" transform="translate(105.49125 289.410437) scale(0.1 -0.1)">
       <use xlink:href="#DejaVuSans-32"/>
       <use xlink:href="#DejaVuSans-38" x="63.623047"/>
       <use xlink:href="#DejaVuSans-32" x="127.246094"/>
      </g>
     </g>
    </g>
    <g id="xtick_3">
     <g id="line2d_5">
      <path d="M 174.555 273.312 
L 174.555 7.2 
" clip-path="url(#p2f5e81eb4a)" style="fill: none; stroke: #cccccc; stroke-opacity: 0.5; stroke-width: 0.8; stroke-linecap: round"/>
     </g>
     <g id="line2d_6">
      <g>
       <use xlink:href="#mfeecf7c622" x="174.555" y="273.312" style="fill: #262626; stroke: #262626; stroke-width: 0.8"/>
      </g>
     </g>
     <g id="text_3">
      <!-- 284 -->
      <g style="fill: #262626" transform="translate(165.01125 289.410437) scale(0.1 -0.1)">
       <defs>
        <path id="DejaVuSans-34" d="M 2419 4116 
L 825 1625 
L 2419 1625 
L 2419 4116 
z
M 2253 4666 
L 3047 4666 
L 3047 1625 
L 3713 1625 
L 3713 1100 
L 3047 1100 
L 3047 0 
L 2419 0 
L 2419 1100 
L 313 1100 
L 313 1709 
L 2253 4666 
z
" transform="scale(0.015625)"/>
       </defs>
       <use xlink:href="#DejaVuSans-32"/>
       <use xlink:href="#DejaVuSans-38" x="63.623047"/>
       <use xlink:href="#DejaVuSans-34" x="127.246094"/>
      </g>
     </g>
    </g>
    <g id="xtick_4">
     <g id="line2d_7">
      <path d="M 234.075 273.312 
L 234.075 7.2 
" clip-path="url(#p2f5e81eb4a)" style="fill: none; stroke: #cccccc; stroke-opacity: 0.5; stroke-width: 0.8; stroke-linecap: round"/>
     </g>
     <g id="line2d_8">
      <g>
       <use xlink:href="#mfeecf7c622" x="234.075" y="273.312" style="fill: #262626; stroke: #262626; stroke-width: 0.8"/>
      </g>
     </g>
     <g id="text_4">
      <!-- 286 -->
      <g style="fill: #262626" transform="translate(224.53125 289.410437) scale(0.1 -0.1)">
       <defs>
        <path id="DejaVuSans-36" d="M 2113 2584 
Q 1688 2584 1439 2293 
Q 1191 2003 1191 1497 
Q 1191 994 1439 701 
Q 1688 409 2113 409 
Q 2538 409 2786 701 
Q 3034 994 3034 1497 
Q 3034 2003 2786 2293 
Q 2538 2584 2113 2584 
z
M 3366 4563 
L 3366 3988 
Q 3128 4100 2886 4159 
Q 2644 4219 2406 4219 
Q 1781 4219 1451 3797 
Q 1122 3375 1075 2522 
Q 1259 2794 1537 2939 
Q 1816 3084 2150 3084 
Q 2853 3084 3261 2657 
Q 3669 2231 3669 1497 
Q 3669 778 3244 343 
Q 2819 -91 2113 -91 
Q 1303 -91 875 529 
Q 447 1150 447 2328 
Q 447 3434 972 4092 
Q 1497 4750 2381 4750 
Q 2619 4750 2861 4703 
Q 3103 4656 3366 4563 
z
" transform="scale(0.015625)"/>
       </defs>
       <use xlink:href="#DejaVuSans-32"/>
       <use xlink:href="#DejaVuSans-38" x="63.623047"/>
       <use xlink:href="#DejaVuSans-36" x="127.246094"/>
      </g>
     </g>
    </g>
    <g id="xtick_5">
     <g id="line2d_9">
      <path d="M 293.595 273.312 
L 293.595 7.2 
" clip-path="url(#p2f5e81eb4a)" style="fill: none; stroke: #cccccc; stroke-opacity: 0.5; stroke-width: 0.8; stroke-linecap: round"/>
     </g>
     <g id="line2d_10">
      <g>
       <use xlink:href="#mfeecf7c622" x="293.595" y="273.312" style="fill: #262626; stroke: #262626; stroke-width: 0.8"/>
      </g>
     </g>
     <g id="text_5">
      <!-- 288 -->
      <g style="fill: #262626" transform="translate(284.05125 289.410437) scale(0.1 -0.1)">
       <use xlink:href="#DejaVuSans-32"/>
       <use xlink:href="#DejaVuSans-38" x="63.623047"/>
       <use xlink:href="#DejaVuSans-38" x="127.246094"/>
      </g>
     </g>
    </g>
    <g id="xtick_6">
     <g id="line2d_11">
      <path d="M 353.115 273.312 
L 353.115 7.2 
" clip-path="url(#p2f5e81eb4a)" style="fill: none; stroke: #cccccc; stroke-opacity: 0.5; stroke-width: 0.8; stroke-linecap: round"/>
     </g>
     <g id="line2d_12">
      <g>
       <use xlink:href="#mfeecf7c622" x="353.115" y="273.312" style="fill: #262626; stroke: #262626; stroke-width: 0.8"/>
      </g>
     </g>
     <g id="text_6">
      <!-- 290 -->
      <g style="fill: #262626" transform="translate(343.57125 289.410437) scale(0.1 -0.1)">
       <defs>
        <path id="DejaVuSans-39" d="M 703 97 
L 703 672 
Q 941 559 1184 500 
Q 1428 441 1663 441 
Q 2288 441 2617 861 
Q 2947 1281 2994 2138 
Q 2813 1869 2534 1725 
Q 2256 1581 1919 1581 
Q 1219 1581 811 2004 
Q 403 2428 403 3163 
Q 403 3881 828 4315 
Q 1253 4750 1959 4750 
Q 2769 4750 3195 4129 
Q 3622 3509 3622 2328 
Q 3622 1225 3098 567 
Q 2575 -91 1691 -91 
Q 1453 -91 1209 -44 
Q 966 3 703 97 
z
M 1959 2075 
Q 2384 2075 2632 2365 
Q 2881 2656 2881 3163 
Q 2881 3666 2632 3958 
Q 2384 4250 1959 4250 
Q 1534 4250 1286 3958 
Q 1038 3666 1038 3163 
Q 1038 2656 1286 2365 
Q 1534 2075 1959 2075 
z
" transform="scale(0.015625)"/>
       </defs>
       <use xlink:href="#DejaVuSans-32"/>
       <use xlink:href="#DejaVuSans-39" x="63.623047"/>
       <use xlink:href="#DejaVuSans-30" x="127.246094"/>
      </g>
     </g>
    </g>
    <g id="xtick_7">
     <g id="line2d_13">
      <path d="M 412.635 273.312 
L 412.635 7.2 
" clip-path="url(#p2f5e81eb4a)" style="fill: none; stroke: #cccccc; stroke-opacity: 0.5; stroke-width: 0.8; stroke-linecap: round"/>
     </g>
     <g id="line2d_14">
      <g>
       <use xlink:href="#mfeecf7c622" x="412.635" y="273.312" style="fill: #262626; stroke: #262626; stroke-width: 0.8"/>
      </g>
     </g>
     <g id="text_7">
      <!-- 292 -->
      <g style="fill: #262626" transform="translate(403.09125 289.410437) scale(0.1 -0.1)">
       <use xlink:href="#DejaVuSans-32"/>
       <use xlink:href="#DejaVuSans-39" x="63.623047"/>
       <use xlink:href="#DejaVuSans-32" x="127.246094"/>
      </g>
     </g>
    </g>
    <g id="text_8">
     <!-- Binding Energy / eV -->
     <g style="fill: #262626" transform="translate(164.986094 306.127937) scale(0.14 -0.14)">
      <defs>
       <path id="DejaVuSans-42" d="M 1259 2228 
L 1259 519 
L 2272 519 
Q 2781 519 3026 730 
Q 3272 941 3272 1375 
Q 3272 1813 3026 2020 
Q 2781 2228 2272 2228 
L 1259 2228 
z
M 1259 4147 
L 1259 2741 
L 2194 2741 
Q 2656 2741 2882 2914 
Q 3109 3088 3109 3444 
Q 3109 3797 2882 3972 
Q 2656 4147 2194 4147 
L 1259 4147 
z
M 628 4666 
L 2241 4666 
Q 2963 4666 3353 4366 
Q 3744 4066 3744 3513 
Q 3744 3084 3544 2831 
Q 3344 2578 2956 2516 
Q 3422 2416 3680 2098 
Q 3938 1781 3938 1306 
Q 3938 681 3513 340 
Q 3088 0 2303 0 
L 628 0 
L 628 4666 
z
" transform="scale(0.015625)"/>
       <path id="DejaVuSans-69" d="M 603 3500 
L 1178 3500 
L 1178 0 
L 603 0 
L 603 3500 
z
M 603 4863 
L 1178 4863 
L 1178 4134 
L 603 4134 
L 603 4863 
z
" transform="scale(0.015625)"/>
       <path id="DejaVuSans-6e" d="M 3513 2113 
L 3513 0 
L 2938 0 
L 2938 2094 
Q 2938 2591 2744 2837 
Q 2550 3084 2163 3084 
Q 1697 3084 1428 2787 
Q 1159 2491 1159 1978 
L 1159 0 
L 581 0 
L 581 3500 
L 1159 3500 
L 1159 2956 
Q 1366 3272 1645 3428 
Q 1925 3584 2291 3584 
Q 2894 3584 3203 3211 
Q 3513 2838 3513 2113 
z
" transform="scale(0.015625)"/>
       <path id="DejaVuSans-64" d="M 2906 2969 
L 2906 4863 
L 3481 4863 
L 3481 0 
L 2906 0 
L 2906 525 
Q 2725 213 2448 61 
Q 2172 -91 1784 -91 
Q 1150 -91 751 415 
Q 353 922 353 1747 
Q 353 2572 751 3078 
Q 1150 3584 1784 3584 
Q 2172 3584 2448 3432 
Q 2725 3281 2906 2969 
z
M 947 1747 
Q 947 1113 1208 752 
Q 1469 391 1925 391 
Q 2381 391 2643 752 
Q 2906 1113 2906 1747 
Q 2906 2381 2643 2742 
Q 2381 3103 1925 3103 
Q 1469 3103 1208 2742 
Q 947 2381 947 1747 
z
" transform="scale(0.015625)"/>
       <path id="DejaVuSans-67" d="M 2906 1791 
Q 2906 2416 2648 2759 
Q 2391 3103 1925 3103 
Q 1463 3103 1205 2759 
Q 947 2416 947 1791 
Q 947 1169 1205 825 
Q 1463 481 1925 481 
Q 2391 481 2648 825 
Q 2906 1169 2906 1791 
z
M 3481 434 
Q 3481 -459 3084 -895 
Q 2688 -1331 1869 -1331 
Q 1566 -1331 1297 -1286 
Q 1028 -1241 775 -1147 
L 775 -588 
Q 1028 -725 1275 -790 
Q 1522 -856 1778 -856 
Q 2344 -856 2625 -561 
Q 2906 -266 2906 331 
L 2906 616 
Q 2728 306 2450 153 
Q 2172 0 1784 0 
Q 1141 0 747 490 
Q 353 981 353 1791 
Q 353 2603 747 3093 
Q 1141 3584 1784 3584 
Q 2172 3584 2450 3431 
Q 2728 3278 2906 2969 
L 2906 3500 
L 3481 3500 
L 3481 434 
z
" transform="scale(0.015625)"/>
       <path id="DejaVuSans-20" transform="scale(0.015625)"/>
       <path id="DejaVuSans-45" d="M 628 4666 
L 3578 4666 
L 3578 4134 
L 1259 4134 
L 1259 2753 
L 3481 2753 
L 3481 2222 
L 1259 2222 
L 1259 531 
L 3634 531 
L 3634 0 
L 628 0 
L 628 4666 
z
" transform="scale(0.015625)"/>
       <path id="DejaVuSans-65" d="M 3597 1894 
L 3597 1613 
L 953 1613 
Q 991 1019 1311 708 
Q 1631 397 2203 397 
Q 2534 397 2845 478 
Q 3156 559 3463 722 
L 3463 178 
Q 3153 47 2828 -22 
Q 2503 -91 2169 -91 
Q 1331 -91 842 396 
Q 353 884 353 1716 
Q 353 2575 817 3079 
Q 1281 3584 2069 3584 
Q 2775 3584 3186 3129 
Q 3597 2675 3597 1894 
z
M 3022 2063 
Q 3016 2534 2758 2815 
Q 2500 3097 2075 3097 
Q 1594 3097 1305 2825 
Q 1016 2553 972 2059 
L 3022 2063 
z
" transform="scale(0.015625)"/>
       <path id="DejaVuSans-72" d="M 2631 2963 
Q 2534 3019 2420 3045 
Q 2306 3072 2169 3072 
Q 1681 3072 1420 2755 
Q 1159 2438 1159 1844 
L 1159 0 
L 581 0 
L 581 3500 
L 1159 3500 
L 1159 2956 
Q 1341 3275 1631 3429 
Q 1922 3584 2338 3584 
Q 2397 3584 2469 3576 
Q 2541 3569 2628 3553 
L 2631 2963 
z
" transform="scale(0.015625)"/>
       <path id="DejaVuSans-79" d="M 2059 -325 
Q 1816 -950 1584 -1140 
Q 1353 -1331 966 -1331 
L 506 -1331 
L 506 -850 
L 844 -850 
Q 1081 -850 1212 -737 
Q 1344 -625 1503 -206 
L 1606 56 
L 191 3500 
L 800 3500 
L 1894 763 
L 2988 3500 
L 3597 3500 
L 2059 -325 
z
" transform="scale(0.015625)"/>
       <path id="DejaVuSans-2f" d="M 1625 4666 
L 2156 4666 
L 531 -594 
L 0 -594 
L 1625 4666 
z
" transform="scale(0.015625)"/>
       <path id="DejaVuSans-56" d="M 1831 0 
L 50 4666 
L 709 4666 
L 2188 738 
L 3669 4666 
L 4325 4666 
L 2547 0 
L 1831 0 
z
" transform="scale(0.015625)"/>
      </defs>
      <use xlink:href="#DejaVuSans-42"/>
      <use xlink:href="#DejaVuSans-69" x="68.603516"/>
      <use xlink:href="#DejaVuSans-6e" x="96.386719"/>
      <use xlink:href="#DejaVuSans-64" x="159.765625"/>
      <use xlink:href="#DejaVuSans-69" x="223.242188"/>
      <use xlink:href="#DejaVuSans-6e" x="251.025391"/>
      <use xlink:href="#DejaVuSans-67" x="314.404297"/>
      <use xlink:href="#DejaVuSans-20" x="377.880859"/>
      <use xlink:href="#DejaVuSans-45" x="409.667969"/>
      <use xlink:href="#DejaVuSans-6e" x="472.851562"/>
      <use xlink:href="#DejaVuSans-65" x="536.230469"/>
      <use xlink:href="#DejaVuSans-72" x="597.753906"/>
      <use xlink:href="#DejaVuSans-67" x="637.117188"/>
      <use xlink:href="#DejaVuSans-79" x="700.59375"/>
      <use xlink:href="#DejaVuSans-20" x="759.773438"/>
      <use xlink:href="#DejaVuSans-2f" x="791.560547"/>
      <use xlink:href="#DejaVuSans-20" x="825.251953"/>
      <use xlink:href="#DejaVuSans-65" x="857.039062"/>
      <use xlink:href="#DejaVuSans-56" x="918.5625"/>
     </g>
    </g>
   </g>
   <g id="matplotlib.axis_2">
    <g id="ytick_1">
     <g id="line2d_15">
      <path d="M 55.515 261.216 
L 412.635 261.216 
" clip-path="url(#p2f5e81eb4a)" style="fill: none; stroke: #cccccc; stroke-opacity: 0.5; stroke-width: 0.8; stroke-linecap: round"/>
     </g>
     <g id="line2d_16">
      <defs>
       <path id="m2704ff63ae" d="M 0 0 
L -5 0 
" style="stroke: #262626; stroke-width: 0.8"/>
      </defs>
      <g>
       <use xlink:href="#m2704ff63ae" x="55.515" y="261.216" style="fill: #262626; stroke: #262626; stroke-width: 0.8"/>
      </g>
     </g>
     <g id="text_9">
      <!-- 0.00 -->
      <g style="fill: #262626" transform="translate(24.749375 265.015219) scale(0.1 -0.1)">
       <defs>
        <path id="DejaVuSans-2e" d="M 684 794 
L 1344 794 
L 1344 0 
L 684 0 
L 684 794 
z
" transform="scale(0.015625)"/>
       </defs>
       <use xlink:href="#DejaVuSans-30"/>
       <use xlink:href="#DejaVuSans-2e" x="63.623047"/>
       <use xlink:href="#DejaVuSans-30" x="95.410156"/>
       <use xlink:href="#DejaVuSans-30" x="159.033203"/>
      </g>
     </g>
    </g>
    <g id="ytick_2">
     <g id="line2d_17">
      <path d="M 55.515 204.06274 
L 412.635 204.06274 
" clip-path="url(#p2f5e81eb4a)" style="fill: none; stroke: #cccccc; stroke-opacity: 0.5; stroke-width: 0.8; stroke-linecap: round"/>
     </g>
     <g id="line2d_18">
      <g>
       <use xlink:href="#m2704ff63ae" x="55.515" y="204.06274" style="fill: #262626; stroke: #262626; stroke-width: 0.8"/>
      </g>
     </g>
     <g id="text_10">
      <!-- 0.02 -->
      <g style="fill: #262626" transform="translate(24.749375 207.861959) scale(0.1 -0.1)">
       <use xlink:href="#DejaVuSans-30"/>
       <use xlink:href="#DejaVuSans-2e" x="63.623047"/>
       <use xlink:href="#DejaVuSans-30" x="95.410156"/>
       <use xlink:href="#DejaVuSans-32" x="159.033203"/>
      </g>
     </g>
    </g>
    <g id="ytick_3">
     <g id="line2d_19">
      <path d="M 55.515 146.909481 
L 412.635 146.909481 
" clip-path="url(#p2f5e81eb4a)" style="fill: none; stroke: #cccccc; stroke-opacity: 0.5; stroke-width: 0.8; stroke-linecap: round"/>
     </g>
     <g id="line2d_20">
      <g>
       <use xlink:href="#m2704ff63ae" x="55.515" y="146.909481" style="fill: #262626; stroke: #262626; stroke-width: 0.8"/>
      </g>
     </g>
     <g id="text_11">
      <!-- 0.04 -->
      <g style="fill: #262626" transform="translate(24.749375 150.708699) scale(0.1 -0.1)">
       <use xlink:href="#DejaVuSans-30"/>
       <use xlink:href="#DejaVuSans-2e" x="63.623047"/>
       <use xlink:href="#DejaVuSans-30" x="95.410156"/>
       <use xlink:href="#DejaVuSans-34" x="159.033203"/>
      </g>
     </g>
    </g>
    <g id="ytick_4">
     <g id="line2d_21">
      <path d="M 55.515 89.756221 
L 412.635 89.756221 
" clip-path="url(#p2f5e81eb4a)" style="fill: none; stroke: #cccccc; stroke-opacity: 0.5; stroke-width: 0.8; stroke-linecap: round"/>
     </g>
     <g id="line2d_22">
      <g>
       <use xlink:href="#m2704ff63ae" x="55.515" y="89.756221" style="fill: #262626; stroke: #262626; stroke-width: 0.8"/>
      </g>
     </g>
     <g id="text_12">
      <!-- 0.06 -->
      <g style="fill: #262626" transform="translate(24.749375 93.55544) scale(0.1 -0.1)">
       <use xlink:href="#DejaVuSans-30"/>
       <use xlink:href="#DejaVuSans-2e" x="63.623047"/>
       <use xlink:href="#DejaVuSans-30" x="95.410156"/>
       <use xlink:href="#DejaVuSans-36" x="159.033203"/>
      </g>
     </g>
    </g>
    <g id="ytick_5">
     <g id="line2d_23">
      <path d="M 55.515 32.602961 
L 412.635 32.602961 
" clip-path="url(#p2f5e81eb4a)" style="fill: none; stroke: #cccccc; stroke-opacity: 0.5; stroke-width: 0.8; stroke-linecap: round"/>
     </g>
     <g id="line2d_24">
      <g>
       <use xlink:href="#m2704ff63ae" x="55.515" y="32.602961" style="fill: #262626; stroke: #262626; stroke-width: 0.8"/>
      </g>
     </g>
     <g id="text_13">
      <!-- 0.08 -->
      <g style="fill: #262626" transform="translate(24.749375 36.40218) scale(0.1 -0.1)">
       <use xlink:href="#DejaVuSans-30"/>
       <use xlink:href="#DejaVuSans-2e" x="63.623047"/>
       <use xlink:href="#DejaVuSans-30" x="95.410156"/>
       <use xlink:href="#DejaVuSans-38" x="159.033203"/>
      </g>
     </g>
    </g>
    <g id="text_14">
     <!-- Relative Intensity -->
     <g style="fill: #262626" transform="translate(17.837813 201.177875) rotate(-90) scale(0.14 -0.14)">
      <defs>
       <path id="DejaVuSans-52" d="M 2841 2188 
Q 3044 2119 3236 1894 
Q 3428 1669 3622 1275 
L 4263 0 
L 3584 0 
L 2988 1197 
Q 2756 1666 2539 1819 
Q 2322 1972 1947 1972 
L 1259 1972 
L 1259 0 
L 628 0 
L 628 4666 
L 2053 4666 
Q 2853 4666 3247 4331 
Q 3641 3997 3641 3322 
Q 3641 2881 3436 2590 
Q 3231 2300 2841 2188 
z
M 1259 4147 
L 1259 2491 
L 2053 2491 
Q 2509 2491 2742 2702 
Q 2975 2913 2975 3322 
Q 2975 3731 2742 3939 
Q 2509 4147 2053 4147 
L 1259 4147 
z
" transform="scale(0.015625)"/>
       <path id="DejaVuSans-6c" d="M 603 4863 
L 1178 4863 
L 1178 0 
L 603 0 
L 603 4863 
z
" transform="scale(0.015625)"/>
       <path id="DejaVuSans-61" d="M 2194 1759 
Q 1497 1759 1228 1600 
Q 959 1441 959 1056 
Q 959 750 1161 570 
Q 1363 391 1709 391 
Q 2188 391 2477 730 
Q 2766 1069 2766 1631 
L 2766 1759 
L 2194 1759 
z
M 3341 1997 
L 3341 0 
L 2766 0 
L 2766 531 
Q 2569 213 2275 61 
Q 1981 -91 1556 -91 
Q 1019 -91 701 211 
Q 384 513 384 1019 
Q 384 1609 779 1909 
Q 1175 2209 1959 2209 
L 2766 2209 
L 2766 2266 
Q 2766 2663 2505 2880 
Q 2244 3097 1772 3097 
Q 1472 3097 1187 3025 
Q 903 2953 641 2809 
L 641 3341 
Q 956 3463 1253 3523 
Q 1550 3584 1831 3584 
Q 2591 3584 2966 3190 
Q 3341 2797 3341 1997 
z
" transform="scale(0.015625)"/>
       <path id="DejaVuSans-74" d="M 1172 4494 
L 1172 3500 
L 2356 3500 
L 2356 3053 
L 1172 3053 
L 1172 1153 
Q 1172 725 1289 603 
Q 1406 481 1766 481 
L 2356 481 
L 2356 0 
L 1766 0 
Q 1100 0 847 248 
Q 594 497 594 1153 
L 594 3053 
L 172 3053 
L 172 3500 
L 594 3500 
L 594 4494 
L 1172 4494 
z
" transform="scale(0.015625)"/>
       <path id="DejaVuSans-76" d="M 191 3500 
L 800 3500 
L 1894 563 
L 2988 3500 
L 3597 3500 
L 2284 0 
L 1503 0 
L 191 3500 
z
" transform="scale(0.015625)"/>
       <path id="DejaVuSans-49" d="M 628 4666 
L 1259 4666 
L 1259 0 
L 628 0 
L 628 4666 
z
" transform="scale(0.015625)"/>
       <path id="DejaVuSans-73" d="M 2834 3397 
L 2834 2853 
Q 2591 2978 2328 3040 
Q 2066 3103 1784 3103 
Q 1356 3103 1142 2972 
Q 928 2841 928 2578 
Q 928 2378 1081 2264 
Q 1234 2150 1697 2047 
L 1894 2003 
Q 2506 1872 2764 1633 
Q 3022 1394 3022 966 
Q 3022 478 2636 193 
Q 2250 -91 1575 -91 
Q 1294 -91 989 -36 
Q 684 19 347 128 
L 347 722 
Q 666 556 975 473 
Q 1284 391 1588 391 
Q 1994 391 2212 530 
Q 2431 669 2431 922 
Q 2431 1156 2273 1281 
Q 2116 1406 1581 1522 
L 1381 1569 
Q 847 1681 609 1914 
Q 372 2147 372 2553 
Q 372 3047 722 3315 
Q 1072 3584 1716 3584 
Q 2034 3584 2315 3537 
Q 2597 3491 2834 3397 
z
" transform="scale(0.015625)"/>
      </defs>
      <use xlink:href="#DejaVuSans-52"/>
      <use xlink:href="#DejaVuSans-65" x="64.982422"/>
      <use xlink:href="#DejaVuSans-6c" x="126.505859"/>
      <use xlink:href="#DejaVuSans-61" x="154.289062"/>
      <use xlink:href="#DejaVuSans-74" x="215.568359"/>
      <use xlink:href="#DejaVuSans-69" x="254.777344"/>
      <use xlink:href="#DejaVuSans-76" x="282.560547"/>
      <use xlink:href="#DejaVuSans-65" x="341.740234"/>
      <use xlink:href="#DejaVuSans-20" x="403.263672"/>
      <use xlink:href="#DejaVuSans-49" x="435.050781"/>
      <use xlink:href="#DejaVuSans-6e" x="464.542969"/>
      <use xlink:href="#DejaVuSans-74" x="527.921875"/>
      <use xlink:href="#DejaVuSans-65" x="567.130859"/>
      <use xlink:href="#DejaVuSans-6e" x="628.654297"/>
      <use xlink:href="#DejaVuSans-73" x="692.033203"/>
      <use xlink:href="#DejaVuSans-69" x="744.132812"/>
      <use xlink:href="#DejaVuSans-74" x="771.916016"/>
      <use xlink:href="#DejaVuSans-79" x="811.125"/>
     </g>
    </g>
   </g>
   <g id="line2d_25">
    <path d="M 52.539 261.216 
L 55.515 261.216 
L 58.491 261.216 
L 61.467 261.216 
L 64.443 261.216 
L 67.419 261.216 
L 70.395 261.216 
L 73.371 261.216 
L 76.347 261.216 
L 79.323 261.216 
L 82.299 261.216 
L 85.275 261.216 
L 88.251 261.216 
L 91.227 261.216 
L 94.203 261.216 
L 97.179 261.216 
L 100.155 261.216 
L 103.131 261.216 
L 106.107 261.216 
L 109.083 261.216 
L 112.059 261.216 
L 115.035 261.216 
L 118.011 261.216 
L 120.987 261.216 
L 123.963 261.216 
L 126.939 261.216 
L 129.915 261.216 
L 132.891 261.216 
L 135.867 261.216 
L 138.843 261.216 
L 141.819 261.216 
L 144.795 261.216 
L 147.771 261.216 
L 150.747 261.216 
L 153.723 261.216 
L 156.699 261.216 
L 159.675 261.216 
L 162.651 261.216 
L 165.627 261.216 
L 168.603 261.216 
L 171.579 261.216 
L 174.555 261.216 
L 177.531 261.216 
L 180.507 261.213258 
L 183.483 261.204318 
L 186.459 261.190764 
L 189.435 261.180368 
L 192.411 261.18584 
L 195.387 261.17409 
L 198.363 261.145017 
L 201.339 261.15445 
L 204.315 261.042794 
L 207.291 260.738834 
L 210.267 260.686359 
L 213.243 260.540931 
L 216.219 260.160083 
L 219.195 259.692955 
L 222.171 259.005229 
L 225.147 257.911471 
L 228.123 256.518277 
L 231.099 254.472738 
L 234.075 250.831045 
L 237.051 245.048038 
L 240.027 236.8939 
L 243.003 222.919546 
L 245.979 201.455538 
L 248.955 172.042844 
L 251.931 138.035025 
L 254.907 106.365528 
L 257.883 83.035685 
L 260.859 71.337198 
L 263.835 67.984784 
L 266.811 72.19351 
L 269.787 79.951765 
L 272.763 93.696841 
L 275.739 110.262018 
L 278.715 133.090782 
L 281.691 157.099496 
L 284.667 180.187561 
L 287.643 199.480689 
L 290.619 214.911202 
L 293.595 225.279814 
L 296.571 232.271248 
L 299.547 237.092651 
L 302.523 240.835565 
L 305.499 242.862438 
L 308.475 245.402382 
L 311.451 248.061177 
L 314.427 250.057723 
L 317.403 251.826306 
L 320.379 253.626167 
L 323.355 255.126309 
L 326.331 256.278209 
L 329.307 257.146088 
L 332.283 257.829022 
L 335.259 258.192696 
L 338.235 258.680299 
L 341.211 259.028006 
L 344.187 259.226198 
L 347.163 259.566648 
L 350.139 259.720255 
L 353.115 259.927006 
L 356.091 260.085937 
L 359.067 260.295759 
L 362.043 260.485261 
L 365.019 260.618542 
L 367.995 260.692327 
L 370.971 260.709459 
L 373.947 260.650857 
L 376.923 260.535992 
L 379.899 260.386738 
L 382.875 260.178038 
L 385.851 259.978416 
L 388.827 259.769045 
L 391.803 259.550241 
L 394.779 259.451327 
L 397.755 259.45584 
L 400.731 259.486972 
L 403.707 259.619095 
L 406.683 259.801244 
L 409.659 260.000034 
L 412.635 260.203841 
L 415.611 260.386259 
" clip-path="url(#p2f5e81eb4a)" style="fill: none; stroke: #1f77b4; stroke-width: 1.5; stroke-linecap: round"/>
   </g>
   <g id="line2d_26">
    <path d="M 52.539 261.216 
L 55.515 261.216 
L 58.491 261.216 
L 61.467 261.216 
L 64.443 261.216 
L 67.419 261.216 
L 70.395 261.216 
L 73.371 261.216 
L 76.347 261.216 
L 79.323 261.216 
L 82.299 261.216 
L 85.275 261.216 
L 88.251 261.216 
L 91.227 261.216 
L 94.203 261.216 
L 97.179 261.216 
L 100.155 261.216 
L 103.131 261.216 
L 106.107 261.216 
L 109.083 261.216 
L 112.059 261.216 
L 115.035 261.216 
L 118.011 261.216 
L 120.987 261.216 
L 123.963 261.216 
L 126.939 261.216 
L 129.915 261.216 
L 132.891 261.216 
L 135.867 261.216 
L 138.843 261.216 
L 141.819 261.216 
L 144.795 261.216 
L 147.771 261.216 
L 150.747 261.216 
L 153.723 261.216 
L 156.699 261.216 
L 159.675 261.216 
L 162.651 261.216 
L 165.627 261.216 
L 168.603 261.216 
L 171.579 261.216 
L 174.555 261.216 
L 177.531 261.216 
L 180.507 261.216 
L 183.483 261.216 
L 186.459 261.216 
L 189.435 261.216 
L 192.411 261.216 
L 195.387 261.216 
L 198.363 261.216 
L 201.339 261.216 
L 204.315 261.216 
L 207.291 261.190014 
L 210.267 261.191494 
L 213.243 261.159833 
L 216.219 261.073718 
L 219.195 260.975904 
L 222.171 260.821149 
L 225.147 260.600505 
L 228.123 260.184005 
L 231.099 259.602536 
L 234.075 258.763195 
L 237.051 257.70588 
L 240.027 238.683839 
L 243.003 227.672854 
L 245.979 216.198343 
L 248.955 205.413421 
L 251.931 195.370627 
L 254.907 187.351086 
L 257.883 182.223286 
L 260.859 179.312262 
L 263.835 181.790973 
L 266.811 186.161715 
L 269.787 192.702296 
L 272.763 200.733695 
L 275.739 209.455155 
L 278.715 217.634667 
L 281.691 225.597096 
L 284.667 232.238185 
L 287.643 238.120827 
L 290.619 242.740526 
L 293.595 246.677505 
L 296.571 249.888949 
L 299.547 252.038322 
L 302.523 253.730702 
L 305.499 254.912244 
L 308.475 255.775152 
L 311.451 256.268336 
L 314.427 256.812996 
L 317.403 256.997437 
L 320.379 257.051669 
L 323.355 257.109873 
L 326.331 256.765364 
L 329.307 256.213136 
L 332.283 255.239274 
L 335.259 254.516894 
L 338.235 253.839535 
L 341.211 252.971084 
L 344.187 252.828199 
L 347.163 253.093615 
L 350.139 253.27608 
L 353.115 253.55768 
L 356.091 253.879528 
L 359.067 253.959479 
L 362.043 253.662085 
L 365.019 252.732364 
L 367.995 251.238544 
L 370.971 249.225189 
L 373.947 246.898594 
L 376.923 244.62333 
L 379.899 242.120225 
L 382.875 240.285447 
L 385.851 239.51771 
L 388.827 240.061902 
L 391.803 240.891159 
L 394.779 242.350829 
L 397.755 244.532797 
L 400.731 246.87287 
L 403.707 249.472099 
L 406.683 251.891172 
L 409.659 254.107646 
L 412.635 255.76065 
L 415.611 257.413662 
" clip-path="url(#p2f5e81eb4a)" style="fill: none; stroke: #ff7f0e; stroke-width: 1.5; stroke-linecap: round"/>
   </g>
   <g id="line2d_27">
    <path d="M 52.539 261.216 
L 55.515 261.216 
L 58.491 261.216 
L 61.467 261.216 
L 64.443 261.216 
L 67.419 261.216 
L 70.395 261.216 
L 73.371 261.216 
L 76.347 261.216 
L 79.323 261.216 
L 82.299 261.216 
L 85.275 261.216 
L 88.251 261.216 
L 91.227 261.216 
L 94.203 261.216 
L 97.179 261.216 
L 100.155 261.216 
L 103.131 261.216 
L 106.107 261.216 
L 109.083 261.216 
L 112.059 261.216 
L 115.035 261.216 
L 118.011 261.216 
L 120.987 261.216 
L 123.963 261.216 
L 126.939 261.216 
L 129.915 261.216 
L 132.891 261.216 
L 135.867 261.216 
L 138.843 261.216 
L 141.819 261.216 
L 144.795 261.216 
L 147.771 261.216 
L 150.747 261.216 
L 153.723 261.216 
L 156.699 261.216 
L 159.675 261.216 
L 162.651 261.216 
L 165.627 261.216 
L 168.603 261.187704 
L 171.579 261.133392 
L 174.555 261.16119 
L 177.531 261.07744 
L 180.507 261.033698 
L 183.483 260.980276 
L 186.459 260.804955 
L 189.435 260.720211 
L 192.411 260.632864 
L 195.387 260.539904 
L 198.363 260.195427 
L 201.339 259.64469 
L 204.315 258.941809 
L 207.291 257.645197 
L 210.267 255.372077 
L 213.243 251.947562 
L 216.219 246.953292 
L 219.195 240.029332 
L 222.171 231.812139 
L 225.147 222.385434 
L 228.123 213.570817 
L 231.099 206.825494 
L 234.075 202.607187 
L 237.051 202.195031 
L 240.027 205.660357 
L 243.003 211.75857 
L 245.979 218.604861 
L 248.955 225.90752 
L 251.931 231.537046 
L 254.907 234.092823 
L 257.883 234.572898 
L 260.859 231.310379 
L 263.835 224.787667 
L 266.811 215.407831 
L 269.787 204.140641 
L 272.763 193.7551 
L 275.739 185.454797 
L 278.715 180.877812 
L 281.691 181.813451 
L 284.667 187.01288 
L 287.643 194.760739 
L 290.619 204.016194 
L 293.595 214.299254 
L 296.571 224.532866 
L 299.547 232.724011 
L 302.523 239.208546 
L 305.499 244.636315 
L 308.475 248.96867 
L 311.451 251.955413 
L 314.427 254.024384 
L 317.403 255.425749 
L 320.379 256.440836 
L 323.355 257.449235 
L 326.331 258.171949 
L 329.307 258.619923 
L 332.283 259.073995 
L 335.259 259.313692 
L 338.235 259.483401 
L 341.211 259.728466 
L 344.187 259.982769 
L 347.163 260.253953 
L 350.139 260.326908 
L 353.115 260.32227 
L 356.091 260.472235 
L 359.067 260.449974 
L 362.043 260.134577 
L 365.019 259.960932 
L 367.995 259.715213 
L 370.971 259.279134 
L 373.947 258.867684 
L 376.923 258.455457 
L 379.899 258.213853 
L 382.875 258.060906 
L 385.851 258.040839 
L 388.827 258.211476 
L 391.803 258.417349 
L 394.779 258.61007 
L 397.755 258.734962 
L 400.731 258.823174 
L 403.707 258.961547 
L 406.683 259.080229 
L 409.659 259.033993 
L 412.635 258.949826 
L 415.611 258.973544 
" clip-path="url(#p2f5e81eb4a)" style="fill: none; stroke: #2ca02c; stroke-width: 1.5; stroke-linecap: round"/>
   </g>
   <g id="line2d_28">
    <path d="M 52.539 261.216 
L 55.515 261.216 
L 58.491 261.216 
L 61.467 261.216 
L 64.443 261.216 
L 67.419 261.216 
L 70.395 261.216 
L 73.371 261.216 
L 76.347 261.216 
L 79.323 261.216 
L 82.299 261.216 
L 85.275 261.216 
L 88.251 261.216 
L 91.227 261.216 
L 94.203 261.216 
L 97.179 261.216 
L 100.155 261.216 
L 103.131 261.216 
L 106.107 261.216 
L 109.083 261.216 
L 112.059 261.216 
L 115.035 261.216 
L 118.011 261.216 
L 120.987 261.216 
L 123.963 261.216 
L 126.939 261.216 
L 129.915 261.216 
L 132.891 261.216 
L 135.867 261.216 
L 138.843 261.216 
L 141.819 261.216 
L 144.795 261.216 
L 147.771 261.216 
L 150.747 261.216 
L 153.723 261.216 
L 156.699 261.216 
L 159.675 261.216 
L 162.651 261.216 
L 165.627 261.216 
L 168.603 261.216 
L 171.579 261.216 
L 174.555 261.216 
L 177.531 261.216 
L 180.507 261.216 
L 183.483 261.216 
L 186.459 261.216 
L 189.435 261.216 
L 192.411 261.216 
L 195.387 261.216 
L 198.363 261.216 
L 201.339 261.166572 
L 204.315 261.01429 
L 207.291 260.91986 
L 210.267 260.810442 
L 213.243 260.577447 
L 216.219 260.61697 
L 219.195 260.189808 
L 222.171 259.707517 
L 225.147 259.228431 
L 228.123 258.26569 
L 231.099 256.762215 
L 234.075 253.799905 
L 237.051 248.996041 
L 240.027 241.419232 
L 243.003 228.523432 
L 245.979 210.379488 
L 248.955 186.195169 
L 251.931 158.537571 
L 254.907 129.123168 
L 257.883 105.786629 
L 260.859 90.054377 
L 263.835 84.342158 
L 266.811 87.061839 
L 269.787 95.830778 
L 272.763 110.859578 
L 275.739 128.661574 
L 278.715 147.508033 
L 281.691 168.137678 
L 284.667 187.163942 
L 287.643 203.856147 
L 290.619 218.221307 
L 293.595 227.914561 
L 296.571 236.181109 
L 299.547 241.515639 
L 302.523 244.860521 
L 305.499 246.29873 
L 308.475 247.315041 
L 311.451 247.337506 
L 314.427 247.771619 
L 317.403 248.637693 
L 320.379 249.737133 
L 323.355 251.276304 
L 326.331 253.120029 
L 329.307 254.684621 
L 332.283 256.001131 
L 335.259 257.412285 
L 338.235 258.201573 
L 341.211 258.91329 
L 344.187 259.400112 
L 347.163 259.716962 
L 350.139 259.874886 
L 353.115 260.181071 
L 356.091 260.094036 
L 359.067 259.821865 
L 362.043 259.171426 
L 365.019 258.235815 
L 367.995 256.277557 
L 370.971 254.641195 
L 373.947 251.967431 
L 376.923 250.377269 
L 379.899 249.068116 
L 382.875 248.860811 
L 385.851 250.015651 
L 388.827 252.193898 
L 391.803 253.857246 
L 394.779 255.862157 
L 397.755 257.786646 
L 400.731 259.163251 
L 403.707 260.003627 
L 406.683 260.291898 
L 409.659 260.631007 
L 412.635 260.938336 
L 415.611 261.165669 
" clip-path="url(#p2f5e81eb4a)" style="fill: none; stroke: #d62728; stroke-width: 1.5; stroke-linecap: round"/>
   </g>
   <g id="line2d_29">
    <path d="M 52.539 261.216 
L 55.515 261.216 
L 58.491 261.216 
L 61.467 261.216 
L 64.443 261.216 
L 67.419 261.216 
L 70.395 261.216 
L 73.371 261.216 
L 76.347 261.216 
L 79.323 261.216 
L 82.299 261.216 
L 85.275 261.216 
L 88.251 261.216 
L 91.227 261.216 
L 94.203 261.216 
L 97.179 261.216 
L 100.155 261.216 
L 103.131 261.216 
L 106.107 261.216 
L 109.083 261.216 
L 112.059 261.216 
L 115.035 261.216 
L 118.011 261.216 
L 120.987 261.216 
L 123.963 261.216 
L 126.939 261.216 
L 129.915 261.216 
L 132.891 261.216 
L 135.867 261.216 
L 138.843 261.216 
L 141.819 261.216 
L 144.795 261.216 
L 147.771 261.216 
L 150.747 261.216 
L 153.723 261.216 
L 156.699 261.216 
L 159.675 261.216 
L 162.651 261.216 
L 165.627 261.216 
L 168.603 261.216 
L 171.579 261.216 
L 174.555 261.216 
L 177.531 261.216 
L 180.507 261.216 
L 183.483 261.216 
L 186.459 261.216 
L 189.435 261.216 
L 192.411 261.216 
L 195.387 261.216 
L 198.363 261.216 
L 201.339 261.211088 
L 204.315 261.116698 
L 207.291 261.070073 
L 210.267 260.833502 
L 213.243 260.869841 
L 216.219 260.476151 
L 219.195 260.101302 
L 222.171 259.288961 
L 225.147 258.540419 
L 228.123 256.776848 
L 231.099 254.427768 
L 234.075 251.49188 
L 237.051 246.620035 
L 240.027 241.192024 
L 243.003 234.552355 
L 245.979 227.189575 
L 248.955 219.011245 
L 251.931 211.268254 
L 254.907 204.10922 
L 257.883 196.876498 
L 260.859 192.44976 
L 263.835 190.655057 
L 266.811 190.281135 
L 269.787 192.369732 
L 272.763 196.418273 
L 275.739 203.202123 
L 278.715 209.083426 
L 281.691 216.203512 
L 284.667 223.474473 
L 287.643 230.875122 
L 290.619 237.303597 
L 293.595 241.885231 
L 296.571 245.701411 
L 299.547 248.753814 
L 302.523 251.443655 
L 305.499 252.798743 
L 308.475 254.241317 
L 311.451 254.743466 
L 314.427 255.262083 
L 317.403 254.542989 
L 320.379 253.898605 
L 323.355 252.355802 
L 326.331 249.313074 
L 329.307 246.026175 
L 332.283 241.263776 
L 335.259 236.162591 
L 338.235 230.757714 
L 341.211 226.27361 
L 344.187 223.310829 
L 347.163 221.448542 
L 350.139 221.673577 
L 353.115 224.232058 
L 356.091 227.953436 
L 359.067 232.279586 
L 362.043 237.204494 
L 365.019 241.938284 
L 367.995 245.674907 
L 370.971 249.290464 
L 373.947 252.11649 
L 376.923 254.295269 
L 379.899 256.143087 
L 382.875 257.276582 
L 385.851 258.3651 
L 388.827 258.914787 
L 391.803 259.544548 
L 394.779 260.094323 
L 397.755 260.285358 
L 400.731 260.455342 
L 403.707 260.561821 
L 406.683 260.83149 
L 409.659 260.911086 
L 412.635 260.906121 
L 415.611 260.991076 
" clip-path="url(#p2f5e81eb4a)" style="fill: none; stroke: #9467bd; stroke-width: 1.5; stroke-linecap: round"/>
   </g>
   <g id="line2d_30">
    <path d="M 52.539 261.216 
L 55.515 261.216 
L 58.491 261.216 
L 61.467 261.216 
L 64.443 261.216 
L 67.419 261.216 
L 70.395 261.216 
L 73.371 261.216 
L 76.347 261.216 
L 79.323 261.216 
L 82.299 261.216 
L 85.275 261.216 
L 88.251 261.216 
L 91.227 261.216 
L 94.203 261.216 
L 97.179 261.216 
L 100.155 261.216 
L 103.131 261.216 
L 106.107 261.216 
L 109.083 261.216 
L 112.059 261.216 
L 115.035 261.216 
L 118.011 261.216 
L 120.987 261.216 
L 123.963 261.216 
L 126.939 261.216 
L 129.915 261.216 
L 132.891 261.216 
L 135.867 261.216 
L 138.843 261.216 
L 141.819 261.216 
L 144.795 261.216 
L 147.771 261.216 
L 150.747 261.216 
L 153.723 261.216 
L 156.699 261.216 
L 159.675 261.216 
L 162.651 261.216 
L 165.627 261.216 
L 168.603 261.216 
L 171.579 261.216 
L 174.555 261.206522 
L 177.531 261.205211 
L 180.507 261.214266 
L 183.483 261.187168 
L 186.459 261.15425 
L 189.435 261.130859 
L 192.411 261.121906 
L 195.387 261.100893 
L 198.363 261.030641 
L 201.339 260.97331 
L 204.315 260.963233 
L 207.291 260.829996 
L 210.267 260.58176 
L 213.243 260.230144 
L 216.219 259.544214 
L 219.195 258.749602 
L 222.171 257.55544 
L 225.147 255.473542 
L 228.123 252.287276 
L 231.099 247.238691 
L 234.075 240.285793 
L 237.051 231.805488 
L 240.027 220.750391 
L 243.003 207.626348 
L 245.979 194.235718 
L 248.955 181.231646 
L 251.931 170.994016 
L 254.907 164.597103 
L 257.883 161.389022 
L 260.859 161.431637 
L 263.835 165.028857 
L 266.811 171.521038 
L 269.787 179.794338 
L 272.763 190.095965 
L 275.739 200.04636 
L 278.715 209.244558 
L 281.691 218.012696 
L 284.667 224.630915 
L 287.643 229.404421 
L 290.619 232.694624 
L 293.595 234.578578 
L 296.571 235.754869 
L 299.547 236.863051 
L 302.523 238.320869 
L 305.499 239.983849 
L 308.475 241.593709 
L 311.451 243.460177 
L 314.427 245.577546 
L 317.403 248.050184 
L 320.379 250.371243 
L 323.355 252.803731 
L 326.331 255.123756 
L 329.307 256.952262 
L 332.283 258.415678 
L 335.259 259.756351 
L 338.235 260.598453 
L 341.211 261.054264 
L 344.187 261.071914 
L 347.163 260.695823 
L 350.139 259.861086 
L 353.115 258.296656 
L 356.091 256.398837 
L 359.067 254.274897 
L 362.043 252.262882 
L 365.019 251.035223 
L 367.995 250.716568 
L 370.971 251.135752 
L 373.947 251.91314 
L 376.923 253.215361 
L 379.899 254.88161 
L 382.875 256.579001 
L 385.851 258.151521 
L 388.827 259.373198 
L 391.803 260.162704 
L 394.779 260.508252 
L 397.755 260.547068 
L 400.731 260.71121 
L 403.707 260.882649 
L 406.683 260.722298 
L 409.659 260.525881 
L 412.635 260.464344 
L 415.611 260.254579 
" clip-path="url(#p2f5e81eb4a)" style="fill: none; stroke: #8c564b; stroke-width: 1.5; stroke-linecap: round"/>
   </g>
   <g id="line2d_31">
    <path d="M 52.539 261.216 
L 55.515 261.216 
L 58.491 261.216 
L 61.467 261.216 
L 64.443 261.216 
L 67.419 261.216 
L 70.395 261.216 
L 73.371 261.216 
L 76.347 261.216 
L 79.323 261.216 
L 82.299 261.216 
L 85.275 261.216 
L 88.251 261.216 
L 91.227 261.216 
L 94.203 261.216 
L 97.179 261.216 
L 100.155 261.216 
L 103.131 261.216 
L 106.107 261.216 
L 109.083 261.216 
L 112.059 261.216 
L 115.035 261.216 
L 118.011 261.216 
L 120.987 261.216 
L 123.963 261.216 
L 126.939 261.216 
L 129.915 261.216 
L 132.891 261.216 
L 135.867 261.216 
L 138.843 261.216 
L 141.819 261.216 
L 144.795 261.216 
L 147.771 261.216 
L 150.747 261.216 
L 153.723 261.216 
L 156.699 261.216 
L 159.675 261.216 
L 162.651 261.216 
L 165.627 261.216 
L 168.603 261.216 
L 171.579 261.216 
L 174.555 261.216 
L 177.531 261.216 
L 180.507 261.216 
L 183.483 261.188709 
L 186.459 261.169107 
L 189.435 261.182896 
L 192.411 261.156141 
L 195.387 261.140723 
L 198.363 261.059293 
L 201.339 261.013857 
L 204.315 260.977249 
L 207.291 260.910682 
L 210.267 260.782959 
L 213.243 260.643043 
L 216.219 260.428469 
L 219.195 260.084946 
L 222.171 259.522294 
L 225.147 258.507621 
L 228.123 257.113252 
L 231.099 255.279205 
L 234.075 252.736355 
L 237.051 249.510485 
L 240.027 245.327389 
L 243.003 240.543703 
L 245.979 235.504518 
L 248.955 230.877728 
L 251.931 226.500018 
L 254.907 222.854996 
L 257.883 220.257658 
L 260.859 218.914074 
L 263.835 219.157856 
L 266.811 220.257387 
L 269.787 222.331894 
L 272.763 225.515274 
L 275.739 228.991632 
L 278.715 232.733569 
L 281.691 236.642086 
L 284.667 240.310125 
L 287.643 243.986305 
L 290.619 246.753051 
L 293.595 248.776676 
L 296.571 250.246117 
L 299.547 251.272813 
L 302.523 251.817312 
L 305.499 251.790994 
L 308.475 251.278062 
L 311.451 250.673534 
L 314.427 249.996787 
L 317.403 249.461834 
L 320.379 248.308233 
L 323.355 246.752582 
L 326.331 244.817071 
L 329.307 241.885214 
L 332.283 238.455818 
L 335.259 234.470173 
L 338.235 230.683554 
L 341.211 227.404673 
L 344.187 225.494959 
L 347.163 225.411569 
L 350.139 226.549286 
L 353.115 228.599061 
L 356.091 231.874978 
L 359.067 234.814157 
L 362.043 237.530287 
L 365.019 239.932321 
L 367.995 242.184565 
L 370.971 244.360521 
L 373.947 246.36077 
L 376.923 248.104234 
L 379.899 249.878923 
L 382.875 251.743411 
L 385.851 253.408212 
L 388.827 254.922708 
L 391.803 256.343989 
L 394.779 257.512776 
L 397.755 258.346131 
L 400.731 259.075533 
L 403.707 259.702229 
L 406.683 260.123068 
L 409.659 260.353475 
L 412.635 260.594539 
L 415.611 260.77225 
" clip-path="url(#p2f5e81eb4a)" style="fill: none; stroke: #e377c2; stroke-width: 1.5; stroke-linecap: round"/>
   </g>
   <g id="line2d_32">
    <path d="M 52.539 261.216 
L 55.515 261.216 
L 58.491 261.216 
L 61.467 261.216 
L 64.443 261.216 
L 67.419 261.216 
L 70.395 261.216 
L 73.371 261.216 
L 76.347 261.216 
L 79.323 261.216 
L 82.299 261.216 
L 85.275 261.216 
L 88.251 261.216 
L 91.227 261.216 
L 94.203 261.216 
L 97.179 261.216 
L 100.155 261.216 
L 103.131 261.216 
L 106.107 261.216 
L 109.083 261.216 
L 112.059 261.216 
L 115.035 261.216 
L 118.011 261.216 
L 120.987 261.216 
L 123.963 261.216 
L 126.939 261.216 
L 129.915 261.216 
L 132.891 261.216 
L 135.867 261.216 
L 138.843 261.216 
L 141.819 261.216 
L 144.795 261.216 
L 147.771 261.216 
L 150.747 261.216 
L 153.723 261.216 
L 156.699 261.216 
L 159.675 261.216 
L 162.651 261.216 
L 165.627 261.216 
L 168.603 261.216 
L 171.579 261.216 
L 174.555 261.216 
L 177.531 261.216 
L 180.507 261.216 
L 183.483 261.216 
L 186.459 261.216 
L 189.435 261.216 
L 192.411 261.216 
L 195.387 261.149003 
L 198.363 261.191543 
L 201.339 261.12687 
L 204.315 261.104749 
L 207.291 260.913938 
L 210.267 260.436194 
L 213.243 260.370755 
L 216.219 260.021214 
L 219.195 259.507554 
L 222.171 258.97272 
L 225.147 257.917483 
L 228.123 256.148096 
L 231.099 253.201956 
L 234.075 248.055544 
L 237.051 238.915746 
L 240.027 223.007564 
L 243.003 198.331473 
L 245.979 164.944161 
L 248.955 127.392605 
L 251.931 88.722907 
L 254.907 54.459434 
L 257.883 31.534784 
L 260.859 19.296 
L 263.835 23.780789 
L 266.811 40.461268 
L 269.787 66.477236 
L 272.763 96.447894 
L 275.739 127.841595 
L 278.715 157.243201 
L 281.691 181.355418 
L 284.667 200.720159 
L 287.643 214.593649 
L 290.619 224.667289 
L 293.595 232.67406 
L 296.571 237.776002 
L 299.547 242.164712 
L 302.523 245.297433 
L 305.499 247.842872 
L 308.475 249.673304 
L 311.451 251.678631 
L 314.427 253.390249 
L 317.403 255.007019 
L 320.379 256.376687 
L 323.355 257.425806 
L 326.331 258.246252 
L 329.307 258.794862 
L 332.283 259.454351 
L 335.259 259.998777 
L 338.235 260.060688 
L 341.211 260.26374 
L 344.187 260.702765 
L 347.163 260.891174 
L 350.139 260.841515 
L 353.115 260.989841 
L 356.091 261.052842 
L 359.067 260.899727 
L 362.043 260.918482 
L 365.019 261.036501 
L 367.995 260.961191 
L 370.971 260.932392 
L 373.947 260.898369 
L 376.923 261.046676 
L 379.899 261.01826 
L 382.875 261.081269 
L 385.851 260.957132 
L 388.827 260.877287 
L 391.803 260.707498 
L 394.779 260.845677 
L 397.755 260.886558 
L 400.731 260.787027 
L 403.707 260.765439 
L 406.683 260.747811 
L 409.659 260.451208 
L 412.635 260.171135 
L 415.611 259.743893 
" clip-path="url(#p2f5e81eb4a)" style="fill: none; stroke: #7f7f7f; stroke-width: 1.5; stroke-linecap: round"/>
   </g>
   <g id="line2d_33">
    <path d="M 52.539 261.216 
L 55.515 261.216 
L 58.491 261.216 
L 61.467 261.216 
L 64.443 261.216 
L 67.419 261.216 
L 70.395 261.216 
L 73.371 261.216 
L 76.347 261.216 
L 79.323 261.216 
L 82.299 261.216 
L 85.275 261.216 
L 88.251 261.216 
L 91.227 261.216 
L 94.203 261.216 
L 97.179 261.216 
L 100.155 261.216 
L 103.131 261.216 
L 106.107 261.216 
L 109.083 261.216 
L 112.059 261.216 
L 115.035 261.216 
L 118.011 261.216 
L 120.987 261.216 
L 123.963 261.216 
L 126.939 261.216 
L 129.915 261.216 
L 132.891 261.216 
L 135.867 261.216 
L 138.843 261.216 
L 141.819 261.216 
L 144.795 261.216 
L 147.771 261.216 
L 150.747 261.216 
L 153.723 261.216 
L 156.699 261.216 
L 159.675 261.216 
L 162.651 261.216 
L 165.627 261.216 
L 168.603 261.216 
L 171.579 261.216 
L 174.555 261.216 
L 177.531 261.216 
L 180.507 261.216 
L 183.483 261.216 
L 186.459 261.216 
L 189.435 261.205366 
L 192.411 261.15899 
L 195.387 261.164606 
L 198.363 261.181568 
L 201.339 261.098893 
L 204.315 261.018328 
L 207.291 260.862384 
L 210.267 260.735765 
L 213.243 260.652663 
L 216.219 260.384611 
L 219.195 260.273563 
L 222.171 259.838925 
L 225.147 259.283311 
L 228.123 258.259489 
L 231.099 256.314497 
L 234.075 253.212697 
L 237.051 247.875564 
L 240.027 239.594921 
L 243.003 227.985761 
L 245.979 213.081486 
L 248.955 196.333103 
L 251.931 178.223342 
L 254.907 163.152555 
L 257.883 152.468298 
L 260.859 147.846287 
L 263.835 148.924295 
L 266.811 155.69091 
L 269.787 165.575499 
L 272.763 178.374068 
L 275.739 190.397901 
L 278.715 202.630825 
L 281.691 213.163739 
L 284.667 221.142624 
L 287.643 225.758896 
L 290.619 226.66626 
L 293.595 224.348572 
L 296.571 218.603259 
L 299.547 211.537098 
L 302.523 204.517879 
L 305.499 200.783996 
L 308.475 199.26256 
L 311.451 201.706631 
L 314.427 207.93522 
L 317.403 214.975975 
L 320.379 222.850922 
L 323.355 231.026764 
L 326.331 238.090686 
L 329.307 243.579269 
L 332.283 248.522896 
L 335.259 252.456929 
L 338.235 254.832058 
L 341.211 256.747724 
L 344.187 257.849695 
L 347.163 258.301217 
L 350.139 258.944139 
L 353.115 259.37522 
L 356.091 259.540405 
L 359.067 259.826018 
L 362.043 260.017625 
L 365.019 260.172615 
L 367.995 260.179034 
L 370.971 260.402964 
L 373.947 260.474679 
L 376.923 260.433012 
L 379.899 260.508663 
L 382.875 260.446561 
L 385.851 260.40085 
L 388.827 260.32518 
L 391.803 260.149518 
L 394.779 260.100849 
L 397.755 260.140474 
L 400.731 260.166065 
L 403.707 260.233912 
L 406.683 260.379235 
L 409.659 260.249914 
L 412.635 260.312841 
L 415.611 260.296172 
" clip-path="url(#p2f5e81eb4a)" style="fill: none; stroke: #bcbd22; stroke-width: 1.5; stroke-linecap: round"/>
   </g>
   <g id="line2d_34">
    <path d="M 52.539 261.216 
L 55.515 261.216 
L 58.491 261.216 
L 61.467 261.216 
L 64.443 261.216 
L 67.419 261.216 
L 70.395 261.216 
L 73.371 261.216 
L 76.347 261.216 
L 79.323 261.216 
L 82.299 261.216 
L 85.275 261.216 
L 88.251 261.216 
L 91.227 261.216 
L 94.203 261.216 
L 97.179 261.216 
L 100.155 261.216 
L 103.131 261.216 
L 106.107 261.216 
L 109.083 261.216 
L 112.059 261.216 
L 115.035 261.216 
L 118.011 261.216 
L 120.987 261.216 
L 123.963 261.216 
L 126.939 261.216 
L 129.915 261.216 
L 132.891 261.216 
L 135.867 261.216 
L 138.843 261.216 
L 141.819 261.216 
L 144.795 261.216 
L 147.771 261.216 
L 150.747 261.216 
L 153.723 261.216 
L 156.699 261.216 
L 159.675 261.216 
L 162.651 261.216 
L 165.627 261.216 
L 168.603 261.216 
L 171.579 261.216 
L 174.555 261.216 
L 177.531 261.216 
L 180.507 261.216 
L 183.483 261.216 
L 186.459 261.216 
L 189.435 261.216 
L 192.411 261.216 
L 195.387 261.216 
L 198.363 261.216 
L 201.339 261.216 
L 204.315 261.216 
L 207.291 261.216 
L 210.267 261.216 
L 213.243 261.214514 
L 216.219 261.195572 
L 219.195 261.167314 
L 222.171 261.195531 
L 225.147 261.144751 
L 228.123 261.1191 
L 231.099 261.107263 
L 234.075 261.028318 
L 237.051 260.948888 
L 240.027 260.850106 
L 243.003 260.608842 
L 245.979 260.356008 
L 248.955 259.995733 
L 251.931 259.278519 
L 254.907 258.415282 
L 257.883 257.316905 
L 260.859 255.771184 
L 263.835 253.854687 
L 266.811 251.722111 
L 269.787 249.206073 
L 272.763 246.702335 
L 275.739 244.434108 
L 278.715 242.75156 
L 281.691 241.221166 
L 284.667 240.216009 
L 287.643 239.69143 
L 290.619 239.621176 
L 293.595 239.459687 
L 296.571 239.514487 
L 299.547 239.302901 
L 302.523 239.059616 
L 305.499 239.02886 
L 308.475 239.562107 
L 311.451 240.471089 
L 314.427 241.738778 
L 317.403 243.818302 
L 320.379 245.631738 
L 323.355 247.943487 
L 326.331 250.353598 
L 329.307 252.334944 
L 332.283 254.075346 
L 335.259 255.475409 
L 338.235 256.668326 
L 341.211 257.545807 
L 344.187 258.306021 
L 347.163 258.898623 
L 350.139 259.285423 
L 353.115 259.576381 
L 356.091 259.784479 
L 359.067 259.997904 
L 362.043 260.16923 
L 365.019 260.234672 
L 367.995 260.312793 
L 370.971 260.418977 
L 373.947 260.510548 
L 376.923 260.537578 
L 379.899 260.554582 
L 382.875 260.661082 
L 385.851 260.698736 
L 388.827 260.714156 
L 391.803 260.73964 
L 394.779 260.674265 
L 397.755 260.686852 
L 400.731 260.727291 
L 403.707 260.51506 
L 406.683 260.339332 
L 409.659 259.973048 
L 412.635 259.525272 
L 415.611 258.686539 
" clip-path="url(#p2f5e81eb4a)" style="fill: none; stroke: #17becf; stroke-width: 1.5; stroke-linecap: round"/>
   </g>
   <g id="patch_3">
    <path d="M 55.515 273.312 
L 55.515 7.2 
" style="fill: none; stroke: #000000; stroke-width: 1.2; stroke-linejoin: miter; stroke-linecap: square"/>
   </g>
   <g id="patch_4">
    <path d="M 412.635 273.312 
L 412.635 7.2 
" style="fill: none; stroke: #000000; stroke-width: 1.2; stroke-linejoin: miter; stroke-linecap: square"/>
   </g>
   <g id="patch_5">
    <path d="M 55.515 273.312 
L 412.635 273.312 
" style="fill: none; stroke: #000000; stroke-width: 1.2; stroke-linejoin: miter; stroke-linecap: square"/>
   </g>
   <g id="patch_6">
    <path d="M 55.515 7.2 
L 412.635 7.2 
" style="fill: none; stroke: #000000; stroke-width: 1.2; stroke-linejoin: miter; stroke-linecap: square"/>
   </g>
  </g>
 </g>
 <defs>
  <clipPath id="p2f5e81eb4a">
   <rect x="55.515" y="7.2" width="357.12" height="266.112"/>
  </clipPath>
 </defs>
</svg>
