<?xml version="1.0" encoding="utf-8" standalone="no"?>
<!DOCTYPE svg PUBLIC "-//W3C//DTD SVG 1.1//EN"
  "http://www.w3.org/Graphics/SVG/1.1/DTD/svg11.dtd">
<svg xmlns:xlink="http://www.w3.org/1999/xlink" width="429.37875pt" height="316.2395pt" viewBox="0 0 429.37875 316.2395" xmlns="http://www.w3.org/2000/svg" version="1.1">
 <metadata>
  <rdf:RDF xmlns:dc="http://purl.org/dc/elements/1.1/" xmlns:cc="http://creativecommons.org/ns#" xmlns:rdf="http://www.w3.org/1999/02/22-rdf-syntax-ns#">
   <cc:Work>
    <dc:type rdf:resource="http://purl.org/dc/dcmitype/StillImage"/>
    <dc:date>2025-10-04T18:20:27.676288</dc:date>
    <dc:format>image/svg+xml</dc:format>
    <dc:creator>
     <cc:Agent>
      <dc:title>Matplotlib v3.9.2, https://matplotlib.org/</dc:title>
     </cc:Agent>
    </dc:creator>
   </cc:Work>
  </rdf:RDF>
 </metadata>
 <defs>
  <style type="text/css">*{stroke-linejoin: round; stroke-linecap: butt}</style>
 </defs>
 <g id="figure_1">
  <g id="patch_1">
   <path d="M 0 316.2395 
L 429.37875 316.2395 
L 429.37875 0 
L 0 0 
z
" style="fill: #ffffff"/>
  </g>
  <g id="axes_1">
   <g id="patch_2">
    <path d="M 55.515 273.312 
L 412.635 273.312 
L 412.635 7.2 
L 55.515 7.2 
z
" style="fill: #ffffff"/>
   </g>
   <g id="matplotlib.axis_1">
    <g id="xtick_1">
     <g id="line2d_1">
      <path d="M 55.515 273.312 
L 55.515 7.2 
" clip-path="url(#ped7689f116)" style="fill: none; stroke: #cccccc; stroke-opacity: 0.5; stroke-width: 0.8; stroke-linecap: round"/>
     </g>
     <g id="line2d_2">
      <defs>
       <path id="m78f1dcd619" d="M 0 0 
L 0 5 
" style="stroke: #262626; stroke-width: 0.8"/>
      </defs>
      <g>
       <use xlink:href="#m78f1dcd619" x="55.515" y="273.312" style="fill: #262626; stroke: #262626; stroke-width: 0.8"/>
      </g>
     </g>
     <g id="text_1">
      <!-- 280 -->
      <g style="fill: #262626" transform="translate(45.97125 289.410437) scale(0.1 -0.1)">
       <defs>
        <path id="DejaVuSans-32" d="M 1228 531 
L 3431 531 
L 3431 0 
L 469 0 
L 469 531 
Q 828 903 1448 1529 
Q 2069 2156 2228 2338 
Q 2531 2678 2651 2914 
Q 2772 3150 2772 3378 
Q 2772 3750 2511 3984 
Q 2250 4219 1831 4219 
Q 1534 4219 1204 4116 
Q 875 4013 500 3803 
L 500 4441 
Q 881 4594 1212 4672 
Q 1544 4750 1819 4750 
Q 2544 4750 2975 4387 
Q 3406 4025 3406 3419 
Q 3406 3131 3298 2873 
Q 3191 2616 2906 2266 
Q 2828 2175 2409 1742 
Q 1991 1309 1228 531 
z
" transform="scale(0.015625)"/>
        <path id="DejaVuSans-38" d="M 2034 2216 
Q 1584 2216 1326 1975 
Q 1069 1734 1069 1313 
Q 1069 891 1326 650 
Q 1584 409 2034 409 
Q 2484 409 2743 651 
Q 3003 894 3003 1313 
Q 3003 1734 2745 1975 
Q 2488 2216 2034 2216 
z
M 1403 2484 
Q 997 2584 770 2862 
Q 544 3141 544 3541 
Q 544 4100 942 4425 
Q 1341 4750 2034 4750 
Q 2731 4750 3128 4425 
Q 3525 4100 3525 3541 
Q 3525 3141 3298 2862 
Q 3072 2584 2669 2484 
Q 3125 2378 3379 2068 
Q 3634 1759 3634 1313 
Q 3634 634 3220 271 
Q 2806 -91 2034 -91 
Q 1263 -91 848 271 
Q 434 634 434 1313 
Q 434 1759 690 2068 
Q 947 2378 1403 2484 
z
M 1172 3481 
Q 1172 3119 1398 2916 
Q 1625 2713 2034 2713 
Q 2441 2713 2670 2916 
Q 2900 3119 2900 3481 
Q 2900 3844 2670 4047 
Q 2441 4250 2034 4250 
Q 1625 4250 1398 4047 
Q 1172 3844 1172 3481 
z
" transform="scale(0.015625)"/>
        <path id="DejaVuSans-30" d="M 2034 4250 
Q 1547 4250 1301 3770 
Q 1056 3291 1056 2328 
Q 1056 1369 1301 889 
Q 1547 409 2034 409 
Q 2525 409 2770 889 
Q 3016 1369 3016 2328 
Q 3016 3291 2770 3770 
Q 2525 4250 2034 4250 
z
M 2034 4750 
Q 2819 4750 3233 4129 
Q 3647 3509 3647 2328 
Q 3647 1150 3233 529 
Q 2819 -91 2034 -91 
Q 1250 -91 836 529 
Q 422 1150 422 2328 
Q 422 3509 836 4129 
Q 1250 4750 2034 4750 
z
" transform="scale(0.015625)"/>
       </defs>
       <use xlink:href="#DejaVuSans-32"/>
       <use xlink:href="#DejaVuSans-38" x="63.623047"/>
       <use xlink:href="#DejaVuSans-30" x="127.246094"/>
      </g>
     </g>
    </g>
    <g id="xtick_2">
     <g id="line2d_3">
      <path d="M 115.035 273.312 
L 115.035 7.2 
" clip-path="url(#ped7689f116)" style="fill: none; stroke: #cccccc; stroke-opacity: 0.5; stroke-width: 0.8; stroke-linecap: round"/>
     </g>
     <g id="line2d_4">
      <g>
       <use xlink:href="#m78f1dcd619" x="115.035" y="273.312" style="fill: #262626; stroke: #262626; stroke-width: 0.8"/>
      </g>
     </g>
     <g id="text_2">
      <!-- 282 -->
      <g style="fill: #262626" transform="translate(105.49125 289.410437) scale(0.1 -0.1)">
       <use xlink:href="#DejaVuSans-32"/>
       <use xlink:href="#DejaVuSans-38" x="63.623047"/>
       <use xlink:href="#DejaVuSans-32" x="127.246094"/>
      </g>
     </g>
    </g>
    <g id="xtick_3">
     <g id="line2d_5">
      <path d="M 174.555 273.312 
L 174.555 7.2 
" clip-path="url(#ped7689f116)" style="fill: none; stroke: #cccccc; stroke-opacity: 0.5; stroke-width: 0.8; stroke-linecap: round"/>
     </g>
     <g id="line2d_6">
      <g>
       <use xlink:href="#m78f1dcd619" x="174.555" y="273.312" style="fill: #262626; stroke: #262626; stroke-width: 0.8"/>
      </g>
     </g>
     <g id="text_3">
      <!-- 284 -->
      <g style="fill: #262626" transform="translate(165.01125 289.410437) scale(0.1 -0.1)">
       <defs>
        <path id="DejaVuSans-34" d="M 2419 4116 
L 825 1625 
L 2419 1625 
L 2419 4116 
z
M 2253 4666 
L 3047 4666 
L 3047 1625 
L 3713 1625 
L 3713 1100 
L 3047 1100 
L 3047 0 
L 2419 0 
L 2419 1100 
L 313 1100 
L 313 1709 
L 2253 4666 
z
" transform="scale(0.015625)"/>
       </defs>
       <use xlink:href="#DejaVuSans-32"/>
       <use xlink:href="#DejaVuSans-38" x="63.623047"/>
       <use xlink:href="#DejaVuSans-34" x="127.246094"/>
      </g>
     </g>
    </g>
    <g id="xtick_4">
     <g id="line2d_7">
      <path d="M 234.075 273.312 
L 234.075 7.2 
" clip-path="url(#ped7689f116)" style="fill: none; stroke: #cccccc; stroke-opacity: 0.5; stroke-width: 0.8; stroke-linecap: round"/>
     </g>
     <g id="line2d_8">
      <g>
       <use xlink:href="#m78f1dcd619" x="234.075" y="273.312" style="fill: #262626; stroke: #262626; stroke-width: 0.8"/>
      </g>
     </g>
     <g id="text_4">
      <!-- 286 -->
      <g style="fill: #262626" transform="translate(224.53125 289.410437) scale(0.1 -0.1)">
       <defs>
        <path id="DejaVuSans-36" d="M 2113 2584 
Q 1688 2584 1439 2293 
Q 1191 2003 1191 1497 
Q 1191 994 1439 701 
Q 1688 409 2113 409 
Q 2538 409 2786 701 
Q 3034 994 3034 1497 
Q 3034 2003 2786 2293 
Q 2538 2584 2113 2584 
z
M 3366 4563 
L 3366 3988 
Q 3128 4100 2886 4159 
Q 2644 4219 2406 4219 
Q 1781 4219 1451 3797 
Q 1122 3375 1075 2522 
Q 1259 2794 1537 2939 
Q 1816 3084 2150 3084 
Q 2853 3084 3261 2657 
Q 3669 2231 3669 1497 
Q 3669 778 3244 343 
Q 2819 -91 2113 -91 
Q 1303 -91 875 529 
Q 447 1150 447 2328 
Q 447 3434 972 4092 
Q 1497 4750 2381 4750 
Q 2619 4750 2861 4703 
Q 3103 4656 3366 4563 
z
" transform="scale(0.015625)"/>
       </defs>
       <use xlink:href="#DejaVuSans-32"/>
       <use xlink:href="#DejaVuSans-38" x="63.623047"/>
       <use xlink:href="#DejaVuSans-36" x="127.246094"/>
      </g>
     </g>
    </g>
    <g id="xtick_5">
     <g id="line2d_9">
      <path d="M 293.595 273.312 
L 293.595 7.2 
" clip-path="url(#ped7689f116)" style="fill: none; stroke: #cccccc; stroke-opacity: 0.5; stroke-width: 0.8; stroke-linecap: round"/>
     </g>
     <g id="line2d_10">
      <g>
       <use xlink:href="#m78f1dcd619" x="293.595" y="273.312" style="fill: #262626; stroke: #262626; stroke-width: 0.8"/>
      </g>
     </g>
     <g id="text_5">
      <!-- 288 -->
      <g style="fill: #262626" transform="translate(284.05125 289.410437) scale(0.1 -0.1)">
       <use xlink:href="#DejaVuSans-32"/>
       <use xlink:href="#DejaVuSans-38" x="63.623047"/>
       <use xlink:href="#DejaVuSans-38" x="127.246094"/>
      </g>
     </g>
    </g>
    <g id="xtick_6">
     <g id="line2d_11">
      <path d="M 353.115 273.312 
L 353.115 7.2 
" clip-path="url(#ped7689f116)" style="fill: none; stroke: #cccccc; stroke-opacity: 0.5; stroke-width: 0.8; stroke-linecap: round"/>
     </g>
     <g id="line2d_12">
      <g>
       <use xlink:href="#m78f1dcd619" x="353.115" y="273.312" style="fill: #262626; stroke: #262626; stroke-width: 0.8"/>
      </g>
     </g>
     <g id="text_6">
      <!-- 290 -->
      <g style="fill: #262626" transform="translate(343.57125 289.410437) scale(0.1 -0.1)">
       <defs>
        <path id="DejaVuSans-39" d="M 703 97 
L 703 672 
Q 941 559 1184 500 
Q 1428 441 1663 441 
Q 2288 441 2617 861 
Q 2947 1281 2994 2138 
Q 2813 1869 2534 1725 
Q 2256 1581 1919 1581 
Q 1219 1581 811 2004 
Q 403 2428 403 3163 
Q 403 3881 828 4315 
Q 1253 4750 1959 4750 
Q 2769 4750 3195 4129 
Q 3622 3509 3622 2328 
Q 3622 1225 3098 567 
Q 2575 -91 1691 -91 
Q 1453 -91 1209 -44 
Q 966 3 703 97 
z
M 1959 2075 
Q 2384 2075 2632 2365 
Q 2881 2656 2881 3163 
Q 2881 3666 2632 3958 
Q 2384 4250 1959 4250 
Q 1534 4250 1286 3958 
Q 1038 3666 1038 3163 
Q 1038 2656 1286 2365 
Q 1534 2075 1959 2075 
z
" transform="scale(0.015625)"/>
       </defs>
       <use xlink:href="#DejaVuSans-32"/>
       <use xlink:href="#DejaVuSans-39" x="63.623047"/>
       <use xlink:href="#DejaVuSans-30" x="127.246094"/>
      </g>
     </g>
    </g>
    <g id="xtick_7">
     <g id="line2d_13">
      <path d="M 412.635 273.312 
L 412.635 7.2 
" clip-path="url(#ped7689f116)" style="fill: none; stroke: #cccccc; stroke-opacity: 0.5; stroke-width: 0.8; stroke-linecap: round"/>
     </g>
     <g id="line2d_14">
      <g>
       <use xlink:href="#m78f1dcd619" x="412.635" y="273.312" style="fill: #262626; stroke: #262626; stroke-width: 0.8"/>
      </g>
     </g>
     <g id="text_7">
      <!-- 292 -->
      <g style="fill: #262626" transform="translate(403.09125 289.410437) scale(0.1 -0.1)">
       <use xlink:href="#DejaVuSans-32"/>
       <use xlink:href="#DejaVuSans-39" x="63.623047"/>
       <use xlink:href="#DejaVuSans-32" x="127.246094"/>
      </g>
     </g>
    </g>
    <g id="text_8">
     <!-- Binding Energy / eV -->
     <g style="fill: #262626" transform="translate(164.986094 306.127937) scale(0.14 -0.14)">
      <defs>
       <path id="DejaVuSans-42" d="M 1259 2228 
L 1259 519 
L 2272 519 
Q 2781 519 3026 730 
Q 3272 941 3272 1375 
Q 3272 1813 3026 2020 
Q 2781 2228 2272 2228 
L 1259 2228 
z
M 1259 4147 
L 1259 2741 
L 2194 2741 
Q 2656 2741 2882 2914 
Q 3109 3088 3109 3444 
Q 3109 3797 2882 3972 
Q 2656 4147 2194 4147 
L 1259 4147 
z
M 628 4666 
L 2241 4666 
Q 2963 4666 3353 4366 
Q 3744 4066 3744 3513 
Q 3744 3084 3544 2831 
Q 3344 2578 2956 2516 
Q 3422 2416 3680 2098 
Q 3938 1781 3938 1306 
Q 3938 681 3513 340 
Q 3088 0 2303 0 
L 628 0 
L 628 4666 
z
" transform="scale(0.015625)"/>
       <path id="DejaVuSans-69" d="M 603 3500 
L 1178 3500 
L 1178 0 
L 603 0 
L 603 3500 
z
M 603 4863 
L 1178 4863 
L 1178 4134 
L 603 4134 
L 603 4863 
z
" transform="scale(0.015625)"/>
       <path id="DejaVuSans-6e" d="M 3513 2113 
L 3513 0 
L 2938 0 
L 2938 2094 
Q 2938 2591 2744 2837 
Q 2550 3084 2163 3084 
Q 1697 3084 1428 2787 
Q 1159 2491 1159 1978 
L 1159 0 
L 581 0 
L 581 3500 
L 1159 3500 
L 1159 2956 
Q 1366 3272 1645 3428 
Q 1925 3584 2291 3584 
Q 2894 3584 3203 3211 
Q 3513 2838 3513 2113 
z
" transform="scale(0.015625)"/>
       <path id="DejaVuSans-64" d="M 2906 2969 
L 2906 4863 
L 3481 4863 
L 3481 0 
L 2906 0 
L 2906 525 
Q 2725 213 2448 61 
Q 2172 -91 1784 -91 
Q 1150 -91 751 415 
Q 353 922 353 1747 
Q 353 2572 751 3078 
Q 1150 3584 1784 3584 
Q 2172 3584 2448 3432 
Q 2725 3281 2906 2969 
z
M 947 1747 
Q 947 1113 1208 752 
Q 1469 391 1925 391 
Q 2381 391 2643 752 
Q 2906 1113 2906 1747 
Q 2906 2381 2643 2742 
Q 2381 3103 1925 3103 
Q 1469 3103 1208 2742 
Q 947 2381 947 1747 
z
" transform="scale(0.015625)"/>
       <path id="DejaVuSans-67" d="M 2906 1791 
Q 2906 2416 2648 2759 
Q 2391 3103 1925 3103 
Q 1463 3103 1205 2759 
Q 947 2416 947 1791 
Q 947 1169 1205 825 
Q 1463 481 1925 481 
Q 2391 481 2648 825 
Q 2906 1169 2906 1791 
z
M 3481 434 
Q 3481 -459 3084 -895 
Q 2688 -1331 1869 -1331 
Q 1566 -1331 1297 -1286 
Q 1028 -1241 775 -1147 
L 775 -588 
Q 1028 -725 1275 -790 
Q 1522 -856 1778 -856 
Q 2344 -856 2625 -561 
Q 2906 -266 2906 331 
L 2906 616 
Q 2728 306 2450 153 
Q 2172 0 1784 0 
Q 1141 0 747 490 
Q 353 981 353 1791 
Q 353 2603 747 3093 
Q 1141 3584 1784 3584 
Q 2172 3584 2450 3431 
Q 2728 3278 2906 2969 
L 2906 3500 
L 3481 3500 
L 3481 434 
z
" transform="scale(0.015625)"/>
       <path id="DejaVuSans-20" transform="scale(0.015625)"/>
       <path id="DejaVuSans-45" d="M 628 4666 
L 3578 4666 
L 3578 4134 
L 1259 4134 
L 1259 2753 
L 3481 2753 
L 3481 2222 
L 1259 2222 
L 1259 531 
L 3634 531 
L 3634 0 
L 628 0 
L 628 4666 
z
" transform="scale(0.015625)"/>
       <path id="DejaVuSans-65" d="M 3597 1894 
L 3597 1613 
L 953 1613 
Q 991 1019 1311 708 
Q 1631 397 2203 397 
Q 2534 397 2845 478 
Q 3156 559 3463 722 
L 3463 178 
Q 3153 47 2828 -22 
Q 2503 -91 2169 -91 
Q 1331 -91 842 396 
Q 353 884 353 1716 
Q 353 2575 817 3079 
Q 1281 3584 2069 3584 
Q 2775 3584 3186 3129 
Q 3597 2675 3597 1894 
z
M 3022 2063 
Q 3016 2534 2758 2815 
Q 2500 3097 2075 3097 
Q 1594 3097 1305 2825 
Q 1016 2553 972 2059 
L 3022 2063 
z
" transform="scale(0.015625)"/>
       <path id="DejaVuSans-72" d="M 2631 2963 
Q 2534 3019 2420 3045 
Q 2306 3072 2169 3072 
Q 1681 3072 1420 2755 
Q 1159 2438 1159 1844 
L 1159 0 
L 581 0 
L 581 3500 
L 1159 3500 
L 1159 2956 
Q 1341 3275 1631 3429 
Q 1922 3584 2338 3584 
Q 2397 3584 2469 3576 
Q 2541 3569 2628 3553 
L 2631 2963 
z
" transform="scale(0.015625)"/>
       <path id="DejaVuSans-79" d="M 2059 -325 
Q 1816 -950 1584 -1140 
Q 1353 -1331 966 -1331 
L 506 -1331 
L 506 -850 
L 844 -850 
Q 1081 -850 1212 -737 
Q 1344 -625 1503 -206 
L 1606 56 
L 191 3500 
L 800 3500 
L 1894 763 
L 2988 3500 
L 3597 3500 
L 2059 -325 
z
" transform="scale(0.015625)"/>
       <path id="DejaVuSans-2f" d="M 1625 4666 
L 2156 4666 
L 531 -594 
L 0 -594 
L 1625 4666 
z
" transform="scale(0.015625)"/>
       <path id="DejaVuSans-56" d="M 1831 0 
L 50 4666 
L 709 4666 
L 2188 738 
L 3669 4666 
L 4325 4666 
L 2547 0 
L 1831 0 
z
" transform="scale(0.015625)"/>
      </defs>
      <use xlink:href="#DejaVuSans-42"/>
      <use xlink:href="#DejaVuSans-69" x="68.603516"/>
      <use xlink:href="#DejaVuSans-6e" x="96.386719"/>
      <use xlink:href="#DejaVuSans-64" x="159.765625"/>
      <use xlink:href="#DejaVuSans-69" x="223.242188"/>
      <use xlink:href="#DejaVuSans-6e" x="251.025391"/>
      <use xlink:href="#DejaVuSans-67" x="314.404297"/>
      <use xlink:href="#DejaVuSans-20" x="377.880859"/>
      <use xlink:href="#DejaVuSans-45" x="409.667969"/>
      <use xlink:href="#DejaVuSans-6e" x="472.851562"/>
      <use xlink:href="#DejaVuSans-65" x="536.230469"/>
      <use xlink:href="#DejaVuSans-72" x="597.753906"/>
      <use xlink:href="#DejaVuSans-67" x="637.117188"/>
      <use xlink:href="#DejaVuSans-79" x="700.59375"/>
      <use xlink:href="#DejaVuSans-20" x="759.773438"/>
      <use xlink:href="#DejaVuSans-2f" x="791.560547"/>
      <use xlink:href="#DejaVuSans-20" x="825.251953"/>
      <use xlink:href="#DejaVuSans-65" x="857.039062"/>
      <use xlink:href="#DejaVuSans-56" x="918.5625"/>
     </g>
    </g>
   </g>
   <g id="matplotlib.axis_2">
    <g id="ytick_1">
     <g id="line2d_15">
      <path d="M 55.515 261.216 
L 412.635 261.216 
" clip-path="url(#ped7689f116)" style="fill: none; stroke: #cccccc; stroke-opacity: 0.5; stroke-width: 0.8; stroke-linecap: round"/>
     </g>
     <g id="line2d_16">
      <defs>
       <path id="m49d9e96258" d="M 0 0 
L -5 0 
" style="stroke: #262626; stroke-width: 0.8"/>
      </defs>
      <g>
       <use xlink:href="#m49d9e96258" x="55.515" y="261.216" style="fill: #262626; stroke: #262626; stroke-width: 0.8"/>
      </g>
     </g>
     <g id="text_9">
      <!-- 0.00 -->
      <g style="fill: #262626" transform="translate(24.749375 265.015219) scale(0.1 -0.1)">
       <defs>
        <path id="DejaVuSans-2e" d="M 684 794 
L 1344 794 
L 1344 0 
L 684 0 
L 684 794 
z
" transform="scale(0.015625)"/>
       </defs>
       <use xlink:href="#DejaVuSans-30"/>
       <use xlink:href="#DejaVuSans-2e" x="63.623047"/>
       <use xlink:href="#DejaVuSans-30" x="95.410156"/>
       <use xlink:href="#DejaVuSans-30" x="159.033203"/>
      </g>
     </g>
    </g>
    <g id="ytick_2">
     <g id="line2d_17">
      <path d="M 55.515 204.620175 
L 412.635 204.620175 
" clip-path="url(#ped7689f116)" style="fill: none; stroke: #cccccc; stroke-opacity: 0.5; stroke-width: 0.8; stroke-linecap: round"/>
     </g>
     <g id="line2d_18">
      <g>
       <use xlink:href="#m49d9e96258" x="55.515" y="204.620175" style="fill: #262626; stroke: #262626; stroke-width: 0.8"/>
      </g>
     </g>
     <g id="text_10">
      <!-- 0.02 -->
      <g style="fill: #262626" transform="translate(24.749375 208.419394) scale(0.1 -0.1)">
       <use xlink:href="#DejaVuSans-30"/>
       <use xlink:href="#DejaVuSans-2e" x="63.623047"/>
       <use xlink:href="#DejaVuSans-30" x="95.410156"/>
       <use xlink:href="#DejaVuSans-32" x="159.033203"/>
      </g>
     </g>
    </g>
    <g id="ytick_3">
     <g id="line2d_19">
      <path d="M 55.515 148.024351 
L 412.635 148.024351 
" clip-path="url(#ped7689f116)" style="fill: none; stroke: #cccccc; stroke-opacity: 0.5; stroke-width: 0.8; stroke-linecap: round"/>
     </g>
     <g id="line2d_20">
      <g>
       <use xlink:href="#m49d9e96258" x="55.515" y="148.024351" style="fill: #262626; stroke: #262626; stroke-width: 0.8"/>
      </g>
     </g>
     <g id="text_11">
      <!-- 0.04 -->
      <g style="fill: #262626" transform="translate(24.749375 151.82357) scale(0.1 -0.1)">
       <use xlink:href="#DejaVuSans-30"/>
       <use xlink:href="#DejaVuSans-2e" x="63.623047"/>
       <use xlink:href="#DejaVuSans-30" x="95.410156"/>
       <use xlink:href="#DejaVuSans-34" x="159.033203"/>
      </g>
     </g>
    </g>
    <g id="ytick_4">
     <g id="line2d_21">
      <path d="M 55.515 91.428526 
L 412.635 91.428526 
" clip-path="url(#ped7689f116)" style="fill: none; stroke: #cccccc; stroke-opacity: 0.5; stroke-width: 0.8; stroke-linecap: round"/>
     </g>
     <g id="line2d_22">
      <g>
       <use xlink:href="#m49d9e96258" x="55.515" y="91.428526" style="fill: #262626; stroke: #262626; stroke-width: 0.8"/>
      </g>
     </g>
     <g id="text_12">
      <!-- 0.06 -->
      <g style="fill: #262626" transform="translate(24.749375 95.227745) scale(0.1 -0.1)">
       <use xlink:href="#DejaVuSans-30"/>
       <use xlink:href="#DejaVuSans-2e" x="63.623047"/>
       <use xlink:href="#DejaVuSans-30" x="95.410156"/>
       <use xlink:href="#DejaVuSans-36" x="159.033203"/>
      </g>
     </g>
    </g>
    <g id="ytick_5">
     <g id="line2d_23">
      <path d="M 55.515 34.832702 
L 412.635 34.832702 
" clip-path="url(#ped7689f116)" style="fill: none; stroke: #cccccc; stroke-opacity: 0.5; stroke-width: 0.8; stroke-linecap: round"/>
     </g>
     <g id="line2d_24">
      <g>
       <use xlink:href="#m49d9e96258" x="55.515" y="34.832702" style="fill: #262626; stroke: #262626; stroke-width: 0.8"/>
      </g>
     </g>
     <g id="text_13">
      <!-- 0.08 -->
      <g style="fill: #262626" transform="translate(24.749375 38.63192) scale(0.1 -0.1)">
       <use xlink:href="#DejaVuSans-30"/>
       <use xlink:href="#DejaVuSans-2e" x="63.623047"/>
       <use xlink:href="#DejaVuSans-30" x="95.410156"/>
       <use xlink:href="#DejaVuSans-38" x="159.033203"/>
      </g>
     </g>
    </g>
    <g id="text_14">
     <!-- Relative Intensity -->
     <g style="fill: #262626" transform="translate(17.837813 201.177875) rotate(-90) scale(0.14 -0.14)">
      <defs>
       <path id="DejaVuSans-52" d="M 2841 2188 
Q 3044 2119 3236 1894 
Q 3428 1669 3622 1275 
L 4263 0 
L 3584 0 
L 2988 1197 
Q 2756 1666 2539 1819 
Q 2322 1972 1947 1972 
L 1259 1972 
L 1259 0 
L 628 0 
L 628 4666 
L 2053 4666 
Q 2853 4666 3247 4331 
Q 3641 3997 3641 3322 
Q 3641 2881 3436 2590 
Q 3231 2300 2841 2188 
z
M 1259 4147 
L 1259 2491 
L 2053 2491 
Q 2509 2491 2742 2702 
Q 2975 2913 2975 3322 
Q 2975 3731 2742 3939 
Q 2509 4147 2053 4147 
L 1259 4147 
z
" transform="scale(0.015625)"/>
       <path id="DejaVuSans-6c" d="M 603 4863 
L 1178 4863 
L 1178 0 
L 603 0 
L 603 4863 
z
" transform="scale(0.015625)"/>
       <path id="DejaVuSans-61" d="M 2194 1759 
Q 1497 1759 1228 1600 
Q 959 1441 959 1056 
Q 959 750 1161 570 
Q 1363 391 1709 391 
Q 2188 391 2477 730 
Q 2766 1069 2766 1631 
L 2766 1759 
L 2194 1759 
z
M 3341 1997 
L 3341 0 
L 2766 0 
L 2766 531 
Q 2569 213 2275 61 
Q 1981 -91 1556 -91 
Q 1019 -91 701 211 
Q 384 513 384 1019 
Q 384 1609 779 1909 
Q 1175 2209 1959 2209 
L 2766 2209 
L 2766 2266 
Q 2766 2663 2505 2880 
Q 2244 3097 1772 3097 
Q 1472 3097 1187 3025 
Q 903 2953 641 2809 
L 641 3341 
Q 956 3463 1253 3523 
Q 1550 3584 1831 3584 
Q 2591 3584 2966 3190 
Q 3341 2797 3341 1997 
z
" transform="scale(0.015625)"/>
       <path id="DejaVuSans-74" d="M 1172 4494 
L 1172 3500 
L 2356 3500 
L 2356 3053 
L 1172 3053 
L 1172 1153 
Q 1172 725 1289 603 
Q 1406 481 1766 481 
L 2356 481 
L 2356 0 
L 1766 0 
Q 1100 0 847 248 
Q 594 497 594 1153 
L 594 3053 
L 172 3053 
L 172 3500 
L 594 3500 
L 594 4494 
L 1172 4494 
z
" transform="scale(0.015625)"/>
       <path id="DejaVuSans-76" d="M 191 3500 
L 800 3500 
L 1894 563 
L 2988 3500 
L 3597 3500 
L 2284 0 
L 1503 0 
L 191 3500 
z
" transform="scale(0.015625)"/>
       <path id="DejaVuSans-49" d="M 628 4666 
L 1259 4666 
L 1259 0 
L 628 0 
L 628 4666 
z
" transform="scale(0.015625)"/>
       <path id="DejaVuSans-73" d="M 2834 3397 
L 2834 2853 
Q 2591 2978 2328 3040 
Q 2066 3103 1784 3103 
Q 1356 3103 1142 2972 
Q 928 2841 928 2578 
Q 928 2378 1081 2264 
Q 1234 2150 1697 2047 
L 1894 2003 
Q 2506 1872 2764 1633 
Q 3022 1394 3022 966 
Q 3022 478 2636 193 
Q 2250 -91 1575 -91 
Q 1294 -91 989 -36 
Q 684 19 347 128 
L 347 722 
Q 666 556 975 473 
Q 1284 391 1588 391 
Q 1994 391 2212 530 
Q 2431 669 2431 922 
Q 2431 1156 2273 1281 
Q 2116 1406 1581 1522 
L 1381 1569 
Q 847 1681 609 1914 
Q 372 2147 372 2553 
Q 372 3047 722 3315 
Q 1072 3584 1716 3584 
Q 2034 3584 2315 3537 
Q 2597 3491 2834 3397 
z
" transform="scale(0.015625)"/>
      </defs>
      <use xlink:href="#DejaVuSans-52"/>
      <use xlink:href="#DejaVuSans-65" x="64.982422"/>
      <use xlink:href="#DejaVuSans-6c" x="126.505859"/>
      <use xlink:href="#DejaVuSans-61" x="154.289062"/>
      <use xlink:href="#DejaVuSans-74" x="215.568359"/>
      <use xlink:href="#DejaVuSans-69" x="254.777344"/>
      <use xlink:href="#DejaVuSans-76" x="282.560547"/>
      <use xlink:href="#DejaVuSans-65" x="341.740234"/>
      <use xlink:href="#DejaVuSans-20" x="403.263672"/>
      <use xlink:href="#DejaVuSans-49" x="435.050781"/>
      <use xlink:href="#DejaVuSans-6e" x="464.542969"/>
      <use xlink:href="#DejaVuSans-74" x="527.921875"/>
      <use xlink:href="#DejaVuSans-65" x="567.130859"/>
      <use xlink:href="#DejaVuSans-6e" x="628.654297"/>
      <use xlink:href="#DejaVuSans-73" x="692.033203"/>
      <use xlink:href="#DejaVuSans-69" x="744.132812"/>
      <use xlink:href="#DejaVuSans-74" x="771.916016"/>
      <use xlink:href="#DejaVuSans-79" x="811.125"/>
     </g>
    </g>
   </g>
   <g id="line2d_25">
    <path d="M 52.539 261.216 
L 55.515 261.216 
L 58.491 261.216 
L 61.467 261.216 
L 64.443 261.216 
L 67.419 261.216 
L 70.395 261.216 
L 73.371 261.216 
L 76.347 261.216 
L 79.323 261.216 
L 82.299 261.216 
L 85.275 261.216 
L 88.251 261.216 
L 91.227 261.216 
L 94.203 261.216 
L 97.179 261.216 
L 100.155 261.216 
L 103.131 261.216 
L 106.107 261.216 
L 109.083 261.216 
L 112.059 261.216 
L 115.035 261.216 
L 118.011 261.216 
L 120.987 261.216 
L 123.963 261.216 
L 126.939 261.207957 
L 129.915 261.197518 
L 132.891 261.178244 
L 135.867 261.185569 
L 138.843 261.187244 
L 141.819 261.14947 
L 144.795 261.138332 
L 147.771 261.187882 
L 150.747 260.762874 
L 153.723 260.705375 
L 156.699 260.664326 
L 159.675 260.31787 
L 162.651 259.880742 
L 165.627 259.36783 
L 168.603 258.356319 
L 171.579 257.132506 
L 174.555 255.446619 
L 177.531 252.753189 
L 180.507 247.348677 
L 183.483 240.992766 
L 186.459 229.530957 
L 189.435 211.029571 
L 192.411 184.342736 
L 195.387 150.416708 
L 198.363 117.232396 
L 201.339 89.461062 
L 204.315 75.54794 
L 207.291 68.546755 
L 210.267 72.47547 
L 213.243 77.113986 
L 216.219 90.784268 
L 219.195 104.27866 
L 222.171 126.423975 
L 225.147 149.937963 
L 228.123 174.225882 
L 231.099 194.281059 
L 234.075 211.513825 
L 237.051 222.946395 
L 240.027 230.924129 
L 243.003 235.763962 
L 245.979 240.412746 
L 248.955 242.259055 
L 251.931 244.584656 
L 254.907 247.473737 
L 257.883 249.599686 
L 260.859 251.284656 
L 263.835 253.166884 
L 266.811 254.753254 
L 269.787 256.038679 
L 272.763 256.893816 
L 275.739 257.761665 
L 278.715 258.060289 
L 281.691 258.541857 
L 284.667 259.027231 
L 287.643 259.093015 
L 290.619 259.546906 
L 293.595 259.653559 
L 296.571 259.895523 
L 299.547 260.026663 
L 302.523 260.235916 
L 305.499 260.440771 
L 308.475 260.594422 
L 311.451 260.683632 
L 314.427 260.724718 
L 317.403 260.694002 
L 320.379 260.581978 
L 323.355 260.464748 
L 326.331 260.256457 
L 329.307 260.05301 
L 332.283 259.86676 
L 335.259 259.617717 
L 338.235 259.464998 
L 341.211 259.475543 
L 344.187 259.46799 
L 347.163 259.574771 
L 350.139 259.753206 
L 353.115 259.937545 
L 356.091 260.159185 
L 359.067 260.321736 
L 362.043 260.538208 
L 365.019 260.639385 
L 367.995 260.771551 
L 370.971 260.820955 
L 373.947 260.85972 
L 376.923 260.8469 
L 379.899 260.830822 
L 382.875 260.89139 
L 385.851 260.874422 
L 388.827 260.830947 
L 391.803 260.859182 
L 394.779 260.853581 
L 397.755 260.819004 
L 400.731 260.846505 
L 403.707 260.838492 
L 406.683 260.865067 
L 409.659 260.885221 
L 412.635 260.934183 
L 415.611 260.953115 
" clip-path="url(#ped7689f116)" style="fill: none; stroke: #1f77b4; stroke-width: 1.5; stroke-linecap: round"/>
   </g>
   <g id="line2d_26">
    <path d="M 52.539 261.216 
L 55.515 261.216 
L 58.491 261.216 
L 61.467 261.216 
L 64.443 261.216 
L 67.419 261.216 
L 70.395 261.216 
L 73.371 261.216 
L 76.347 261.216 
L 79.323 261.216 
L 82.299 261.216 
L 85.275 261.216 
L 88.251 261.216 
L 91.227 261.216 
L 94.203 261.216 
L 97.179 261.216 
L 100.155 261.216 
L 103.131 261.216 
L 106.107 261.216 
L 109.083 261.216 
L 112.059 261.216 
L 115.035 261.216 
L 118.011 261.216 
L 120.987 261.216 
L 123.963 261.216 
L 126.939 261.216 
L 129.915 261.216 
L 132.891 261.216 
L 135.867 261.216 
L 138.843 261.216 
L 141.819 261.216 
L 144.795 261.216 
L 147.771 261.216 
L 150.747 261.216 
L 153.723 261.186368 
L 156.699 261.192544 
L 159.675 261.155507 
L 162.651 261.062923 
L 165.627 260.965415 
L 168.603 260.803723 
L 171.579 260.576624 
L 174.555 260.135977 
L 177.531 259.539656 
L 180.507 258.672841 
L 183.483 257.598777 
L 186.459 236.064629 
L 189.435 226.775351 
L 192.411 215.094624 
L 195.387 204.570182 
L 198.363 194.710585 
L 201.339 187.061185 
L 204.315 182.373423 
L 207.291 179.766817 
L 210.267 182.992464 
L 213.243 187.487442 
L 216.219 194.265821 
L 219.195 202.399943 
L 222.171 211.112936 
L 225.147 219.119146 
L 228.123 226.985396 
L 231.099 233.364989 
L 234.075 239.105718 
L 237.051 243.503765 
L 240.027 247.324937 
L 243.003 250.408164 
L 245.979 252.390649 
L 248.955 254.020123 
L 251.931 255.119465 
L 254.907 255.936536 
L 257.883 256.374676 
L 260.859 256.929492 
L 263.835 257.055289 
L 266.811 257.097951 
L 269.787 257.157881 
L 272.763 256.755305 
L 275.739 256.186369 
L 278.715 255.161444 
L 281.691 254.493337 
L 284.667 253.822178 
L 287.643 252.933218 
L 290.619 252.906446 
L 293.595 253.213807 
L 296.571 253.37501 
L 299.547 253.671958 
L 302.523 253.993922 
L 305.499 254.035842 
L 308.475 253.689608 
L 311.451 252.680323 
L 314.427 251.129075 
L 317.403 249.066724 
L 320.379 246.726249 
L 323.355 244.485987 
L 326.331 241.970549 
L 329.307 240.261332 
L 332.283 239.647346 
L 335.259 240.363919 
L 338.235 241.201445 
L 341.211 242.740774 
L 344.187 244.997429 
L 347.163 247.324037 
L 350.139 249.936108 
L 353.115 252.298799 
L 356.091 254.467678 
L 359.067 256.022218 
L 362.043 257.671854 
L 365.019 258.586024 
L 367.995 259.741925 
L 370.971 259.988015 
L 373.947 260.303414 
L 376.923 260.729435 
L 379.899 260.935866 
L 382.875 261.08164 
L 385.851 261.134165 
L 388.827 261.216 
L 391.803 261.136358 
L 394.779 261.216 
L 397.755 261.216 
L 400.731 261.216 
L 403.707 261.216 
L 406.683 261.191513 
L 409.659 261.216 
L 412.635 261.216 
L 415.611 261.216 
" clip-path="url(#ped7689f116)" style="fill: none; stroke: #ff7f0e; stroke-width: 1.5; stroke-linecap: round"/>
   </g>
   <g id="line2d_27">
    <path d="M 52.539 261.216 
L 55.515 261.216 
L 58.491 261.216 
L 61.467 261.216 
L 64.443 261.216 
L 67.419 261.216 
L 70.395 261.216 
L 73.371 261.216 
L 76.347 261.216 
L 79.323 261.216 
L 82.299 261.216 
L 85.275 261.216 
L 88.251 261.216 
L 91.227 261.216 
L 94.203 261.216 
L 97.179 261.216 
L 100.155 261.216 
L 103.131 261.216 
L 106.107 261.216 
L 109.083 261.160822 
L 112.059 261.108418 
L 115.035 261.213391 
L 118.011 260.948461 
L 120.987 261.119813 
L 123.963 260.84943 
L 126.939 260.769704 
L 129.915 260.681764 
L 132.891 260.596668 
L 135.867 260.497872 
L 138.843 259.921612 
L 141.819 259.406221 
L 144.795 258.534947 
L 147.771 256.850597 
L 150.747 254.049946 
L 153.723 250.08407 
L 156.699 244.18995 
L 159.675 236.396161 
L 162.651 227.929841 
L 165.627 217.747638 
L 168.603 210.430581 
L 171.579 204.370162 
L 174.555 202.021877 
L 177.531 203.497866 
L 180.507 208.831033 
L 183.483 215.552402 
L 186.459 222.391678 
L 189.435 230.000652 
L 192.411 233.601392 
L 195.387 235.092228 
L 198.363 234.580284 
L 201.339 228.706997 
L 204.315 221.675073 
L 207.291 210.196691 
L 210.267 199.346286 
L 213.243 189.612932 
L 216.219 182.866742 
L 219.195 180.488529 
L 222.171 184.630627 
L 225.147 190.761755 
L 228.123 199.930686 
L 231.099 209.092227 
L 234.075 220.268671 
L 237.051 229.387947 
L 240.027 236.521811 
L 243.003 242.249068 
L 245.979 247.280641 
L 248.955 250.846847 
L 251.931 253.213424 
L 254.907 254.952698 
L 257.883 255.998473 
L 260.859 256.963624 
L 263.835 257.994729 
L 266.811 258.403361 
L 269.787 258.881061 
L 272.763 259.303352 
L 275.739 259.360389 
L 278.715 259.636702 
L 281.691 259.846683 
L 284.667 260.139339 
L 287.643 260.384224 
L 290.619 260.288109 
L 293.595 260.37279 
L 296.571 260.583616 
L 299.547 260.334317 
L 302.523 259.960315 
L 305.499 259.985721 
L 308.475 259.480151 
L 311.451 259.120118 
L 314.427 258.666375 
L 317.403 258.302651 
L 320.379 258.185052 
L 323.355 258.000468 
L 326.331 258.141496 
L 329.307 258.337859 
L 332.283 258.548958 
L 335.259 258.720011 
L 338.235 258.79744 
L 341.211 258.894494 
L 344.187 259.070599 
L 347.163 259.130844 
L 350.139 258.981384 
L 353.115 258.962685 
L 356.091 259.02745 
L 359.067 258.708093 
L 362.043 258.741223 
L 365.019 258.643764 
L 367.995 258.521139 
L 370.971 258.404978 
L 373.947 258.607916 
L 376.923 258.55301 
L 379.899 258.435706 
L 382.875 258.68038 
L 385.851 258.653437 
L 388.827 259.180247 
L 391.803 259.357838 
L 394.779 259.412491 
L 397.755 259.675461 
L 400.731 259.605535 
L 403.707 259.796252 
L 406.683 260.023935 
L 409.659 260.20009 
L 412.635 260.239043 
L 415.611 260.411326 
" clip-path="url(#ped7689f116)" style="fill: none; stroke: #2ca02c; stroke-width: 1.5; stroke-linecap: round"/>
   </g>
   <g id="line2d_28">
    <path d="M 52.539 261.216 
L 55.515 261.216 
L 58.491 261.216 
L 61.467 261.216 
L 64.443 261.216 
L 67.419 261.216 
L 70.395 261.216 
L 73.371 261.216 
L 76.347 261.216 
L 79.323 261.216 
L 82.299 261.216 
L 85.275 261.216 
L 88.251 261.216 
L 91.227 261.216 
L 94.203 261.216 
L 97.179 261.216 
L 100.155 261.216 
L 103.131 261.216 
L 106.107 261.216 
L 109.083 261.216 
L 112.059 261.216 
L 115.035 261.216 
L 118.011 261.216 
L 120.987 261.216 
L 123.963 261.216 
L 126.939 261.216 
L 129.915 261.216 
L 132.891 261.216 
L 135.867 261.216 
L 138.843 261.216 
L 141.819 261.216 
L 144.795 261.163463 
L 147.771 261.005497 
L 150.747 260.916676 
L 153.723 260.806921 
L 156.699 260.567294 
L 159.675 260.626886 
L 162.651 260.168361 
L 165.627 259.689494 
L 168.603 259.215283 
L 171.579 258.2269 
L 174.555 256.70097 
L 177.531 253.663882 
L 180.507 248.778908 
L 183.483 241.08445 
L 186.459 227.940577 
L 189.435 209.61354 
L 192.411 185.249462 
L 195.387 157.638048 
L 198.363 128.398432 
L 201.339 105.7428 
L 204.315 90.683288 
L 207.291 85.724671 
L 210.267 88.984879 
L 213.243 98.071663 
L 216.219 113.379992 
L 219.195 131.184576 
L 222.171 149.910902 
L 225.147 170.471058 
L 228.123 189.178747 
L 231.099 205.550769 
L 234.075 219.615865 
L 237.051 228.884255 
L 240.027 236.987102 
L 243.003 242.060812 
L 245.979 245.240508 
L 248.955 246.534241 
L 251.931 247.519151 
L 254.907 247.469406 
L 257.883 247.935153 
L 260.859 248.822087 
L 263.835 249.925894 
L 266.811 251.481896 
L 269.787 253.327887 
L 272.763 254.854549 
L 275.739 256.14188 
L 278.715 257.547532 
L 281.691 258.28247 
L 284.667 258.984788 
L 287.643 259.450451 
L 290.619 259.752686 
L 293.595 259.89816 
L 296.571 260.213325 
L 299.547 260.096784 
L 302.523 259.815772 
L 305.499 259.144144 
L 308.475 258.198384 
L 311.451 256.183565 
L 314.427 254.593521 
L 317.403 251.865846 
L 320.379 250.378396 
L 323.355 249.096462 
L 326.331 248.972575 
L 329.307 250.212368 
L 332.283 252.438997 
L 335.259 254.042129 
L 338.235 256.056502 
L 341.211 257.954471 
L 344.187 259.276901 
L 347.163 260.071726 
L 350.139 260.318374 
L 353.115 260.660969 
L 356.091 260.962463 
L 359.067 261.181739 
L 362.043 261.216 
L 365.019 261.216 
L 367.995 261.216 
L 370.971 261.216 
L 373.947 261.216 
L 376.923 261.216 
L 379.899 261.216 
L 382.875 261.216 
L 385.851 261.216 
L 388.827 261.216 
L 391.803 261.216 
L 394.779 261.216 
L 397.755 261.216 
L 400.731 261.216 
L 403.707 261.216 
L 406.683 261.216 
L 409.659 261.216 
L 412.635 261.216 
L 415.611 261.216 
" clip-path="url(#ped7689f116)" style="fill: none; stroke: #d62728; stroke-width: 1.5; stroke-linecap: round"/>
   </g>
   <g id="line2d_29">
    <path d="M 52.539 261.216 
L 55.515 261.216 
L 58.491 261.216 
L 61.467 261.216 
L 64.443 261.216 
L 67.419 261.216 
L 70.395 261.216 
L 73.371 261.216 
L 76.347 261.216 
L 79.323 261.216 
L 82.299 261.216 
L 85.275 261.216 
L 88.251 261.216 
L 91.227 261.216 
L 94.203 261.216 
L 97.179 261.216 
L 100.155 261.216 
L 103.131 261.216 
L 106.107 261.216 
L 109.083 261.216 
L 112.059 261.216 
L 115.035 261.216 
L 118.011 261.216 
L 120.987 261.216 
L 123.963 261.216 
L 126.939 261.216 
L 129.915 261.216 
L 132.891 261.216 
L 135.867 261.216 
L 138.843 261.216 
L 141.819 261.210241 
L 144.795 261.100682 
L 147.771 261.066142 
L 150.747 260.795156 
L 153.723 260.887566 
L 156.699 260.409069 
L 159.675 260.057601 
L 162.651 259.169923 
L 165.627 258.4556 
L 168.603 256.518963 
L 171.579 254.121754 
L 174.555 251.119878 
L 177.531 245.961423 
L 180.507 240.544971 
L 183.483 233.756722 
L 186.459 226.371039 
L 189.435 218.143329 
L 192.411 210.579031 
L 195.387 203.57529 
L 198.363 196.383878 
L 201.339 192.518361 
L 204.315 191.126454 
L 207.291 190.944671 
L 210.267 193.42874 
L 213.243 197.719677 
L 216.219 204.883859 
L 219.195 210.462138 
L 222.171 217.782816 
L 225.147 224.962679 
L 228.123 232.318616 
L 231.099 238.501368 
L 234.075 242.734102 
L 237.051 246.429184 
L 240.027 249.328358 
L 243.003 251.94834 
L 245.979 253.053525 
L 248.955 254.541472 
L 251.931 254.855692 
L 254.907 255.406165 
L 257.883 254.460005 
L 260.859 253.879228 
L 263.835 252.176105 
L 266.811 248.919534 
L 269.787 245.665013 
L 272.763 240.677926 
L 275.739 235.614558 
L 278.715 230.208818 
L 281.691 225.947551 
L 284.667 223.259157 
L 287.643 221.571958 
L 290.619 222.14982 
L 293.595 225.046852 
L 296.571 228.878407 
L 299.547 233.247717 
L 302.523 238.219106 
L 305.499 242.852543 
L 308.475 246.380277 
L 311.451 249.970358 
L 314.427 252.621409 
L 317.403 254.687036 
L 320.379 256.472917 
L 323.355 257.471814 
L 326.331 258.564426 
L 329.307 259.006781 
L 332.283 259.664217 
L 335.259 260.187544 
L 338.235 260.31434 
L 341.211 260.49045 
L 344.187 260.582733 
L 347.163 260.882435 
L 350.139 260.91996 
L 353.115 260.907122 
L 356.091 261.009371 
L 359.067 261.039657 
L 362.043 261.108771 
L 365.019 261.117441 
L 367.995 261.128992 
L 370.971 261.160674 
L 373.947 261.156376 
L 376.923 261.142017 
L 379.899 261.15643 
L 382.875 261.156455 
L 385.851 261.205381 
L 388.827 261.214026 
L 391.803 261.170879 
L 394.779 261.170894 
L 397.755 261.183858 
L 400.731 261.216 
L 403.707 261.196818 
L 406.683 261.216 
L 409.659 261.216 
L 412.635 261.216 
L 415.611 261.216 
" clip-path="url(#ped7689f116)" style="fill: none; stroke: #9467bd; stroke-width: 1.5; stroke-linecap: round"/>
   </g>
   <g id="line2d_30">
    <path d="M 52.539 261.216 
L 55.515 261.216 
L 58.491 261.216 
L 61.467 261.216 
L 64.443 261.216 
L 67.419 261.216 
L 70.395 261.216 
L 73.371 261.216 
L 76.347 261.216 
L 79.323 261.216 
L 82.299 261.216 
L 85.275 261.216 
L 88.251 261.216 
L 91.227 261.216 
L 94.203 261.216 
L 97.179 261.216 
L 100.155 261.216 
L 103.131 261.216 
L 106.107 261.216 
L 109.083 261.216 
L 112.059 261.216 
L 115.035 261.216 
L 118.011 261.195935 
L 120.987 261.216 
L 123.963 261.21233 
L 126.939 261.159112 
L 129.915 261.15 
L 132.891 261.110815 
L 135.867 261.1365 
L 138.843 261.062703 
L 141.819 260.997958 
L 144.795 260.950252 
L 147.771 260.983308 
L 150.747 260.663106 
L 153.723 260.502262 
L 156.699 259.940207 
L 159.675 259.127243 
L 162.651 258.370168 
L 165.627 256.702166 
L 168.603 254.191432 
L 171.579 250.30083 
L 174.555 244.032978 
L 177.531 236.442853 
L 180.507 227.127797 
L 183.483 214.311237 
L 186.459 201.110186 
L 189.435 187.775813 
L 192.411 175.427715 
L 195.387 167.81071 
L 198.363 162.945103 
L 201.339 161.696723 
L 204.315 163.21453 
L 207.291 169.117218 
L 210.267 176.144615 
L 213.243 185.669494 
L 216.219 196.643871 
L 219.195 205.219947 
L 222.171 214.937773 
L 225.147 222.435595 
L 228.123 227.908678 
L 231.099 231.781672 
L 234.075 234.337393 
L 237.051 235.412329 
L 240.027 236.680117 
L 243.003 237.581786 
L 245.979 239.646704 
L 248.955 240.814416 
L 251.931 242.897122 
L 254.907 244.476804 
L 257.883 247.16726 
L 260.859 249.338342 
L 263.835 251.78279 
L 266.811 254.150631 
L 269.787 256.367248 
L 272.763 257.712402 
L 275.739 259.280793 
L 278.715 260.33281 
L 281.691 260.916315 
L 284.667 261.216 
L 287.643 260.909539 
L 290.619 260.461401 
L 293.595 259.199721 
L 296.571 257.320222 
L 299.547 255.441129 
L 302.523 253.080377 
L 305.499 251.511235 
L 308.475 250.701248 
L 311.451 250.95437 
L 314.427 251.555758 
L 317.403 252.518761 
L 320.379 254.184324 
L 323.355 255.816419 
L 326.331 257.554224 
L 329.307 258.902756 
L 332.283 259.952913 
L 335.259 260.426079 
L 338.235 260.617703 
L 341.211 260.479784 
L 344.187 260.988232 
L 347.163 260.76809 
L 350.139 260.679939 
L 353.115 260.362833 
L 356.091 260.597104 
L 359.067 259.880039 
L 362.043 259.919379 
L 365.019 259.714187 
L 367.995 259.563269 
L 370.971 258.888265 
L 373.947 258.755357 
L 376.923 258.53754 
L 379.899 258.078036 
L 382.875 257.891727 
L 385.851 257.312282 
L 388.827 257.137015 
L 391.803 257.249794 
L 394.779 257.296892 
L 397.755 257.13321 
L 400.731 256.645512 
L 403.707 257.089041 
L 406.683 257.391727 
L 409.659 257.460462 
L 412.635 257.746996 
L 415.611 257.862277 
" clip-path="url(#ped7689f116)" style="fill: none; stroke: #8c564b; stroke-width: 1.5; stroke-linecap: round"/>
   </g>
   <g id="line2d_31">
    <path d="M 52.539 261.216 
L 55.515 261.216 
L 58.491 261.216 
L 61.467 261.216 
L 64.443 261.216 
L 67.419 261.216 
L 70.395 261.216 
L 73.371 261.216 
L 76.347 261.216 
L 79.323 261.216 
L 82.299 261.216 
L 85.275 261.216 
L 88.251 261.216 
L 91.227 261.216 
L 94.203 261.216 
L 97.179 261.216 
L 100.155 261.216 
L 103.131 261.216 
L 106.107 261.216 
L 109.083 261.216 
L 112.059 261.216 
L 115.035 261.216 
L 118.011 261.216 
L 120.987 261.216 
L 123.963 261.216 
L 126.939 261.216 
L 129.915 261.145359 
L 132.891 261.20863 
L 135.867 261.142209 
L 138.843 261.180177 
L 141.819 261.078966 
L 144.795 261.031538 
L 147.771 260.990448 
L 150.747 260.962017 
L 153.723 260.835534 
L 156.699 260.709067 
L 159.675 260.550993 
L 162.651 260.250612 
L 165.627 259.845894 
L 168.603 259.042701 
L 171.579 257.711399 
L 174.555 256.250629 
L 177.531 253.859716 
L 180.507 251.134315 
L 183.483 247.180624 
L 186.459 242.735827 
L 189.435 237.522855 
L 192.411 232.893737 
L 195.387 228.388899 
L 198.363 224.328822 
L 201.339 221.448843 
L 204.315 219.375431 
L 207.291 219.247617 
L 210.267 220.087379 
L 213.243 221.579791 
L 216.219 224.544618 
L 219.195 227.99861 
L 222.171 231.424564 
L 225.147 235.585605 
L 228.123 238.984495 
L 231.099 242.995355 
L 234.075 246.034565 
L 237.051 248.288536 
L 240.027 249.887746 
L 243.003 251.10806 
L 245.979 251.794836 
L 248.955 252.094157 
L 251.931 251.539879 
L 254.907 251.107218 
L 257.883 250.239055 
L 260.859 249.89048 
L 263.835 249.066544 
L 266.811 247.407104 
L 269.787 246.058954 
L 272.763 243.218172 
L 275.739 240.215264 
L 278.715 236.178452 
L 281.691 232.378051 
L 284.667 228.708455 
L 287.643 226.151058 
L 290.619 225.342631 
L 293.595 226.440546 
L 296.571 227.614578 
L 299.547 231.036953 
L 302.523 233.992482 
L 305.499 236.827842 
L 308.475 239.280349 
L 311.451 241.540138 
L 314.427 243.722337 
L 317.403 245.832331 
L 320.379 247.602515 
L 323.355 249.257748 
L 326.331 251.181523 
L 329.307 252.902732 
L 332.283 254.432831 
L 335.259 255.883025 
L 338.235 257.219831 
L 341.211 258.0855 
L 344.187 258.844777 
L 347.163 259.507173 
L 350.139 260.059146 
L 353.115 260.255474 
L 356.091 260.535596 
L 359.067 260.706714 
L 362.043 260.890622 
L 365.019 260.982473 
L 367.995 261.031108 
L 370.971 261.096681 
L 373.947 261.128325 
L 376.923 261.088231 
L 379.899 261.128406 
L 382.875 261.128443 
L 385.851 261.200385 
L 388.827 261.213097 
L 391.803 261.149653 
L 394.779 261.149674 
L 397.755 261.168737 
L 400.731 261.216 
L 403.707 261.187794 
L 406.683 261.216 
L 409.659 261.216 
L 412.635 261.216 
L 415.611 261.216 
" clip-path="url(#ped7689f116)" style="fill: none; stroke: #e377c2; stroke-width: 1.5; stroke-linecap: round"/>
   </g>
   <g id="line2d_32">
    <path d="M 52.539 261.216 
L 55.515 261.216 
L 58.491 261.216 
L 61.467 261.216 
L 64.443 261.216 
L 67.419 261.216 
L 70.395 261.216 
L 73.371 261.216 
L 76.347 261.216 
L 79.323 261.216 
L 82.299 261.216 
L 85.275 261.216 
L 88.251 261.216 
L 91.227 261.216 
L 94.203 261.216 
L 97.179 261.216 
L 100.155 261.216 
L 103.131 261.216 
L 106.107 261.216 
L 109.083 261.216 
L 112.059 261.216 
L 115.035 261.216 
L 118.011 261.216 
L 120.987 261.216 
L 123.963 261.216 
L 126.939 261.216 
L 129.915 261.216 
L 132.891 261.216 
L 135.867 261.128482 
L 138.843 261.211984 
L 141.819 261.100851 
L 144.795 261.107424 
L 147.771 260.85607 
L 150.747 260.312219 
L 153.723 260.400313 
L 156.699 259.915436 
L 159.675 259.399354 
L 162.651 258.865417 
L 165.627 257.657378 
L 168.603 255.730975 
L 171.579 252.496857 
L 174.555 246.805535 
L 177.531 236.681279 
L 180.507 219.129369 
L 183.483 192.485486 
L 186.459 157.381344 
L 189.435 119.518731 
L 192.411 81.100998 
L 195.387 48.606151 
L 198.363 29.028774 
L 201.339 19.296 
L 204.315 28.272843 
L 207.291 47.197746 
L 210.267 75.154098 
L 213.243 105.383493 
L 216.219 136.755713 
L 219.195 165.138059 
L 222.171 187.580579 
L 225.147 205.709692 
L 228.123 218.040847 
L 231.099 227.261354 
L 234.075 234.776082 
L 237.051 239.039168 
L 240.027 243.411611 
L 243.003 246.107603 
L 245.979 248.571147 
L 248.955 250.175132 
L 251.931 252.283238 
L 254.907 253.846267 
L 257.883 255.459452 
L 260.859 256.733338 
L 263.835 257.696822 
L 266.811 258.460804 
L 269.787 258.933393 
L 272.763 259.644202 
L 275.739 260.128228 
L 278.715 260.0539 
L 281.691 260.343432 
L 284.667 260.824829 
L 287.643 260.916676 
L 290.619 260.822192 
L 293.595 261.04662 
L 296.571 261.056947 
L 299.547 260.853224 
L 302.523 260.943311 
L 305.499 261.068796 
L 308.475 260.929858 
L 311.451 260.936864 
L 314.427 260.890079 
L 317.403 261.099239 
L 320.379 260.994756 
L 323.355 261.110839 
L 326.331 260.910954 
L 329.307 260.870809 
L 332.283 260.661446 
L 335.259 260.909801 
L 338.235 260.883319 
L 341.211 260.7615 
L 344.187 260.772518 
L 347.163 260.74588 
L 350.139 260.366143 
L 353.115 260.121789 
L 356.091 259.640984 
L 359.067 259.691794 
L 362.043 259.449783 
L 365.019 258.761819 
L 367.995 258.538467 
L 370.971 258.140087 
L 373.947 257.470718 
L 376.923 257.136304 
L 379.899 256.824759 
L 382.875 256.313672 
L 385.851 255.821474 
L 388.827 256.030852 
L 391.803 255.71012 
L 394.779 255.59071 
L 397.755 255.789325 
L 400.731 255.905775 
L 403.707 255.882152 
L 406.683 256.449242 
L 409.659 256.805942 
L 412.635 257.273313 
L 415.611 258.013232 
" clip-path="url(#ped7689f116)" style="fill: none; stroke: #7f7f7f; stroke-width: 1.5; stroke-linecap: round"/>
   </g>
   <g id="line2d_33">
    <path d="M 52.539 261.216 
L 55.515 261.216 
L 58.491 261.216 
L 61.467 261.216 
L 64.443 261.216 
L 67.419 261.216 
L 70.395 261.216 
L 73.371 261.216 
L 76.347 261.216 
L 79.323 261.216 
L 82.299 261.216 
L 85.275 261.216 
L 88.251 261.216 
L 91.227 261.216 
L 94.203 261.216 
L 97.179 261.216 
L 100.155 261.216 
L 103.131 261.216 
L 106.107 261.216 
L 109.083 261.216 
L 112.059 261.216 
L 115.035 261.216 
L 118.011 261.216 
L 120.987 261.216 
L 123.963 261.216 
L 126.939 261.216 
L 129.915 261.203778 
L 132.891 261.15244 
L 135.867 261.167139 
L 138.843 261.184276 
L 141.819 261.0865 
L 144.795 261.009612 
L 147.771 260.842732 
L 150.747 260.724048 
L 153.723 260.64757 
L 156.699 260.351774 
L 159.675 260.271643 
L 162.651 259.78499 
L 165.627 259.224585 
L 168.603 258.137589 
L 171.579 256.076486 
L 174.555 252.84226 
L 177.531 247.228589 
L 180.507 238.610747 
L 183.483 226.651448 
L 186.459 211.437497 
L 189.435 194.636038 
L 192.411 176.520709 
L 195.387 162.106661 
L 198.363 152.14513 
L 201.339 148.436885 
L 204.315 150.274309 
L 207.291 157.760016 
L 210.267 167.919649 
L 213.243 180.998979 
L 216.219 192.716346 
L 219.195 204.893884 
L 222.171 215.042168 
L 225.147 222.580695 
L 228.123 226.67324 
L 231.099 227.056471 
L 234.075 224.329307 
L 237.051 218.16041 
L 240.027 211.02926 
L 243.003 204.107666 
L 245.979 200.932299 
L 248.955 199.694924 
L 251.931 202.706077 
L 254.907 209.384219 
L 257.883 216.40382 
L 260.859 224.327812 
L 263.835 232.451735 
L 266.811 239.264269 
L 269.787 244.478119 
L 272.763 249.320573 
L 275.739 253.063182 
L 278.715 255.190942 
L 281.691 257.050541 
L 284.667 258.017298 
L 287.643 258.380242 
L 290.619 259.06123 
L 293.595 259.447054 
L 296.571 259.574552 
L 299.547 259.882505 
L 302.523 260.053142 
L 305.499 260.203793 
L 308.475 260.186771 
L 311.451 260.447272 
L 314.427 260.487532 
L 317.403 260.433039 
L 320.379 260.528957 
L 323.355 260.441884 
L 326.331 260.40343 
L 329.307 260.322577 
L 332.283 260.133518 
L 335.259 260.108181 
L 338.235 260.157922 
L 341.211 260.179295 
L 344.187 260.253932 
L 347.163 260.409103 
L 350.139 260.234928 
L 353.115 260.335755 
L 356.091 260.300165 
L 359.067 260.109176 
L 362.043 260.232583 
L 365.019 260.102117 
L 367.995 259.96932 
L 370.971 259.944347 
L 373.947 259.721151 
L 376.923 259.527165 
L 379.899 259.504866 
L 382.875 259.466992 
L 385.851 259.396739 
L 388.827 259.343791 
L 391.803 259.135373 
L 394.779 259.209697 
L 397.755 259.216042 
L 400.731 259.354537 
L 403.707 259.360876 
L 406.683 259.678454 
L 409.659 259.967223 
L 412.635 260.091445 
L 415.611 260.221119 
" clip-path="url(#ped7689f116)" style="fill: none; stroke: #bcbd22; stroke-width: 1.5; stroke-linecap: round"/>
   </g>
   <g id="line2d_34">
    <path d="M 52.539 261.216 
L 55.515 261.216 
L 58.491 261.216 
L 61.467 261.216 
L 64.443 261.216 
L 67.419 261.216 
L 70.395 261.216 
L 73.371 261.216 
L 76.347 261.216 
L 79.323 261.216 
L 82.299 261.216 
L 85.275 261.216 
L 88.251 261.216 
L 91.227 261.216 
L 94.203 261.216 
L 97.179 261.216 
L 100.155 261.216 
L 103.131 261.216 
L 106.107 261.216 
L 109.083 261.216 
L 112.059 261.216 
L 115.035 261.216 
L 118.011 261.216 
L 120.987 261.216 
L 123.963 261.216 
L 126.939 261.216 
L 129.915 261.216 
L 132.891 261.216 
L 135.867 261.216 
L 138.843 261.216 
L 141.819 261.216 
L 144.795 261.216 
L 147.771 261.216 
L 150.747 261.216 
L 153.723 261.210215 
L 156.699 261.153491 
L 159.675 261.20964 
L 162.651 261.154966 
L 165.627 261.117542 
L 168.603 261.12738 
L 171.579 261.05254 
L 174.555 260.96452 
L 177.531 260.913314 
L 180.507 260.678655 
L 183.483 260.427505 
L 186.459 260.179189 
L 189.435 259.504177 
L 192.411 258.690638 
L 195.387 257.714681 
L 198.363 256.299193 
L 201.339 254.430597 
L 204.315 252.447078 
L 207.291 249.956513 
L 210.267 247.464669 
L 213.243 245.022109 
L 216.219 243.35254 
L 219.195 241.694883 
L 222.171 240.597234 
L 225.147 239.902469 
L 228.123 239.898125 
L 231.099 239.636893 
L 234.075 239.774837 
L 237.051 239.583082 
L 240.027 239.321099 
L 243.003 239.142359 
L 245.979 239.548015 
L 248.955 240.436168 
L 251.931 241.371479 
L 254.907 243.568368 
L 257.883 245.222612 
L 260.859 247.434705 
L 263.835 249.950781 
L 266.811 251.958382 
L 269.787 253.784361 
L 272.763 255.207427 
L 275.739 256.485835 
L 278.715 257.381844 
L 281.691 258.170105 
L 284.667 258.818433 
L 287.643 259.224056 
L 290.619 259.540822 
L 293.595 259.74444 
L 296.571 259.957736 
L 299.547 260.163319 
L 302.523 260.226993 
L 305.499 260.29513 
L 308.475 260.39969 
L 311.451 260.506679 
L 314.427 260.549138 
L 317.403 260.529595 
L 320.379 260.653889 
L 323.355 260.703726 
L 326.331 260.703943 
L 329.307 260.763675 
L 332.283 260.687016 
L 335.259 260.657491 
L 338.235 260.794111 
L 341.211 260.548772 
L 344.187 260.442415 
L 347.163 260.068305 
L 350.139 259.738984 
L 353.115 258.95848 
L 356.091 257.979911 
L 359.067 256.175968 
L 362.043 253.953764 
L 365.019 251.397707 
L 367.995 248.808027 
L 370.971 246.415399 
L 373.947 244.008901 
L 376.923 242.446609 
L 379.899 241.876871 
L 382.875 242.388588 
L 385.851 244.117677 
L 388.827 245.647555 
L 391.803 248.478743 
L 394.779 251.117783 
L 397.755 253.249763 
L 400.731 255.259296 
L 403.707 256.943143 
L 406.683 258.075741 
L 409.659 259.093785 
L 412.635 259.811358 
L 415.611 260.233513 
" clip-path="url(#ped7689f116)" style="fill: none; stroke: #17becf; stroke-width: 1.5; stroke-linecap: round"/>
   </g>
   <g id="patch_3">
    <path d="M 55.515 273.312 
L 55.515 7.2 
" style="fill: none; stroke: #000000; stroke-width: 1.2; stroke-linejoin: miter; stroke-linecap: square"/>
   </g>
   <g id="patch_4">
    <path d="M 412.635 273.312 
L 412.635 7.2 
" style="fill: none; stroke: #000000; stroke-width: 1.2; stroke-linejoin: miter; stroke-linecap: square"/>
   </g>
   <g id="patch_5">
    <path d="M 55.515 273.312 
L 412.635 273.312 
" style="fill: none; stroke: #000000; stroke-width: 1.2; stroke-linejoin: miter; stroke-linecap: square"/>
   </g>
   <g id="patch_6">
    <path d="M 55.515 7.2 
L 412.635 7.2 
" style="fill: none; stroke: #000000; stroke-width: 1.2; stroke-linejoin: miter; stroke-linecap: square"/>
   </g>
  </g>
 </g>
 <defs>
  <clipPath id="ped7689f116">
   <rect x="55.515" y="7.2" width="357.12" height="266.112"/>
  </clipPath>
 </defs>
</svg>
