<?xml version="1.0" encoding="utf-8" standalone="no"?>
<!DOCTYPE svg PUBLIC "-//W3C//DTD SVG 1.1//EN"
  "http://www.w3.org/Graphics/SVG/1.1/DTD/svg11.dtd">
<svg xmlns:xlink="http://www.w3.org/1999/xlink" width="427.87875pt" height="314.7395pt" viewBox="0 0 427.87875 314.7395" xmlns="http://www.w3.org/2000/svg" version="1.1">
 <metadata>
  <rdf:RDF xmlns:dc="http://purl.org/dc/elements/1.1/" xmlns:cc="http://creativecommons.org/ns#" xmlns:rdf="http://www.w3.org/1999/02/22-rdf-syntax-ns#">
   <cc:Work>
    <dc:type rdf:resource="http://purl.org/dc/dcmitype/StillImage"/>
    <dc:date>2025-10-02T16:22:20.654806</dc:date>
    <dc:format>image/svg+xml</dc:format>
    <dc:creator>
     <cc:Agent>
      <dc:title>Matplotlib v3.9.2, https://matplotlib.org/</dc:title>
     </cc:Agent>
    </dc:creator>
   </cc:Work>
  </rdf:RDF>
 </metadata>
 <defs>
  <style type="text/css">*{stroke-linejoin: round; stroke-linecap: butt}</style>
 </defs>
 <g id="figure_1">
  <g id="patch_1">
   <path d="M 0 314.7395 
L 427.87875 314.7395 
L 427.87875 0 
L 0 0 
z
" style="fill: #ffffff"/>
  </g>
  <g id="axes_1">
   <g id="patch_2">
    <path d="M 54.015 273.312 
L 411.135 273.312 
L 411.135 7.2 
L 54.015 7.2 
z
" style="fill: #ffffff"/>
   </g>
   <g id="matplotlib.axis_1">
    <g id="xtick_1">
     <g id="line2d_1">
      <path d="M 54.015 273.312 
L 54.015 7.2 
" clip-path="url(#p4a0995232a)" style="fill: none; stroke: #b0b0b0; stroke-opacity: 0.5; stroke-width: 0.8; stroke-linecap: square"/>
     </g>
     <g id="line2d_2">
      <defs>
       <path id="m2bc173db69" d="M 0 0 
L 0 3.5 
" style="stroke: #000000; stroke-width: 0.8"/>
      </defs>
      <g>
       <use xlink:href="#m2bc173db69" x="54.015" y="273.312" style="stroke: #000000; stroke-width: 0.8"/>
      </g>
     </g>
     <g id="text_1">
      <!-- 280 -->
      <g transform="translate(44.47125 287.910437) scale(0.1 -0.1)">
       <defs>
        <path id="DejaVuSans-32" d="M 1228 531 
L 3431 531 
L 3431 0 
L 469 0 
L 469 531 
Q 828 903 1448 1529 
Q 2069 2156 2228 2338 
Q 2531 2678 2651 2914 
Q 2772 3150 2772 3378 
Q 2772 3750 2511 3984 
Q 2250 4219 1831 4219 
Q 1534 4219 1204 4116 
Q 875 4013 500 3803 
L 500 4441 
Q 881 4594 1212 4672 
Q 1544 4750 1819 4750 
Q 2544 4750 2975 4387 
Q 3406 4025 3406 3419 
Q 3406 3131 3298 2873 
Q 3191 2616 2906 2266 
Q 2828 2175 2409 1742 
Q 1991 1309 1228 531 
z
" transform="scale(0.015625)"/>
        <path id="DejaVuSans-38" d="M 2034 2216 
Q 1584 2216 1326 1975 
Q 1069 1734 1069 1313 
Q 1069 891 1326 650 
Q 1584 409 2034 409 
Q 2484 409 2743 651 
Q 3003 894 3003 1313 
Q 3003 1734 2745 1975 
Q 2488 2216 2034 2216 
z
M 1403 2484 
Q 997 2584 770 2862 
Q 544 3141 544 3541 
Q 544 4100 942 4425 
Q 1341 4750 2034 4750 
Q 2731 4750 3128 4425 
Q 3525 4100 3525 3541 
Q 3525 3141 3298 2862 
Q 3072 2584 2669 2484 
Q 3125 2378 3379 2068 
Q 3634 1759 3634 1313 
Q 3634 634 3220 271 
Q 2806 -91 2034 -91 
Q 1263 -91 848 271 
Q 434 634 434 1313 
Q 434 1759 690 2068 
Q 947 2378 1403 2484 
z
M 1172 3481 
Q 1172 3119 1398 2916 
Q 1625 2713 2034 2713 
Q 2441 2713 2670 2916 
Q 2900 3119 2900 3481 
Q 2900 3844 2670 4047 
Q 2441 4250 2034 4250 
Q 1625 4250 1398 4047 
Q 1172 3844 1172 3481 
z
" transform="scale(0.015625)"/>
        <path id="DejaVuSans-30" d="M 2034 4250 
Q 1547 4250 1301 3770 
Q 1056 3291 1056 2328 
Q 1056 1369 1301 889 
Q 1547 409 2034 409 
Q 2525 409 2770 889 
Q 3016 1369 3016 2328 
Q 3016 3291 2770 3770 
Q 2525 4250 2034 4250 
z
M 2034 4750 
Q 2819 4750 3233 4129 
Q 3647 3509 3647 2328 
Q 3647 1150 3233 529 
Q 2819 -91 2034 -91 
Q 1250 -91 836 529 
Q 422 1150 422 2328 
Q 422 3509 836 4129 
Q 1250 4750 2034 4750 
z
" transform="scale(0.015625)"/>
       </defs>
       <use xlink:href="#DejaVuSans-32"/>
       <use xlink:href="#DejaVuSans-38" x="63.623047"/>
       <use xlink:href="#DejaVuSans-30" x="127.246094"/>
      </g>
     </g>
    </g>
    <g id="xtick_2">
     <g id="line2d_3">
      <path d="M 113.535 273.312 
L 113.535 7.2 
" clip-path="url(#p4a0995232a)" style="fill: none; stroke: #b0b0b0; stroke-opacity: 0.5; stroke-width: 0.8; stroke-linecap: square"/>
     </g>
     <g id="line2d_4">
      <g>
       <use xlink:href="#m2bc173db69" x="113.535" y="273.312" style="stroke: #000000; stroke-width: 0.8"/>
      </g>
     </g>
     <g id="text_2">
      <!-- 282 -->
      <g transform="translate(103.99125 287.910437) scale(0.1 -0.1)">
       <use xlink:href="#DejaVuSans-32"/>
       <use xlink:href="#DejaVuSans-38" x="63.623047"/>
       <use xlink:href="#DejaVuSans-32" x="127.246094"/>
      </g>
     </g>
    </g>
    <g id="xtick_3">
     <g id="line2d_5">
      <path d="M 173.055 273.312 
L 173.055 7.2 
" clip-path="url(#p4a0995232a)" style="fill: none; stroke: #b0b0b0; stroke-opacity: 0.5; stroke-width: 0.8; stroke-linecap: square"/>
     </g>
     <g id="line2d_6">
      <g>
       <use xlink:href="#m2bc173db69" x="173.055" y="273.312" style="stroke: #000000; stroke-width: 0.8"/>
      </g>
     </g>
     <g id="text_3">
      <!-- 284 -->
      <g transform="translate(163.51125 287.910437) scale(0.1 -0.1)">
       <defs>
        <path id="DejaVuSans-34" d="M 2419 4116 
L 825 1625 
L 2419 1625 
L 2419 4116 
z
M 2253 4666 
L 3047 4666 
L 3047 1625 
L 3713 1625 
L 3713 1100 
L 3047 1100 
L 3047 0 
L 2419 0 
L 2419 1100 
L 313 1100 
L 313 1709 
L 2253 4666 
z
" transform="scale(0.015625)"/>
       </defs>
       <use xlink:href="#DejaVuSans-32"/>
       <use xlink:href="#DejaVuSans-38" x="63.623047"/>
       <use xlink:href="#DejaVuSans-34" x="127.246094"/>
      </g>
     </g>
    </g>
    <g id="xtick_4">
     <g id="line2d_7">
      <path d="M 232.575 273.312 
L 232.575 7.2 
" clip-path="url(#p4a0995232a)" style="fill: none; stroke: #b0b0b0; stroke-opacity: 0.5; stroke-width: 0.8; stroke-linecap: square"/>
     </g>
     <g id="line2d_8">
      <g>
       <use xlink:href="#m2bc173db69" x="232.575" y="273.312" style="stroke: #000000; stroke-width: 0.8"/>
      </g>
     </g>
     <g id="text_4">
      <!-- 286 -->
      <g transform="translate(223.03125 287.910437) scale(0.1 -0.1)">
       <defs>
        <path id="DejaVuSans-36" d="M 2113 2584 
Q 1688 2584 1439 2293 
Q 1191 2003 1191 1497 
Q 1191 994 1439 701 
Q 1688 409 2113 409 
Q 2538 409 2786 701 
Q 3034 994 3034 1497 
Q 3034 2003 2786 2293 
Q 2538 2584 2113 2584 
z
M 3366 4563 
L 3366 3988 
Q 3128 4100 2886 4159 
Q 2644 4219 2406 4219 
Q 1781 4219 1451 3797 
Q 1122 3375 1075 2522 
Q 1259 2794 1537 2939 
Q 1816 3084 2150 3084 
Q 2853 3084 3261 2657 
Q 3669 2231 3669 1497 
Q 3669 778 3244 343 
Q 2819 -91 2113 -91 
Q 1303 -91 875 529 
Q 447 1150 447 2328 
Q 447 3434 972 4092 
Q 1497 4750 2381 4750 
Q 2619 4750 2861 4703 
Q 3103 4656 3366 4563 
z
" transform="scale(0.015625)"/>
       </defs>
       <use xlink:href="#DejaVuSans-32"/>
       <use xlink:href="#DejaVuSans-38" x="63.623047"/>
       <use xlink:href="#DejaVuSans-36" x="127.246094"/>
      </g>
     </g>
    </g>
    <g id="xtick_5">
     <g id="line2d_9">
      <path d="M 292.095 273.312 
L 292.095 7.2 
" clip-path="url(#p4a0995232a)" style="fill: none; stroke: #b0b0b0; stroke-opacity: 0.5; stroke-width: 0.8; stroke-linecap: square"/>
     </g>
     <g id="line2d_10">
      <g>
       <use xlink:href="#m2bc173db69" x="292.095" y="273.312" style="stroke: #000000; stroke-width: 0.8"/>
      </g>
     </g>
     <g id="text_5">
      <!-- 288 -->
      <g transform="translate(282.55125 287.910437) scale(0.1 -0.1)">
       <use xlink:href="#DejaVuSans-32"/>
       <use xlink:href="#DejaVuSans-38" x="63.623047"/>
       <use xlink:href="#DejaVuSans-38" x="127.246094"/>
      </g>
     </g>
    </g>
    <g id="xtick_6">
     <g id="line2d_11">
      <path d="M 351.615 273.312 
L 351.615 7.2 
" clip-path="url(#p4a0995232a)" style="fill: none; stroke: #b0b0b0; stroke-opacity: 0.5; stroke-width: 0.8; stroke-linecap: square"/>
     </g>
     <g id="line2d_12">
      <g>
       <use xlink:href="#m2bc173db69" x="351.615" y="273.312" style="stroke: #000000; stroke-width: 0.8"/>
      </g>
     </g>
     <g id="text_6">
      <!-- 290 -->
      <g transform="translate(342.07125 287.910437) scale(0.1 -0.1)">
       <defs>
        <path id="DejaVuSans-39" d="M 703 97 
L 703 672 
Q 941 559 1184 500 
Q 1428 441 1663 441 
Q 2288 441 2617 861 
Q 2947 1281 2994 2138 
Q 2813 1869 2534 1725 
Q 2256 1581 1919 1581 
Q 1219 1581 811 2004 
Q 403 2428 403 3163 
Q 403 3881 828 4315 
Q 1253 4750 1959 4750 
Q 2769 4750 3195 4129 
Q 3622 3509 3622 2328 
Q 3622 1225 3098 567 
Q 2575 -91 1691 -91 
Q 1453 -91 1209 -44 
Q 966 3 703 97 
z
M 1959 2075 
Q 2384 2075 2632 2365 
Q 2881 2656 2881 3163 
Q 2881 3666 2632 3958 
Q 2384 4250 1959 4250 
Q 1534 4250 1286 3958 
Q 1038 3666 1038 3163 
Q 1038 2656 1286 2365 
Q 1534 2075 1959 2075 
z
" transform="scale(0.015625)"/>
       </defs>
       <use xlink:href="#DejaVuSans-32"/>
       <use xlink:href="#DejaVuSans-39" x="63.623047"/>
       <use xlink:href="#DejaVuSans-30" x="127.246094"/>
      </g>
     </g>
    </g>
    <g id="xtick_7">
     <g id="line2d_13">
      <path d="M 411.135 273.312 
L 411.135 7.2 
" clip-path="url(#p4a0995232a)" style="fill: none; stroke: #b0b0b0; stroke-opacity: 0.5; stroke-width: 0.8; stroke-linecap: square"/>
     </g>
     <g id="line2d_14">
      <g>
       <use xlink:href="#m2bc173db69" x="411.135" y="273.312" style="stroke: #000000; stroke-width: 0.8"/>
      </g>
     </g>
     <g id="text_7">
      <!-- 292 -->
      <g transform="translate(401.59125 287.910437) scale(0.1 -0.1)">
       <use xlink:href="#DejaVuSans-32"/>
       <use xlink:href="#DejaVuSans-39" x="63.623047"/>
       <use xlink:href="#DejaVuSans-32" x="127.246094"/>
      </g>
     </g>
    </g>
    <g id="text_8">
     <!-- Binding Energy / eV -->
     <g transform="translate(163.486094 304.627937) scale(0.14 -0.14)">
      <defs>
       <path id="DejaVuSans-42" d="M 1259 2228 
L 1259 519 
L 2272 519 
Q 2781 519 3026 730 
Q 3272 941 3272 1375 
Q 3272 1813 3026 2020 
Q 2781 2228 2272 2228 
L 1259 2228 
z
M 1259 4147 
L 1259 2741 
L 2194 2741 
Q 2656 2741 2882 2914 
Q 3109 3088 3109 3444 
Q 3109 3797 2882 3972 
Q 2656 4147 2194 4147 
L 1259 4147 
z
M 628 4666 
L 2241 4666 
Q 2963 4666 3353 4366 
Q 3744 4066 3744 3513 
Q 3744 3084 3544 2831 
Q 3344 2578 2956 2516 
Q 3422 2416 3680 2098 
Q 3938 1781 3938 1306 
Q 3938 681 3513 340 
Q 3088 0 2303 0 
L 628 0 
L 628 4666 
z
" transform="scale(0.015625)"/>
       <path id="DejaVuSans-69" d="M 603 3500 
L 1178 3500 
L 1178 0 
L 603 0 
L 603 3500 
z
M 603 4863 
L 1178 4863 
L 1178 4134 
L 603 4134 
L 603 4863 
z
" transform="scale(0.015625)"/>
       <path id="DejaVuSans-6e" d="M 3513 2113 
L 3513 0 
L 2938 0 
L 2938 2094 
Q 2938 2591 2744 2837 
Q 2550 3084 2163 3084 
Q 1697 3084 1428 2787 
Q 1159 2491 1159 1978 
L 1159 0 
L 581 0 
L 581 3500 
L 1159 3500 
L 1159 2956 
Q 1366 3272 1645 3428 
Q 1925 3584 2291 3584 
Q 2894 3584 3203 3211 
Q 3513 2838 3513 2113 
z
" transform="scale(0.015625)"/>
       <path id="DejaVuSans-64" d="M 2906 2969 
L 2906 4863 
L 3481 4863 
L 3481 0 
L 2906 0 
L 2906 525 
Q 2725 213 2448 61 
Q 2172 -91 1784 -91 
Q 1150 -91 751 415 
Q 353 922 353 1747 
Q 353 2572 751 3078 
Q 1150 3584 1784 3584 
Q 2172 3584 2448 3432 
Q 2725 3281 2906 2969 
z
M 947 1747 
Q 947 1113 1208 752 
Q 1469 391 1925 391 
Q 2381 391 2643 752 
Q 2906 1113 2906 1747 
Q 2906 2381 2643 2742 
Q 2381 3103 1925 3103 
Q 1469 3103 1208 2742 
Q 947 2381 947 1747 
z
" transform="scale(0.015625)"/>
       <path id="DejaVuSans-67" d="M 2906 1791 
Q 2906 2416 2648 2759 
Q 2391 3103 1925 3103 
Q 1463 3103 1205 2759 
Q 947 2416 947 1791 
Q 947 1169 1205 825 
Q 1463 481 1925 481 
Q 2391 481 2648 825 
Q 2906 1169 2906 1791 
z
M 3481 434 
Q 3481 -459 3084 -895 
Q 2688 -1331 1869 -1331 
Q 1566 -1331 1297 -1286 
Q 1028 -1241 775 -1147 
L 775 -588 
Q 1028 -725 1275 -790 
Q 1522 -856 1778 -856 
Q 2344 -856 2625 -561 
Q 2906 -266 2906 331 
L 2906 616 
Q 2728 306 2450 153 
Q 2172 0 1784 0 
Q 1141 0 747 490 
Q 353 981 353 1791 
Q 353 2603 747 3093 
Q 1141 3584 1784 3584 
Q 2172 3584 2450 3431 
Q 2728 3278 2906 2969 
L 2906 3500 
L 3481 3500 
L 3481 434 
z
" transform="scale(0.015625)"/>
       <path id="DejaVuSans-20" transform="scale(0.015625)"/>
       <path id="DejaVuSans-45" d="M 628 4666 
L 3578 4666 
L 3578 4134 
L 1259 4134 
L 1259 2753 
L 3481 2753 
L 3481 2222 
L 1259 2222 
L 1259 531 
L 3634 531 
L 3634 0 
L 628 0 
L 628 4666 
z
" transform="scale(0.015625)"/>
       <path id="DejaVuSans-65" d="M 3597 1894 
L 3597 1613 
L 953 1613 
Q 991 1019 1311 708 
Q 1631 397 2203 397 
Q 2534 397 2845 478 
Q 3156 559 3463 722 
L 3463 178 
Q 3153 47 2828 -22 
Q 2503 -91 2169 -91 
Q 1331 -91 842 396 
Q 353 884 353 1716 
Q 353 2575 817 3079 
Q 1281 3584 2069 3584 
Q 2775 3584 3186 3129 
Q 3597 2675 3597 1894 
z
M 3022 2063 
Q 3016 2534 2758 2815 
Q 2500 3097 2075 3097 
Q 1594 3097 1305 2825 
Q 1016 2553 972 2059 
L 3022 2063 
z
" transform="scale(0.015625)"/>
       <path id="DejaVuSans-72" d="M 2631 2963 
Q 2534 3019 2420 3045 
Q 2306 3072 2169 3072 
Q 1681 3072 1420 2755 
Q 1159 2438 1159 1844 
L 1159 0 
L 581 0 
L 581 3500 
L 1159 3500 
L 1159 2956 
Q 1341 3275 1631 3429 
Q 1922 3584 2338 3584 
Q 2397 3584 2469 3576 
Q 2541 3569 2628 3553 
L 2631 2963 
z
" transform="scale(0.015625)"/>
       <path id="DejaVuSans-79" d="M 2059 -325 
Q 1816 -950 1584 -1140 
Q 1353 -1331 966 -1331 
L 506 -1331 
L 506 -850 
L 844 -850 
Q 1081 -850 1212 -737 
Q 1344 -625 1503 -206 
L 1606 56 
L 191 3500 
L 800 3500 
L 1894 763 
L 2988 3500 
L 3597 3500 
L 2059 -325 
z
" transform="scale(0.015625)"/>
       <path id="DejaVuSans-2f" d="M 1625 4666 
L 2156 4666 
L 531 -594 
L 0 -594 
L 1625 4666 
z
" transform="scale(0.015625)"/>
       <path id="DejaVuSans-56" d="M 1831 0 
L 50 4666 
L 709 4666 
L 2188 738 
L 3669 4666 
L 4325 4666 
L 2547 0 
L 1831 0 
z
" transform="scale(0.015625)"/>
      </defs>
      <use xlink:href="#DejaVuSans-42"/>
      <use xlink:href="#DejaVuSans-69" x="68.603516"/>
      <use xlink:href="#DejaVuSans-6e" x="96.386719"/>
      <use xlink:href="#DejaVuSans-64" x="159.765625"/>
      <use xlink:href="#DejaVuSans-69" x="223.242188"/>
      <use xlink:href="#DejaVuSans-6e" x="251.025391"/>
      <use xlink:href="#DejaVuSans-67" x="314.404297"/>
      <use xlink:href="#DejaVuSans-20" x="377.880859"/>
      <use xlink:href="#DejaVuSans-45" x="409.667969"/>
      <use xlink:href="#DejaVuSans-6e" x="472.851562"/>
      <use xlink:href="#DejaVuSans-65" x="536.230469"/>
      <use xlink:href="#DejaVuSans-72" x="597.753906"/>
      <use xlink:href="#DejaVuSans-67" x="637.117188"/>
      <use xlink:href="#DejaVuSans-79" x="700.59375"/>
      <use xlink:href="#DejaVuSans-20" x="759.773438"/>
      <use xlink:href="#DejaVuSans-2f" x="791.560547"/>
      <use xlink:href="#DejaVuSans-20" x="825.251953"/>
      <use xlink:href="#DejaVuSans-65" x="857.039062"/>
      <use xlink:href="#DejaVuSans-56" x="918.5625"/>
     </g>
    </g>
   </g>
   <g id="matplotlib.axis_2">
    <g id="ytick_1">
     <g id="line2d_15">
      <path d="M 54.015 261.216 
L 411.135 261.216 
" clip-path="url(#p4a0995232a)" style="fill: none; stroke: #b0b0b0; stroke-opacity: 0.5; stroke-width: 0.8; stroke-linecap: square"/>
     </g>
     <g id="line2d_16">
      <defs>
       <path id="md33a36bb61" d="M 0 0 
L -3.5 0 
" style="stroke: #000000; stroke-width: 0.8"/>
      </defs>
      <g>
       <use xlink:href="#md33a36bb61" x="54.015" y="261.216" style="stroke: #000000; stroke-width: 0.8"/>
      </g>
     </g>
     <g id="text_9">
      <!-- 0.00 -->
      <g transform="translate(24.749375 265.015219) scale(0.1 -0.1)">
       <defs>
        <path id="DejaVuSans-2e" d="M 684 794 
L 1344 794 
L 1344 0 
L 684 0 
L 684 794 
z
" transform="scale(0.015625)"/>
       </defs>
       <use xlink:href="#DejaVuSans-30"/>
       <use xlink:href="#DejaVuSans-2e" x="63.623047"/>
       <use xlink:href="#DejaVuSans-30" x="95.410156"/>
       <use xlink:href="#DejaVuSans-30" x="159.033203"/>
      </g>
     </g>
    </g>
    <g id="ytick_2">
     <g id="line2d_17">
      <path d="M 54.015 204.620175 
L 411.135 204.620175 
" clip-path="url(#p4a0995232a)" style="fill: none; stroke: #b0b0b0; stroke-opacity: 0.5; stroke-width: 0.8; stroke-linecap: square"/>
     </g>
     <g id="line2d_18">
      <g>
       <use xlink:href="#md33a36bb61" x="54.015" y="204.620175" style="stroke: #000000; stroke-width: 0.8"/>
      </g>
     </g>
     <g id="text_10">
      <!-- 0.02 -->
      <g transform="translate(24.749375 208.419394) scale(0.1 -0.1)">
       <use xlink:href="#DejaVuSans-30"/>
       <use xlink:href="#DejaVuSans-2e" x="63.623047"/>
       <use xlink:href="#DejaVuSans-30" x="95.410156"/>
       <use xlink:href="#DejaVuSans-32" x="159.033203"/>
      </g>
     </g>
    </g>
    <g id="ytick_3">
     <g id="line2d_19">
      <path d="M 54.015 148.024351 
L 411.135 148.024351 
" clip-path="url(#p4a0995232a)" style="fill: none; stroke: #b0b0b0; stroke-opacity: 0.5; stroke-width: 0.8; stroke-linecap: square"/>
     </g>
     <g id="line2d_20">
      <g>
       <use xlink:href="#md33a36bb61" x="54.015" y="148.024351" style="stroke: #000000; stroke-width: 0.8"/>
      </g>
     </g>
     <g id="text_11">
      <!-- 0.04 -->
      <g transform="translate(24.749375 151.82357) scale(0.1 -0.1)">
       <use xlink:href="#DejaVuSans-30"/>
       <use xlink:href="#DejaVuSans-2e" x="63.623047"/>
       <use xlink:href="#DejaVuSans-30" x="95.410156"/>
       <use xlink:href="#DejaVuSans-34" x="159.033203"/>
      </g>
     </g>
    </g>
    <g id="ytick_4">
     <g id="line2d_21">
      <path d="M 54.015 91.428526 
L 411.135 91.428526 
" clip-path="url(#p4a0995232a)" style="fill: none; stroke: #b0b0b0; stroke-opacity: 0.5; stroke-width: 0.8; stroke-linecap: square"/>
     </g>
     <g id="line2d_22">
      <g>
       <use xlink:href="#md33a36bb61" x="54.015" y="91.428526" style="stroke: #000000; stroke-width: 0.8"/>
      </g>
     </g>
     <g id="text_12">
      <!-- 0.06 -->
      <g transform="translate(24.749375 95.227745) scale(0.1 -0.1)">
       <use xlink:href="#DejaVuSans-30"/>
       <use xlink:href="#DejaVuSans-2e" x="63.623047"/>
       <use xlink:href="#DejaVuSans-30" x="95.410156"/>
       <use xlink:href="#DejaVuSans-36" x="159.033203"/>
      </g>
     </g>
    </g>
    <g id="ytick_5">
     <g id="line2d_23">
      <path d="M 54.015 34.832702 
L 411.135 34.832702 
" clip-path="url(#p4a0995232a)" style="fill: none; stroke: #b0b0b0; stroke-opacity: 0.5; stroke-width: 0.8; stroke-linecap: square"/>
     </g>
     <g id="line2d_24">
      <g>
       <use xlink:href="#md33a36bb61" x="54.015" y="34.832702" style="stroke: #000000; stroke-width: 0.8"/>
      </g>
     </g>
     <g id="text_13">
      <!-- 0.08 -->
      <g transform="translate(24.749375 38.63192) scale(0.1 -0.1)">
       <use xlink:href="#DejaVuSans-30"/>
       <use xlink:href="#DejaVuSans-2e" x="63.623047"/>
       <use xlink:href="#DejaVuSans-30" x="95.410156"/>
       <use xlink:href="#DejaVuSans-38" x="159.033203"/>
      </g>
     </g>
    </g>
    <g id="text_14">
     <!--  Relative Intensity -->
     <g transform="translate(17.837813 203.402562) rotate(-90) scale(0.14 -0.14)">
      <defs>
       <path id="DejaVuSans-52" d="M 2841 2188 
Q 3044 2119 3236 1894 
Q 3428 1669 3622 1275 
L 4263 0 
L 3584 0 
L 2988 1197 
Q 2756 1666 2539 1819 
Q 2322 1972 1947 1972 
L 1259 1972 
L 1259 0 
L 628 0 
L 628 4666 
L 2053 4666 
Q 2853 4666 3247 4331 
Q 3641 3997 3641 3322 
Q 3641 2881 3436 2590 
Q 3231 2300 2841 2188 
z
M 1259 4147 
L 1259 2491 
L 2053 2491 
Q 2509 2491 2742 2702 
Q 2975 2913 2975 3322 
Q 2975 3731 2742 3939 
Q 2509 4147 2053 4147 
L 1259 4147 
z
" transform="scale(0.015625)"/>
       <path id="DejaVuSans-6c" d="M 603 4863 
L 1178 4863 
L 1178 0 
L 603 0 
L 603 4863 
z
" transform="scale(0.015625)"/>
       <path id="DejaVuSans-61" d="M 2194 1759 
Q 1497 1759 1228 1600 
Q 959 1441 959 1056 
Q 959 750 1161 570 
Q 1363 391 1709 391 
Q 2188 391 2477 730 
Q 2766 1069 2766 1631 
L 2766 1759 
L 2194 1759 
z
M 3341 1997 
L 3341 0 
L 2766 0 
L 2766 531 
Q 2569 213 2275 61 
Q 1981 -91 1556 -91 
Q 1019 -91 701 211 
Q 384 513 384 1019 
Q 384 1609 779 1909 
Q 1175 2209 1959 2209 
L 2766 2209 
L 2766 2266 
Q 2766 2663 2505 2880 
Q 2244 3097 1772 3097 
Q 1472 3097 1187 3025 
Q 903 2953 641 2809 
L 641 3341 
Q 956 3463 1253 3523 
Q 1550 3584 1831 3584 
Q 2591 3584 2966 3190 
Q 3341 2797 3341 1997 
z
" transform="scale(0.015625)"/>
       <path id="DejaVuSans-74" d="M 1172 4494 
L 1172 3500 
L 2356 3500 
L 2356 3053 
L 1172 3053 
L 1172 1153 
Q 1172 725 1289 603 
Q 1406 481 1766 481 
L 2356 481 
L 2356 0 
L 1766 0 
Q 1100 0 847 248 
Q 594 497 594 1153 
L 594 3053 
L 172 3053 
L 172 3500 
L 594 3500 
L 594 4494 
L 1172 4494 
z
" transform="scale(0.015625)"/>
       <path id="DejaVuSans-76" d="M 191 3500 
L 800 3500 
L 1894 563 
L 2988 3500 
L 3597 3500 
L 2284 0 
L 1503 0 
L 191 3500 
z
" transform="scale(0.015625)"/>
       <path id="DejaVuSans-49" d="M 628 4666 
L 1259 4666 
L 1259 0 
L 628 0 
L 628 4666 
z
" transform="scale(0.015625)"/>
       <path id="DejaVuSans-73" d="M 2834 3397 
L 2834 2853 
Q 2591 2978 2328 3040 
Q 2066 3103 1784 3103 
Q 1356 3103 1142 2972 
Q 928 2841 928 2578 
Q 928 2378 1081 2264 
Q 1234 2150 1697 2047 
L 1894 2003 
Q 2506 1872 2764 1633 
Q 3022 1394 3022 966 
Q 3022 478 2636 193 
Q 2250 -91 1575 -91 
Q 1294 -91 989 -36 
Q 684 19 347 128 
L 347 722 
Q 666 556 975 473 
Q 1284 391 1588 391 
Q 1994 391 2212 530 
Q 2431 669 2431 922 
Q 2431 1156 2273 1281 
Q 2116 1406 1581 1522 
L 1381 1569 
Q 847 1681 609 1914 
Q 372 2147 372 2553 
Q 372 3047 722 3315 
Q 1072 3584 1716 3584 
Q 2034 3584 2315 3537 
Q 2597 3491 2834 3397 
z
" transform="scale(0.015625)"/>
      </defs>
      <use xlink:href="#DejaVuSans-20"/>
      <use xlink:href="#DejaVuSans-52" x="31.787109"/>
      <use xlink:href="#DejaVuSans-65" x="96.769531"/>
      <use xlink:href="#DejaVuSans-6c" x="158.292969"/>
      <use xlink:href="#DejaVuSans-61" x="186.076172"/>
      <use xlink:href="#DejaVuSans-74" x="247.355469"/>
      <use xlink:href="#DejaVuSans-69" x="286.564453"/>
      <use xlink:href="#DejaVuSans-76" x="314.347656"/>
      <use xlink:href="#DejaVuSans-65" x="373.527344"/>
      <use xlink:href="#DejaVuSans-20" x="435.050781"/>
      <use xlink:href="#DejaVuSans-49" x="466.837891"/>
      <use xlink:href="#DejaVuSans-6e" x="496.330078"/>
      <use xlink:href="#DejaVuSans-74" x="559.708984"/>
      <use xlink:href="#DejaVuSans-65" x="598.917969"/>
      <use xlink:href="#DejaVuSans-6e" x="660.441406"/>
      <use xlink:href="#DejaVuSans-73" x="723.820312"/>
      <use xlink:href="#DejaVuSans-69" x="775.919922"/>
      <use xlink:href="#DejaVuSans-74" x="803.703125"/>
      <use xlink:href="#DejaVuSans-79" x="842.912109"/>
     </g>
    </g>
   </g>
   <g id="line2d_25">
    <path d="M 51.039 261.178244 
L 54.015 261.185569 
L 56.991 261.187244 
L 59.967 261.14947 
L 62.943 261.138332 
L 65.919 261.187882 
L 68.895 260.762874 
L 71.871 260.705375 
L 74.847 260.664326 
L 77.823 260.31787 
L 80.799 259.880742 
L 83.775 259.36783 
L 86.751 258.356319 
L 89.727 257.132506 
L 92.703 255.446619 
L 95.679 252.753189 
L 98.655 247.348677 
L 101.631 240.992766 
L 104.607 229.530957 
L 107.583 211.029571 
L 110.559 184.342736 
L 113.535 150.416708 
L 116.511 117.232396 
L 119.487 89.461062 
L 122.463 75.54794 
L 125.439 68.546755 
L 128.415 72.47547 
L 131.391 77.113986 
L 134.367 90.784268 
L 137.343 104.27866 
L 140.319 126.423975 
L 143.295 149.937963 
L 146.271 174.225882 
L 149.247 194.281059 
L 152.223 211.513825 
L 155.199 222.946395 
L 158.175 230.924129 
L 161.151 235.763962 
L 164.127 240.412746 
L 167.103 242.259055 
L 170.079 244.584656 
L 173.055 247.473737 
L 176.031 249.599686 
L 179.007 251.284656 
L 181.983 253.166884 
L 184.959 254.753254 
L 187.935 256.038679 
L 190.911 256.893816 
L 193.887 257.761665 
L 196.863 258.060289 
L 199.839 258.541857 
L 202.815 259.027231 
L 205.791 259.093015 
L 208.767 259.546906 
L 211.743 259.653559 
L 214.719 259.895523 
L 217.695 260.026663 
L 220.671 260.235916 
L 223.647 260.440771 
L 226.623 260.594422 
L 229.599 260.683632 
L 232.575 260.724718 
L 235.551 260.694002 
L 238.527 260.581978 
L 241.503 260.464748 
L 244.479 260.256457 
L 247.455 260.05301 
L 250.431 259.86676 
L 253.407 259.617717 
L 256.383 259.464998 
L 259.359 259.475543 
L 262.335 259.46799 
L 265.311 259.574771 
L 268.287 259.753206 
L 271.263 259.937545 
L 274.239 260.159185 
L 277.215 260.321736 
L 280.191 260.538208 
L 283.167 260.639385 
L 286.143 260.771551 
L 289.119 260.820955 
L 292.095 260.85972 
L 295.071 260.8469 
L 298.047 260.830822 
L 301.023 260.89139 
L 303.999 260.874422 
L 306.975 260.830947 
L 309.951 260.859182 
L 312.927 260.853581 
L 315.903 260.819004 
L 318.879 260.846505 
L 321.855 260.838492 
L 324.831 260.865067 
L 327.807 260.885221 
L 330.783 260.934183 
L 333.759 260.953115 
L 336.735 260.981695 
L 339.711 260.957866 
L 342.687 260.975899 
L 345.663 261.024466 
L 348.639 260.972231 
L 351.615 260.966097 
L 354.591 260.976038 
L 357.567 261.006138 
L 360.543 260.983722 
L 363.519 261.031442 
L 366.495 261.012972 
L 369.471 261.014782 
L 372.447 261.055943 
L 375.423 261.078412 
L 378.399 261.106378 
L 381.375 261.105234 
L 384.351 261.166897 
L 387.327 261.162305 
L 390.303 261.176281 
L 393.279 261.180416 
L 396.255 261.170896 
L 399.231 261.203272 
L 402.207 261.216 
L 405.183 261.199431 
L 408.159 261.207555 
L 411.135 261.164959 
L 414.111 261.186104 
" clip-path="url(#p4a0995232a)" style="fill: none; stroke: #1f77b4; stroke-width: 1.5; stroke-linecap: square"/>
   </g>
   <g id="line2d_26">
    <path d="M 51.039 261.216 
L 54.015 261.216 
L 56.991 261.216 
L 59.967 261.216 
L 62.943 261.216 
L 65.919 261.216 
L 68.895 261.216 
L 71.871 261.216 
L 74.847 261.216 
L 77.823 261.216 
L 80.799 261.216 
L 83.775 261.216 
L 86.751 261.216 
L 89.727 261.216 
L 92.703 261.216 
L 95.679 261.216 
L 98.655 261.216 
L 101.631 261.216 
L 104.607 261.216 
L 107.583 261.216 
L 110.559 261.216 
L 113.535 261.216 
L 116.511 261.216 
L 119.487 261.216 
L 122.463 261.216 
L 125.439 261.216 
L 128.415 261.216 
L 131.391 261.216 
L 134.367 261.216 
L 137.343 261.216 
L 140.319 261.216 
L 143.295 261.216 
L 146.271 261.216 
L 149.247 261.216 
L 152.223 261.216 
L 155.199 261.216 
L 158.175 261.216 
L 161.151 261.216 
L 164.127 261.216 
L 167.103 261.186368 
L 170.079 261.192544 
L 173.055 261.155507 
L 176.031 261.062923 
L 179.007 260.965415 
L 181.983 260.803723 
L 184.959 260.576624 
L 187.935 260.135977 
L 190.911 259.539656 
L 193.887 258.672841 
L 196.863 257.598777 
L 199.839 236.064629 
L 202.815 226.775351 
L 205.791 215.094624 
L 208.767 204.570182 
L 211.743 194.710585 
L 214.719 187.061185 
L 217.695 182.373423 
L 220.671 179.766817 
L 223.647 182.992464 
L 226.623 187.487442 
L 229.599 194.265821 
L 232.575 202.399943 
L 235.551 211.112936 
L 238.527 219.119146 
L 241.503 226.985396 
L 244.479 233.364989 
L 247.455 239.105718 
L 250.431 243.503765 
L 253.407 247.324937 
L 256.383 250.408164 
L 259.359 252.390649 
L 262.335 254.020123 
L 265.311 255.119465 
L 268.287 255.936536 
L 271.263 256.374676 
L 274.239 256.929492 
L 277.215 257.055289 
L 280.191 257.097951 
L 283.167 257.157881 
L 286.143 256.755305 
L 289.119 256.186369 
L 292.095 255.161444 
L 295.071 254.493337 
L 298.047 253.822178 
L 301.023 252.933218 
L 303.999 252.906446 
L 306.975 253.213807 
L 309.951 253.37501 
L 312.927 253.671958 
L 315.903 253.993922 
L 318.879 254.035842 
L 321.855 253.689608 
L 324.831 252.680323 
L 327.807 251.129075 
L 330.783 249.066724 
L 333.759 246.726249 
L 336.735 244.485987 
L 339.711 241.970549 
L 342.687 240.261332 
L 345.663 239.647346 
L 348.639 240.363919 
L 351.615 241.201445 
L 354.591 242.740774 
L 357.567 244.997429 
L 360.543 247.324037 
L 363.519 249.936108 
L 366.495 252.298799 
L 369.471 254.467678 
L 372.447 256.022218 
L 375.423 257.671854 
L 378.399 258.586024 
L 381.375 259.741925 
L 384.351 259.988015 
L 387.327 260.303414 
L 390.303 260.729435 
L 393.279 260.935866 
L 396.255 261.08164 
L 399.231 261.134165 
L 402.207 261.216 
L 405.183 261.136358 
L 408.159 261.216 
L 411.135 261.216 
L 414.111 261.216 
" clip-path="url(#p4a0995232a)" style="fill: none; stroke: #ff7f0e; stroke-width: 1.5; stroke-linecap: square"/>
   </g>
   <g id="line2d_27">
    <path d="M 51.039 261.216 
L 54.015 261.216 
L 56.991 261.216 
L 59.967 261.216 
L 62.943 261.216 
L 65.919 261.216 
L 68.895 261.216 
L 71.871 261.216 
L 74.847 261.216 
L 77.823 261.216 
L 80.799 261.216 
L 83.775 261.160822 
L 86.751 261.108418 
L 89.727 261.213391 
L 92.703 260.948461 
L 95.679 261.119813 
L 98.655 260.84943 
L 101.631 260.769704 
L 104.607 260.681764 
L 107.583 260.596668 
L 110.559 260.497872 
L 113.535 259.921612 
L 116.511 259.406221 
L 119.487 258.534947 
L 122.463 256.850597 
L 125.439 254.049946 
L 128.415 250.08407 
L 131.391 244.18995 
L 134.367 236.396161 
L 137.343 227.929841 
L 140.319 217.747638 
L 143.295 210.430581 
L 146.271 204.370162 
L 149.247 202.021877 
L 152.223 203.497866 
L 155.199 208.831033 
L 158.175 215.552402 
L 161.151 222.391678 
L 164.127 230.000652 
L 167.103 233.601392 
L 170.079 235.092228 
L 173.055 234.580284 
L 176.031 228.706997 
L 179.007 221.675073 
L 181.983 210.196691 
L 184.959 199.346286 
L 187.935 189.612932 
L 190.911 182.866742 
L 193.887 180.488529 
L 196.863 184.630627 
L 199.839 190.761755 
L 202.815 199.930686 
L 205.791 209.092227 
L 208.767 220.268671 
L 211.743 229.387947 
L 214.719 236.521811 
L 217.695 242.249068 
L 220.671 247.280641 
L 223.647 250.846847 
L 226.623 253.213424 
L 229.599 254.952698 
L 232.575 255.998473 
L 235.551 256.963624 
L 238.527 257.994729 
L 241.503 258.403361 
L 244.479 258.881061 
L 247.455 259.303352 
L 250.431 259.360389 
L 253.407 259.636702 
L 256.383 259.846683 
L 259.359 260.139339 
L 262.335 260.384224 
L 265.311 260.288109 
L 268.287 260.37279 
L 271.263 260.583616 
L 274.239 260.334317 
L 277.215 259.960315 
L 280.191 259.985721 
L 283.167 259.480151 
L 286.143 259.120118 
L 289.119 258.666375 
L 292.095 258.302651 
L 295.071 258.185052 
L 298.047 258.000468 
L 301.023 258.141496 
L 303.999 258.337859 
L 306.975 258.548958 
L 309.951 258.720011 
L 312.927 258.79744 
L 315.903 258.894494 
L 318.879 259.070599 
L 321.855 259.130844 
L 324.831 258.981384 
L 327.807 258.962685 
L 330.783 259.02745 
L 333.759 258.708093 
L 336.735 258.741223 
L 339.711 258.643764 
L 342.687 258.521139 
L 345.663 258.404978 
L 348.639 258.607916 
L 351.615 258.55301 
L 354.591 258.435706 
L 357.567 258.68038 
L 360.543 258.653437 
L 363.519 259.180247 
L 366.495 259.357838 
L 369.471 259.412491 
L 372.447 259.675461 
L 375.423 259.605535 
L 378.399 259.796252 
L 381.375 260.023935 
L 384.351 260.20009 
L 387.327 260.239043 
L 390.303 260.411326 
L 393.279 260.567785 
L 396.255 260.639319 
L 399.231 260.581733 
L 402.207 260.886444 
L 405.183 260.74726 
L 408.159 261.069652 
L 411.135 261.149517 
L 414.111 261.003418 
" clip-path="url(#p4a0995232a)" style="fill: none; stroke: #2ca02c; stroke-width: 1.5; stroke-linecap: square"/>
   </g>
   <g id="line2d_28">
    <path d="M 51.039 261.216 
L 54.015 261.216 
L 56.991 261.216 
L 59.967 261.216 
L 62.943 261.216 
L 65.919 261.216 
L 68.895 261.216 
L 71.871 261.216 
L 74.847 261.216 
L 77.823 261.216 
L 80.799 261.216 
L 83.775 261.216 
L 86.751 261.216 
L 89.727 261.216 
L 92.703 261.216 
L 95.679 261.216 
L 98.655 261.216 
L 101.631 261.216 
L 104.607 261.216 
L 107.583 261.216 
L 110.559 261.216 
L 113.535 261.216 
L 116.511 261.216 
L 119.487 261.216 
L 122.463 261.216 
L 125.439 261.216 
L 128.415 261.216 
L 131.391 261.216 
L 134.367 261.216 
L 137.343 261.216 
L 140.319 261.216 
L 143.295 261.216 
L 146.271 261.163463 
L 149.247 261.005497 
L 152.223 260.916676 
L 155.199 260.806921 
L 158.175 260.567294 
L 161.151 260.626886 
L 164.127 260.168361 
L 167.103 259.689494 
L 170.079 259.215283 
L 173.055 258.2269 
L 176.031 256.70097 
L 179.007 253.663882 
L 181.983 248.778908 
L 184.959 241.08445 
L 187.935 227.940577 
L 190.911 209.61354 
L 193.887 185.249462 
L 196.863 157.638048 
L 199.839 128.398432 
L 202.815 105.7428 
L 205.791 90.683288 
L 208.767 85.724671 
L 211.743 88.984879 
L 214.719 98.071663 
L 217.695 113.379992 
L 220.671 131.184576 
L 223.647 149.910902 
L 226.623 170.471058 
L 229.599 189.178747 
L 232.575 205.550769 
L 235.551 219.615865 
L 238.527 228.884255 
L 241.503 236.987102 
L 244.479 242.060812 
L 247.455 245.240508 
L 250.431 246.534241 
L 253.407 247.519151 
L 256.383 247.469406 
L 259.359 247.935153 
L 262.335 248.822087 
L 265.311 249.925894 
L 268.287 251.481896 
L 271.263 253.327887 
L 274.239 254.854549 
L 277.215 256.14188 
L 280.191 257.547532 
L 283.167 258.28247 
L 286.143 258.984788 
L 289.119 259.450451 
L 292.095 259.752686 
L 295.071 259.89816 
L 298.047 260.213325 
L 301.023 260.096784 
L 303.999 259.815772 
L 306.975 259.144144 
L 309.951 258.198384 
L 312.927 256.183565 
L 315.903 254.593521 
L 318.879 251.865846 
L 321.855 250.378396 
L 324.831 249.096462 
L 327.807 248.972575 
L 330.783 250.212368 
L 333.759 252.438997 
L 336.735 254.042129 
L 339.711 256.056502 
L 342.687 257.954471 
L 345.663 259.276901 
L 348.639 260.071726 
L 351.615 260.318374 
L 354.591 260.660969 
L 357.567 260.962463 
L 360.543 261.181739 
L 363.519 261.216 
L 366.495 261.216 
L 369.471 261.216 
L 372.447 261.216 
L 375.423 261.216 
L 378.399 261.216 
L 381.375 261.216 
L 384.351 261.216 
L 387.327 261.216 
L 390.303 261.216 
L 393.279 261.216 
L 396.255 261.216 
L 399.231 261.216 
L 402.207 261.216 
L 405.183 261.216 
L 408.159 261.216 
L 411.135 261.216 
L 414.111 261.216 
" clip-path="url(#p4a0995232a)" style="fill: none; stroke: #d62728; stroke-width: 1.5; stroke-linecap: square"/>
   </g>
   <g id="line2d_29">
    <path d="M 51.039 261.216 
L 54.015 261.216 
L 56.991 261.216 
L 59.967 261.216 
L 62.943 261.216 
L 65.919 261.216 
L 68.895 261.216 
L 71.871 261.216 
L 74.847 261.216 
L 77.823 261.216 
L 80.799 261.216 
L 83.775 261.216 
L 86.751 261.216 
L 89.727 261.216 
L 92.703 261.216 
L 95.679 261.216 
L 98.655 261.216 
L 101.631 261.216 
L 104.607 261.216 
L 107.583 261.216 
L 110.559 261.216 
L 113.535 261.216 
L 116.511 261.216 
L 119.487 261.216 
L 122.463 261.216 
L 125.439 261.216 
L 128.415 261.216 
L 131.391 261.216 
L 134.367 261.216 
L 137.343 261.210241 
L 140.319 261.100682 
L 143.295 261.066142 
L 146.271 260.795156 
L 149.247 260.887566 
L 152.223 260.409069 
L 155.199 260.057601 
L 158.175 259.169923 
L 161.151 258.4556 
L 164.127 256.518963 
L 167.103 254.121754 
L 170.079 251.119878 
L 173.055 245.961423 
L 176.031 240.544971 
L 179.007 233.756722 
L 181.983 226.371039 
L 184.959 218.143329 
L 187.935 210.579031 
L 190.911 203.57529 
L 193.887 196.383878 
L 196.863 192.518361 
L 199.839 191.126454 
L 202.815 190.944671 
L 205.791 193.42874 
L 208.767 197.719677 
L 211.743 204.883859 
L 214.719 210.462138 
L 217.695 217.782816 
L 220.671 224.962679 
L 223.647 232.318616 
L 226.623 238.501368 
L 229.599 242.734102 
L 232.575 246.429184 
L 235.551 249.328358 
L 238.527 251.94834 
L 241.503 253.053525 
L 244.479 254.541472 
L 247.455 254.855692 
L 250.431 255.406165 
L 253.407 254.460005 
L 256.383 253.879228 
L 259.359 252.176105 
L 262.335 248.919534 
L 265.311 245.665013 
L 268.287 240.677926 
L 271.263 235.614558 
L 274.239 230.208818 
L 277.215 225.947551 
L 280.191 223.259157 
L 283.167 221.571958 
L 286.143 222.14982 
L 289.119 225.046852 
L 292.095 228.878407 
L 295.071 233.247717 
L 298.047 238.219106 
L 301.023 242.852543 
L 303.999 246.380277 
L 306.975 249.970358 
L 309.951 252.621409 
L 312.927 254.687036 
L 315.903 256.472917 
L 318.879 257.471814 
L 321.855 258.564426 
L 324.831 259.006781 
L 327.807 259.664217 
L 330.783 260.187544 
L 333.759 260.31434 
L 336.735 260.49045 
L 339.711 260.582733 
L 342.687 260.882435 
L 345.663 260.91996 
L 348.639 260.907122 
L 351.615 261.009371 
L 354.591 261.039657 
L 357.567 261.108771 
L 360.543 261.117441 
L 363.519 261.128992 
L 366.495 261.160674 
L 369.471 261.156376 
L 372.447 261.142017 
L 375.423 261.15643 
L 378.399 261.156455 
L 381.375 261.205381 
L 384.351 261.214026 
L 387.327 261.170879 
L 390.303 261.170894 
L 393.279 261.183858 
L 396.255 261.216 
L 399.231 261.196818 
L 402.207 261.216 
L 405.183 261.216 
L 408.159 261.216 
L 411.135 261.216 
L 414.111 261.216 
" clip-path="url(#p4a0995232a)" style="fill: none; stroke: #9467bd; stroke-width: 1.5; stroke-linecap: square"/>
   </g>
   <g id="line2d_30">
    <path d="M 51.039 261.216 
L 54.015 261.216 
L 56.991 261.195935 
L 59.967 261.216 
L 62.943 261.21233 
L 65.919 261.159112 
L 68.895 261.15 
L 71.871 261.110815 
L 74.847 261.1365 
L 77.823 261.062703 
L 80.799 260.997958 
L 83.775 260.950252 
L 86.751 260.983308 
L 89.727 260.663106 
L 92.703 260.502262 
L 95.679 259.940207 
L 98.655 259.127243 
L 101.631 258.370168 
L 104.607 256.702166 
L 107.583 254.191432 
L 110.559 250.30083 
L 113.535 244.032978 
L 116.511 236.442853 
L 119.487 227.127797 
L 122.463 214.311237 
L 125.439 201.110186 
L 128.415 187.775813 
L 131.391 175.427715 
L 134.367 167.81071 
L 137.343 162.945103 
L 140.319 161.696723 
L 143.295 163.21453 
L 146.271 169.117218 
L 149.247 176.144615 
L 152.223 185.669494 
L 155.199 196.643871 
L 158.175 205.219947 
L 161.151 214.937773 
L 164.127 222.435595 
L 167.103 227.908678 
L 170.079 231.781672 
L 173.055 234.337393 
L 176.031 235.412329 
L 179.007 236.680117 
L 181.983 237.581786 
L 184.959 239.646704 
L 187.935 240.814416 
L 190.911 242.897122 
L 193.887 244.476804 
L 196.863 247.16726 
L 199.839 249.338342 
L 202.815 251.78279 
L 205.791 254.150631 
L 208.767 256.367248 
L 211.743 257.712402 
L 214.719 259.280793 
L 217.695 260.33281 
L 220.671 260.916315 
L 223.647 261.216 
L 226.623 260.909539 
L 229.599 260.461401 
L 232.575 259.199721 
L 235.551 257.320222 
L 238.527 255.441129 
L 241.503 253.080377 
L 244.479 251.511235 
L 247.455 250.701248 
L 250.431 250.95437 
L 253.407 251.555758 
L 256.383 252.518761 
L 259.359 254.184324 
L 262.335 255.816419 
L 265.311 257.554224 
L 268.287 258.902756 
L 271.263 259.952913 
L 274.239 260.426079 
L 277.215 260.617703 
L 280.191 260.479784 
L 283.167 260.988232 
L 286.143 260.76809 
L 289.119 260.679939 
L 292.095 260.362833 
L 295.071 260.597104 
L 298.047 259.880039 
L 301.023 259.919379 
L 303.999 259.714187 
L 306.975 259.563269 
L 309.951 258.888265 
L 312.927 258.755357 
L 315.903 258.53754 
L 318.879 258.078036 
L 321.855 257.891727 
L 324.831 257.312282 
L 327.807 257.137015 
L 330.783 257.249794 
L 333.759 257.296892 
L 336.735 257.13321 
L 339.711 256.645512 
L 342.687 257.089041 
L 345.663 257.391727 
L 348.639 257.460462 
L 351.615 257.746996 
L 354.591 257.862277 
L 357.567 258.098052 
L 360.543 258.628383 
L 363.519 258.757491 
L 366.495 258.656971 
L 369.471 258.917124 
L 372.447 259.061848 
L 375.423 259.364699 
L 378.399 259.390124 
L 381.375 259.456737 
L 384.351 259.589169 
L 387.327 259.508756 
L 390.303 259.708869 
L 393.279 260.010328 
L 396.255 260.274993 
L 399.231 260.23513 
L 402.207 260.417216 
L 405.183 260.444786 
L 408.159 260.658995 
L 411.135 260.74441 
L 414.111 260.861662 
" clip-path="url(#p4a0995232a)" style="fill: none; stroke: #8c564b; stroke-width: 1.5; stroke-linecap: square"/>
   </g>
   <g id="line2d_31">
    <path d="M 51.039 261.216 
L 54.015 261.216 
L 56.991 261.216 
L 59.967 261.216 
L 62.943 261.216 
L 65.919 261.216 
L 68.895 261.216 
L 71.871 261.216 
L 74.847 261.216 
L 77.823 261.216 
L 80.799 261.216 
L 83.775 261.216 
L 86.751 261.216 
L 89.727 261.216 
L 92.703 261.216 
L 95.679 261.216 
L 98.655 261.216 
L 101.631 261.216 
L 104.607 261.216 
L 107.583 261.216 
L 110.559 261.216 
L 113.535 261.216 
L 116.511 261.216 
L 119.487 261.216 
L 122.463 261.216 
L 125.439 261.216 
L 128.415 261.216 
L 131.391 261.216 
L 134.367 261.216 
L 137.343 261.216 
L 140.319 261.216 
L 143.295 261.216 
L 146.271 261.216 
L 149.247 261.216 
L 152.223 261.216 
L 155.199 261.216 
L 158.175 261.216 
L 161.151 261.216 
L 164.127 261.216 
L 167.103 261.216 
L 170.079 261.145359 
L 173.055 261.20863 
L 176.031 261.142209 
L 179.007 261.180177 
L 181.983 261.078966 
L 184.959 261.031538 
L 187.935 260.990448 
L 190.911 260.962017 
L 193.887 260.835534 
L 196.863 260.709067 
L 199.839 260.550993 
L 202.815 260.250612 
L 205.791 259.845894 
L 208.767 259.042701 
L 211.743 257.711399 
L 214.719 256.250629 
L 217.695 253.859716 
L 220.671 251.134315 
L 223.647 247.180624 
L 226.623 242.735827 
L 229.599 237.522855 
L 232.575 232.893737 
L 235.551 228.388899 
L 238.527 224.328822 
L 241.503 221.448843 
L 244.479 219.375431 
L 247.455 219.247617 
L 250.431 220.087379 
L 253.407 221.579791 
L 256.383 224.544618 
L 259.359 227.99861 
L 262.335 231.424564 
L 265.311 235.585605 
L 268.287 238.984495 
L 271.263 242.995355 
L 274.239 246.034565 
L 277.215 248.288536 
L 280.191 249.887746 
L 283.167 251.10806 
L 286.143 251.794836 
L 289.119 252.094157 
L 292.095 251.539879 
L 295.071 251.107218 
L 298.047 250.239055 
L 301.023 249.89048 
L 303.999 249.066544 
L 306.975 247.407104 
L 309.951 246.058954 
L 312.927 243.218172 
L 315.903 240.215264 
L 318.879 236.178452 
L 321.855 232.378051 
L 324.831 228.708455 
L 327.807 226.151058 
L 330.783 225.342631 
L 333.759 226.440546 
L 336.735 227.614578 
L 339.711 231.036953 
L 342.687 233.992482 
L 345.663 236.827842 
L 348.639 239.280349 
L 351.615 241.540138 
L 354.591 243.722337 
L 357.567 245.832331 
L 360.543 247.602515 
L 363.519 249.257748 
L 366.495 251.181523 
L 369.471 252.902732 
L 372.447 254.432831 
L 375.423 255.883025 
L 378.399 257.219831 
L 381.375 258.0855 
L 384.351 258.844777 
L 387.327 259.507173 
L 390.303 260.059146 
L 393.279 260.255474 
L 396.255 260.535596 
L 399.231 260.706714 
L 402.207 260.890622 
L 405.183 260.982473 
L 408.159 261.031108 
L 411.135 261.096681 
L 414.111 261.128325 
" clip-path="url(#p4a0995232a)" style="fill: none; stroke: #e377c2; stroke-width: 1.5; stroke-linecap: square"/>
   </g>
   <g id="line2d_32">
    <path d="M 51.039 261.216 
L 54.015 261.216 
L 56.991 261.216 
L 59.967 261.216 
L 62.943 261.216 
L 65.919 261.216 
L 68.895 261.216 
L 71.871 261.216 
L 74.847 261.128482 
L 77.823 261.211984 
L 80.799 261.100851 
L 83.775 261.107424 
L 86.751 260.85607 
L 89.727 260.312219 
L 92.703 260.400313 
L 95.679 259.915436 
L 98.655 259.399354 
L 101.631 258.865417 
L 104.607 257.657378 
L 107.583 255.730975 
L 110.559 252.496857 
L 113.535 246.805535 
L 116.511 236.681279 
L 119.487 219.129369 
L 122.463 192.485486 
L 125.439 157.381344 
L 128.415 119.518731 
L 131.391 81.100998 
L 134.367 48.606151 
L 137.343 29.028774 
L 140.319 19.296 
L 143.295 28.272843 
L 146.271 47.197746 
L 149.247 75.154098 
L 152.223 105.383493 
L 155.199 136.755713 
L 158.175 165.138059 
L 161.151 187.580579 
L 164.127 205.709692 
L 167.103 218.040847 
L 170.079 227.261354 
L 173.055 234.776082 
L 176.031 239.039168 
L 179.007 243.411611 
L 181.983 246.107603 
L 184.959 248.571147 
L 187.935 250.175132 
L 190.911 252.283238 
L 193.887 253.846267 
L 196.863 255.459452 
L 199.839 256.733338 
L 202.815 257.696822 
L 205.791 258.460804 
L 208.767 258.933393 
L 211.743 259.644202 
L 214.719 260.128228 
L 217.695 260.0539 
L 220.671 260.343432 
L 223.647 260.824829 
L 226.623 260.916676 
L 229.599 260.822192 
L 232.575 261.04662 
L 235.551 261.056947 
L 238.527 260.853224 
L 241.503 260.943311 
L 244.479 261.068796 
L 247.455 260.929858 
L 250.431 260.936864 
L 253.407 260.890079 
L 256.383 261.099239 
L 259.359 260.994756 
L 262.335 261.110839 
L 265.311 260.910954 
L 268.287 260.870809 
L 271.263 260.661446 
L 274.239 260.909801 
L 277.215 260.883319 
L 280.191 260.7615 
L 283.167 260.772518 
L 286.143 260.74588 
L 289.119 260.366143 
L 292.095 260.121789 
L 295.071 259.640984 
L 298.047 259.691794 
L 301.023 259.449783 
L 303.999 258.761819 
L 306.975 258.538467 
L 309.951 258.140087 
L 312.927 257.470718 
L 315.903 257.136304 
L 318.879 256.824759 
L 321.855 256.313672 
L 324.831 255.821474 
L 327.807 256.030852 
L 330.783 255.71012 
L 333.759 255.59071 
L 336.735 255.789325 
L 339.711 255.905775 
L 342.687 255.882152 
L 345.663 256.449242 
L 348.639 256.805942 
L 351.615 257.273313 
L 354.591 258.013232 
L 357.567 258.194024 
L 360.543 258.871689 
L 363.519 258.963505 
L 366.495 258.971047 
L 369.471 259.82289 
L 372.447 260.031278 
L 375.423 260.14502 
L 378.399 260.402351 
L 381.375 260.86091 
L 384.351 261.039386 
L 387.327 261.097905 
L 390.303 261.216 
L 393.279 260.942297 
L 396.255 260.870635 
L 399.231 261.216 
L 402.207 261.216 
L 405.183 261.216 
L 408.159 261.216 
L 411.135 261.216 
L 414.111 261.216 
" clip-path="url(#p4a0995232a)" style="fill: none; stroke: #7f7f7f; stroke-width: 1.5; stroke-linecap: square"/>
   </g>
   <g id="line2d_33">
    <path d="M 51.039 261.184276 
L 54.015 261.0865 
L 56.991 261.009612 
L 59.967 260.842732 
L 62.943 260.724048 
L 65.919 260.64757 
L 68.895 260.351774 
L 71.871 260.271643 
L 74.847 259.78499 
L 77.823 259.224585 
L 80.799 258.137589 
L 83.775 256.076486 
L 86.751 252.84226 
L 89.727 247.228589 
L 92.703 238.610747 
L 95.679 226.651448 
L 98.655 211.437497 
L 101.631 194.636038 
L 104.607 176.520709 
L 107.583 162.106661 
L 110.559 152.14513 
L 113.535 148.436885 
L 116.511 150.274309 
L 119.487 157.760016 
L 122.463 167.919649 
L 125.439 180.998979 
L 128.415 192.716346 
L 131.391 204.893884 
L 134.367 215.042168 
L 137.343 222.580695 
L 140.319 226.67324 
L 143.295 227.056471 
L 146.271 224.329307 
L 149.247 218.16041 
L 152.223 211.02926 
L 155.199 204.107666 
L 158.175 200.932299 
L 161.151 199.694924 
L 164.127 202.706077 
L 167.103 209.384219 
L 170.079 216.40382 
L 173.055 224.327812 
L 176.031 232.451735 
L 179.007 239.264269 
L 181.983 244.478119 
L 184.959 249.320573 
L 187.935 253.063182 
L 190.911 255.190942 
L 193.887 257.050541 
L 196.863 258.017298 
L 199.839 258.380242 
L 202.815 259.06123 
L 205.791 259.447054 
L 208.767 259.574552 
L 211.743 259.882505 
L 214.719 260.053142 
L 217.695 260.203793 
L 220.671 260.186771 
L 223.647 260.447272 
L 226.623 260.487532 
L 229.599 260.433039 
L 232.575 260.528957 
L 235.551 260.441884 
L 238.527 260.40343 
L 241.503 260.322577 
L 244.479 260.133518 
L 247.455 260.108181 
L 250.431 260.157922 
L 253.407 260.179295 
L 256.383 260.253932 
L 259.359 260.409103 
L 262.335 260.234928 
L 265.311 260.335755 
L 268.287 260.300165 
L 271.263 260.109176 
L 274.239 260.232583 
L 277.215 260.102117 
L 280.191 259.96932 
L 283.167 259.944347 
L 286.143 259.721151 
L 289.119 259.527165 
L 292.095 259.504866 
L 295.071 259.466992 
L 298.047 259.396739 
L 301.023 259.343791 
L 303.999 259.135373 
L 306.975 259.209697 
L 309.951 259.216042 
L 312.927 259.354537 
L 315.903 259.360876 
L 318.879 259.678454 
L 321.855 259.967223 
L 324.831 260.091445 
L 327.807 260.221119 
L 330.783 260.359693 
L 333.759 260.362737 
L 336.735 260.575404 
L 339.711 260.671611 
L 342.687 260.733606 
L 345.663 260.683922 
L 348.639 260.836225 
L 351.615 260.909877 
L 354.591 260.9545 
L 357.567 260.98112 
L 360.543 261.018909 
L 363.519 261.093753 
L 366.495 261.074302 
L 369.471 261.096601 
L 372.447 261.206953 
L 375.423 261.216 
L 378.399 261.122158 
L 381.375 261.216 
L 384.351 261.216 
L 387.327 261.216 
L 390.303 261.216 
L 393.279 261.216 
L 396.255 261.216 
L 399.231 261.216 
L 402.207 261.216 
L 405.183 261.216 
L 408.159 261.216 
L 411.135 261.216 
L 414.111 261.216 
" clip-path="url(#p4a0995232a)" style="fill: none; stroke: #bcbd22; stroke-width: 1.5; stroke-linecap: square"/>
   </g>
   <g id="line2d_34">
    <path d="M 51.039 261.216 
L 54.015 261.216 
L 56.991 261.216 
L 59.967 261.216 
L 62.943 261.216 
L 65.919 261.216 
L 68.895 261.216 
L 71.871 261.216 
L 74.847 261.216 
L 77.823 261.216 
L 80.799 261.216 
L 83.775 261.216 
L 86.751 261.216 
L 89.727 261.216 
L 92.703 261.216 
L 95.679 261.216 
L 98.655 261.216 
L 101.631 261.216 
L 104.607 261.216 
L 107.583 261.216 
L 110.559 261.216 
L 113.535 261.216 
L 116.511 261.216 
L 119.487 261.216 
L 122.463 261.216 
L 125.439 261.216 
L 128.415 261.216 
L 131.391 261.216 
L 134.367 261.216 
L 137.343 261.216 
L 140.319 261.216 
L 143.295 261.216 
L 146.271 261.216 
L 149.247 261.216 
L 152.223 261.216 
L 155.199 261.216 
L 158.175 261.216 
L 161.151 261.216 
L 164.127 261.216 
L 167.103 261.216 
L 170.079 261.216 
L 173.055 261.216 
L 176.031 261.216 
L 179.007 261.216 
L 181.983 261.216 
L 184.959 261.216 
L 187.935 261.216 
L 190.911 261.216 
L 193.887 261.216 
L 196.863 261.216 
L 199.839 261.216 
L 202.815 261.216 
L 205.791 261.216 
L 208.767 261.216 
L 211.743 261.216 
L 214.719 261.216 
L 217.695 261.216 
L 220.671 261.216 
L 223.647 261.216 
L 226.623 261.216 
L 229.599 261.216 
L 232.575 261.216 
L 235.551 261.210215 
L 238.527 261.153491 
L 241.503 261.20964 
L 244.479 261.154966 
L 247.455 261.117542 
L 250.431 261.12738 
L 253.407 261.05254 
L 256.383 260.96452 
L 259.359 260.913314 
L 262.335 260.678655 
L 265.311 260.427505 
L 268.287 260.179189 
L 271.263 259.504177 
L 274.239 258.690638 
L 277.215 257.714681 
L 280.191 256.299193 
L 283.167 254.430597 
L 286.143 252.447078 
L 289.119 249.956513 
L 292.095 247.464669 
L 295.071 245.022109 
L 298.047 243.35254 
L 301.023 241.694883 
L 303.999 240.597234 
L 306.975 239.902469 
L 309.951 239.898125 
L 312.927 239.636893 
L 315.903 239.774837 
L 318.879 239.583082 
L 321.855 239.321099 
L 324.831 239.142359 
L 327.807 239.548015 
L 330.783 240.436168 
L 333.759 241.371479 
L 336.735 243.568368 
L 339.711 245.222612 
L 342.687 247.434705 
L 345.663 249.950781 
L 348.639 251.958382 
L 351.615 253.784361 
L 354.591 255.207427 
L 357.567 256.485835 
L 360.543 257.381844 
L 363.519 258.170105 
L 366.495 258.818433 
L 369.471 259.224056 
L 372.447 259.540822 
L 375.423 259.74444 
L 378.399 259.957736 
L 381.375 260.163319 
L 384.351 260.226993 
L 387.327 260.29513 
L 390.303 260.39969 
L 393.279 260.506679 
L 396.255 260.549138 
L 399.231 260.529595 
L 402.207 260.653889 
L 405.183 260.703726 
L 408.159 260.703943 
L 411.135 260.763675 
L 414.111 260.687016 
" clip-path="url(#p4a0995232a)" style="fill: none; stroke: #17becf; stroke-width: 1.5; stroke-linecap: square"/>
   </g>
   <g id="patch_3">
    <path d="M 54.015 273.312 
L 54.015 7.2 
" style="fill: none; stroke: #000000; stroke-width: 0.8; stroke-linejoin: miter; stroke-linecap: square"/>
   </g>
   <g id="patch_4">
    <path d="M 411.135 273.312 
L 411.135 7.2 
" style="fill: none; stroke: #000000; stroke-width: 0.8; stroke-linejoin: miter; stroke-linecap: square"/>
   </g>
   <g id="patch_5">
    <path d="M 54.015 273.312 
L 411.135 273.312 
" style="fill: none; stroke: #000000; stroke-width: 0.8; stroke-linejoin: miter; stroke-linecap: square"/>
   </g>
   <g id="patch_6">
    <path d="M 54.015 7.2 
L 411.135 7.2 
" style="fill: none; stroke: #000000; stroke-width: 0.8; stroke-linejoin: miter; stroke-linecap: square"/>
   </g>
  </g>
 </g>
 <defs>
  <clipPath id="p4a0995232a">
   <rect x="54.015" y="7.2" width="357.12" height="266.112"/>
  </clipPath>
 </defs>
</svg>
